<?xml version="1.0" encoding="utf-8"?>
<!-- Generator: Adobe Illustrator 25.0.0, SVG Export Plug-In . SVG Version: 6.00 Build 0)  -->
<svg version="1.1" id="Warstwa_1" xmlns="http://www.w3.org/2000/svg" xmlns:xlink="http://www.w3.org/1999/xlink" x="0px" y="0px"
	 viewBox="0 0 16 16" style="enable-background:new 0 0 16 16;" xml:space="preserve">
<g>
	<path id="Path_1" d="M8.18,0.39L8.18,0.39C9,1.71,9.81,3.03,10.62,4.35c0.1,0.15,0.16,0.33,0.33,0.42c0.15,0.06,0.3,0.1,0.45,0.13
		c1.33,0.32,2.66,0.64,3.98,0.96c0.13,0.03,0.26,0.06,0.39,0.11C15.74,6,15.71,6.02,15.66,6.03c-0.64,0.19-1.27,0.4-1.91,0.59
		c-0.14,0.05-0.28,0.09-0.43,0.09c-0.14-0.02-0.28-0.05-0.41-0.09c-0.9-0.21-1.79-0.42-2.69-0.65c-0.09-0.02-0.18-0.06-0.25-0.12
		C9.9,5.76,9.83,5.66,9.77,5.55c-0.5-0.81-1-1.62-1.5-2.43c-0.06-0.1-0.09-0.21-0.1-0.32c-0.01-0.72,0-1.44,0-2.15
		C8.17,0.56,8.18,0.48,8.18,0.39L8.18,0.39z"/>
	<path id="Path_2" d="M7.21,1.34c0.19-0.3,0.36-0.61,0.57-0.9C7.79,0.52,7.8,0.62,7.8,0.71c0,0.69,0,1.38,0,2.07
		c0,0.13-0.04,0.26-0.11,0.37c-0.53,0.87-1.06,1.75-1.6,2.61c-0.06,0.1-0.16,0.18-0.28,0.21c-1.02,0.26-2.05,0.5-3.08,0.74
		c-0.08,0.02-0.16,0.02-0.23,0C1.76,6.49,1.03,6.26,0.3,6.03C0.25,6.01,0.21,5.99,0.17,5.96C1.73,5.57,3.3,5.21,4.85,4.82
		C5,4.79,5.13,4.7,5.22,4.57C5.89,3.5,6.55,2.42,7.21,1.34L7.21,1.34z"/>
	<path id="Path_3" d="M4.29,3.05C4.7,2.99,5.08,3.28,5.14,3.68S4.91,4.47,4.5,4.53c-0.01,0-0.02,0-0.03,0
		c-0.41,0.03-0.77-0.28-0.8-0.69c0,0,0-0.01,0-0.01C3.65,3.46,3.92,3.12,4.29,3.05L4.29,3.05z"/>
	<path id="Path_4" d="M11.44,3.05c0.2-0.03,0.4,0.02,0.56,0.13c0.33,0.24,0.4,0.7,0.16,1.03s-0.7,0.4-1.03,0.16
		c-0.33-0.24-0.4-0.7-0.16-1.03C11.08,3.18,11.25,3.08,11.44,3.05z"/>
	<path id="Path_5" d="M0,6.33c0.67,0.21,1.33,0.43,2.01,0.61c0.35,0.1,0.65,0.3,0.87,0.59c0.55,0.68,1.13,1.34,1.7,2
		c0.08,0.08,0.13,0.19,0.15,0.3c0,0.15,0,0.29-0.03,0.43c-0.07,0.74-0.12,1.49-0.17,2.24c-0.01,0.29-0.06,0.57-0.17,0.83
		c-0.14,0.25-0.3,0.48-0.48,0.69c-0.33,0.43-0.61,0.9-0.95,1.32c0.11-1.44,0.23-2.87,0.34-4.31c0.01-0.22,0.04-0.44,0.03-0.66
		C3.3,10.2,3.15,10.07,3.04,9.93C2.03,8.73,1,7.55,0,6.33C0,6.34,0,6.33,0,6.33z"/>
	<path id="Path_6" d="M13.7,7.03c0.76-0.24,1.53-0.48,2.3-0.71c-0.74,0.88-1.49,1.76-2.24,2.64c-0.31,0.36-0.61,0.74-0.94,1.09
		c-0.14,0.18-0.19,0.42-0.14,0.64c0.12,1.43,0.23,2.85,0.34,4.28c0.01,0.12,0.02,0.24,0.02,0.36c-0.13-0.15-0.25-0.3-0.36-0.46
		c-0.36-0.5-0.73-1-1.08-1.52c-0.09-0.16-0.13-0.33-0.13-0.51c-0.08-0.97-0.16-1.93-0.22-2.9c-0.02-0.13,0.03-0.26,0.11-0.35
		c0.63-0.75,1.27-1.5,1.91-2.25C13.37,7.2,13.52,7.09,13.7,7.03L13.7,7.03z"/>
	<path id="Path_7" d="M2.05,9.88c0.4-0.08,0.79,0.19,0.87,0.59c0.05,0.27-0.05,0.55-0.27,0.72c-0.28,0.22-0.68,0.21-0.95-0.02
		c-0.23-0.19-0.31-0.5-0.23-0.79C1.56,10.13,1.78,9.93,2.05,9.88L2.05,9.88z"/>
	<path id="Path_8" d="M13.74,9.88c0.27-0.04,0.54,0.06,0.7,0.27c0.26,0.32,0.2,0.79-0.12,1.05c-0.29,0.23-0.71,0.21-0.98-0.04
		c-0.3-0.28-0.32-0.75-0.04-1.05C13.42,9.99,13.57,9.91,13.74,9.88L13.74,9.88z"/>
	<path id="Path_9" d="M7.64,12.25c0.16-0.1,0.35-0.12,0.53-0.07c0.94,0.38,1.87,0.77,2.81,1.16c0.13,0.05,0.24,0.14,0.32,0.25
		c0.46,0.63,0.92,1.27,1.35,1.92c0.02,0.03,0.03,0.06,0.05,0.1h-0.01c-0.02-0.02-0.04-0.04-0.06-0.06
		c-0.12-0.04-0.24-0.08-0.36-0.14c-1.35-0.56-2.71-1.12-4.06-1.68c-0.15-0.06-0.32-0.05-0.46,0.03c-1.19,0.5-2.38,0.99-3.57,1.48
		c-0.29,0.13-0.59,0.23-0.87,0.37H3.25c0.1-0.18,0.22-0.35,0.35-0.52c0.37-0.52,0.74-1.04,1.11-1.56c0.06-0.08,0.14-0.14,0.23-0.17
		C5.84,12.99,6.74,12.62,7.64,12.25L7.64,12.25z"/>
	<path id="Path_10" d="M7.82,14.1c0.4-0.1,0.81,0.15,0.91,0.55c0.1,0.4-0.15,0.81-0.55,0.91c-0.4,0.1-0.81-0.15-0.91-0.55
		c-0.01-0.02-0.01-0.04-0.01-0.06C7.19,14.56,7.44,14.19,7.82,14.1z"/>
</g>
</svg>
