<?xml version="1.0" encoding="utf-8"?>
<!-- Generator: Adobe Illustrator 25.0.0, SVG Export Plug-In . SVG Version: 6.00 Build 0)  -->
<svg version="1.1" id="Warstwa_1" xmlns="http://www.w3.org/2000/svg" xmlns:xlink="http://www.w3.org/1999/xlink" x="0px" y="0px"
	 viewBox="0 0 1080 1080" style="enable-background:new 0 0 1080 1080;" xml:space="preserve">
<style type="text/css">
	.st0{opacity:0.15;fill:#A9E1F2;}
	.st1{opacity:0.42;fill:url(#SVGID_1_);}
	.st2{fill:#A9E1F2;}
	.st3{opacity:0.31;fill:#5574D8;}
	.st4{opacity:0.22;fill:#9FAAD4;}
	.st5{opacity:0.12;fill:#8D9294;}
	.st6{fill:#FFFFFF;}
	.st7{fill:url(#SVGID_2_);}
	.st8{fill:#091D7B;}
	.st9{fill:url(#SVGID_3_);}
	.st10{fill:#FDD1B1;}
	.st11{fill:#202952;}
	.st12{opacity:0.15;fill:url(#SVGID_4_);}
	.st13{opacity:0.15;fill:url(#SVGID_5_);}
	.st14{opacity:0.15;fill:url(#SVGID_6_);}
	.st15{fill:#002B3B;}
	.st16{fill:#E34862;}
	.st17{opacity:0.15;fill:url(#SVGID_7_);}
	.st18{opacity:0.15;fill:url(#SVGID_8_);}
	.st19{opacity:0.15;fill:url(#SVGID_9_);}
	.st20{fill:#728EFC;}
	.st21{fill:#FFB600;}
	.st22{opacity:0.42;fill:#FFFFFF;}
	.st23{opacity:0.71;fill:#FF8B00;}
	.st24{opacity:0.15;fill:url(#SVGID_10_);}
	.st25{opacity:0.15;fill:url(#SVGID_11_);}
	.st26{fill:#212B53;}
	.st27{fill:url(#SVGID_12_);}
	.st28{opacity:0.15;fill:url(#SVGID_13_);}
	.st29{opacity:0.37;fill:#FFFFFF;}
	.st30{opacity:0.16;fill:url(#SVGID_14_);}
	.st31{opacity:0.16;fill:url(#SVGID_15_);}
	.st32{fill:#F5EBD2;}
	.st33{opacity:0.16;fill:url(#SVGID_16_);}
	.st34{opacity:0.16;fill:url(#SVGID_17_);}
	.st35{opacity:0.16;fill:url(#SVGID_18_);}
	.st36{fill:#57ABEC;}
	.st37{fill:#28B5C8;}
	.st38{fill:#E34899;}
	.st39{opacity:0.15;fill:url(#SVGID_19_);}
	.st40{opacity:0.48;fill:#FFFFFF;}
</style>
<g>
	<g>
		<g>
			<path class="st0" d="M155.72,586.92C-30.16,776.26-49.32,922.31,96.58,975.13c127.55,46.17,254.08-47.03,456.58,25.79
				c67.52,24.28,228.23,47.19,368.09-59.35C1062.9,833.67,1187.7,546.2,933.2,593.2c-102.23,18.88-19.02-301.29-212.3-317.23
				C583.9,264.67,312.04,427.71,155.72,586.92z"/>
			<linearGradient id="SVGID_1_" gradientUnits="userSpaceOnUse" x1="474.3981" y1="876.0673" x2="756.498" y2="451.9708">
				<stop  offset="0" style="stop-color:#A5E9FF"/>
				<stop  offset="1" style="stop-color:#F0F3F5"/>
			</linearGradient>
			<path class="st1" d="M931.2,921.89c-117.23,72.06-291.69,150.67-394.96,82.24c-154.96-102.68-306.39-20.19-423.87-46.87
				C-5.82,930.41-15.75,802.77,139.31,601.29c144.79-188.14,389.6-360.68,491.32-360.97c206.35-0.57,186.63,351.72,296.04,335.52
				C1124.94,546.46,1109.57,812.25,931.2,921.89z"/>
		</g>
		<path class="st2" d="M317.25,460.48l-7.46-8.02c-3.21,1.43-6.26,3.1-9.11,5.01l2.82,10.62c-2.9,2.23-5.51,4.77-7.83,7.54
			l-10.48-3.21c-2.04,2.81-3.83,5.79-5.37,8.9l7.73,7.78c-1.37,3.34-2.39,6.84-3.01,10.44l-10.7,2.46
			c-0.36,3.41-0.41,6.89-0.18,10.39l10.58,2.85c0.25,1.79,0.58,3.56,1.03,5.36c0.44,1.78,0.97,3.51,1.59,5.21l-8.02,7.46
			c1.43,3.21,3.1,6.26,5.01,9.11l10.62-2.82c2.23,2.9,4.76,5.51,7.54,7.84l-3.21,10.48c2.81,2.04,5.79,3.83,8.9,5.37l7.77-7.73
			c3.35,1.37,6.85,2.39,10.45,3.01l2.46,10.7c3.41,0.36,6.89,0.41,10.39,0.18l2.85-10.58c1.79-0.25,3.56-0.58,5.35-1.02
			c1.79-0.44,3.52-0.98,5.22-1.59l7.46,8.02c3.21-1.43,6.26-3.1,9.11-5.01l-2.82-10.62c2.9-2.23,5.51-4.76,7.83-7.54l10.49,3.21
			c2.04-2.81,3.83-5.79,5.37-8.9l-7.73-7.77c1.36-3.35,2.39-6.85,3.01-10.45l10.7-2.46c0.36-3.41,0.41-6.89,0.18-10.39l-10.58-2.85
			c-0.25-1.79-0.58-3.56-1.02-5.35c-0.44-1.79-0.98-3.52-1.59-5.22l8.02-7.46c-1.43-3.21-3.1-6.26-5.01-9.11l-10.62,2.82
			c-2.23-2.9-4.77-5.51-7.54-7.83l3.21-10.49c-2.81-2.04-5.79-3.83-8.9-5.37l-7.78,7.73c-3.34-1.36-6.84-2.39-10.44-3.01l-2.46-10.7
			c-3.41-0.36-6.89-0.41-10.39-0.18l-2.85,10.58c-1.79,0.25-3.56,0.58-5.36,1.03C320.68,459.33,318.95,459.87,317.25,460.48z
			 M328.38,482.78c14.12-3.5,28.41,5.12,31.91,19.24c3.5,14.11-5.12,28.4-19.24,31.9c-14.11,3.5-28.4-5.12-31.9-19.23
			C305.65,500.56,314.26,486.27,328.38,482.78z"/>
		<path class="st3" d="M324.91,468.77c-21.86,5.41-35.18,27.52-29.77,49.39c5.41,21.86,27.52,35.18,49.38,29.77
			c21.87-5.42,35.19-27.52,29.78-49.38C368.88,476.68,346.77,463.35,324.91,468.77z M328.38,482.78
			c14.12-3.5,28.41,5.12,31.91,19.24c3.5,14.11-5.12,28.4-19.24,31.9c-14.11,3.5-28.4-5.12-31.9-19.23
			C305.65,500.56,314.26,486.27,328.38,482.78z"/>
		<ellipse class="st4" cx="516.63" cy="865.58" rx="131.56" ry="11.17"/>
		<ellipse class="st4" cx="300.68" cy="846.54" rx="172.93" ry="11.16"/>
		<ellipse class="st4" cx="750.54" cy="845.66" rx="248.16" ry="11.16"/>
		<g>
			<path class="st5" d="M1002.25,835.58c-0.04,1.55-0.22,3.02-0.56,4.41H771.98c0,0-10.5,0-27.97,0H501.16
				c2.97-5.83,9.52-10.98,17.67-13.29c9.49-2.7,25.55-7.5,24.14-14.12c-5.26-24.56-17.36-42.24,13.83-71.31
				c9.79-9.13,39.09-17.42,67.12-2.71c22.39,11.74,37.06-31.95,83.72-55.6c1.37-0.69,2.78-1.37,4.22-2.03
				c26.81-12.35,60.52-11.08,82.63,11.55c8.96,9.18,16.03,21.89,19.95,38.62c13.56,58,45.47,19.43,50.85,12.88
				c15.59-18.98,61.95-8.81,69.18,17.79c13.61,50.12,27.93,42.25,39.97,45.26C986.5,810.05,1002.57,820.59,1002.25,835.58z"/>
			<path class="st6" d="M994.75,843.63c-0.04,1.55-0.22,3.02-0.56,4.41H764.48c0,0-10.5,0-27.97,0H513.1
				c-7.74,0-9.45-11.05-2.02-13.22c0.08-0.02,0.16-0.05,0.24-0.07c9.49-2.7,25.55-7.5,24.14-14.12
				c-5.26-24.56-17.36-42.24,13.83-71.31c9.79-9.13,39.09-17.42,67.12-2.71c22.39,11.74,37.06-31.95,83.72-55.6
				c1.37-0.69,2.78-1.37,4.22-2.03c26.81-12.35,60.52-11.08,82.63,11.55c8.96,9.18,16.03,21.89,19.95,38.62
				c13.56,58,45.47,19.43,50.85,12.88c15.59-18.98,61.95-8.81,69.18,17.79c13.61,50.12,27.93,42.25,39.97,45.26
				C979,818.09,995.06,828.64,994.75,843.63z"/>
		</g>
		<g>
			<path class="st5" d="M596.46,848.53H353.73c0,0-10.5,0-27.97,0H147.67c-7.74,0-1.89-100.14,67.42-87.6
				c24.88,4.5,27.65-45.78,74.31-69.43c1.37-0.69,2.78-1.37,4.22-2.03c26.81-12.35,58.79-9.25,82.63,11.55
				c13.85,12.09,28.72,77.92,70.8,51.5c22.81-14.33,57.61-11.19,69.18,17.79c19.26,48.23,28.97,36.5,41.22,34.52
				C591.36,799.34,596.8,847.15,596.46,848.53z"/>
			<path class="st6" d="M580.06,848.53H337.33c0,0-10.5,0-27.97,0H131.27c-7.74,0-1.89-100.14,67.42-87.6
				c24.88,4.5,27.65-45.78,74.31-69.43c1.37-0.69,2.78-1.37,4.22-2.03c26.81-12.35,58.79-9.25,82.63,11.55
				c13.85,12.09,28.72,77.92,70.8,51.5c22.81-14.33,57.61-11.19,69.18,17.79c19.26,48.23,28.97,36.5,41.22,34.52
				C574.95,799.34,580.4,847.15,580.06,848.53z"/>
		</g>
		<g>
			
				<linearGradient id="SVGID_2_" gradientUnits="userSpaceOnUse" x1="2090.8975" y1="1494.5594" x2="1841.2374" y2="1739.0822" gradientTransform="matrix(0.9577 -0.2878 0.2878 0.9577 -1658.5631 -413.9441)">
				<stop  offset="0" style="stop-color:#84D5E0"/>
				<stop  offset="1" style="stop-color:#57ABEC"/>
			</linearGradient>
			<path class="st7" d="M605.8,815.97c19.33-13.83,19.71-33.41,6.56-35.76c-9.27-1.66-10-10.17,16.63-33.16
				c26.63-22.99,19.17-37.65,13.03-40.19c-6.15-2.53-24-2.17-8.7-20.99c15.3-18.82,19.63-43.36,12.47-47.3
				c-7.15-3.94-24.45,11.55-35.42,30.67c-10.97,19.12-25.17,42.65-28.7,29.06c-3.54-13.59-16.93-13.01-23.7,5.97
				c-6.77,18.98-7.2,62.54-14.59,56.25c-6.9-5.87-17.16-6.36-16.95,19.46c0.17,21.6,10.37,55.68,10.37,55.68
				S586.47,829.8,605.8,815.97z"/>
			<path class="st6" d="M537.55,835.92l-1.49-0.49c28.49-87.03,103.24-189.81,104-190.83l1.26,0.92
				C640.57,646.55,565.96,749.13,537.55,835.92z"/>
			<path class="st6" d="M577.72,746.52l-1.01-1.2c25.65-21.46,53.66-23,53.94-23.01l0.07,1.56
				C630.45,723.88,602.94,725.41,577.72,746.52z"/>
			<path class="st6" d="M544.61,816.01l-0.96-1.24c30.84-23.8,61.98-15.91,62.29-15.83l-0.4,1.52
				C605.23,800.38,574.81,792.7,544.61,816.01z"/>
			<path class="st6" d="M575.88,750.02l-1.38-0.74c4.63-8.69-4.44-39.39-4.53-39.7l1.5-0.45
				C571.85,710.43,580.8,740.77,575.88,750.02z"/>
		</g>
		<g>
			<path class="st8" d="M720.38,718.63c2.62,7.99-27.82,10.85-27.82,10.85S716.16,705.79,720.38,718.63z"/>
			<path class="st8" d="M700.23,740.24c-0.93-4.5-15.31-5.06-28.66,2.02c0,0,9.62,2.2,15.18,4.38
				C692.3,748.82,701.64,747.1,700.23,740.24z"/>
			<g>
				<path class="st8" d="M622.03,802.77c33.53-56.16,73.42-74.3,73.84-74.46l-0.39-1.01c-0.42,0.16-42.39,16.87-76.11,73.34
					L622.03,802.77z"/>
			</g>
			<path class="st8" d="M678.19,714.23c4.35,3.47-8.81,29.62-8.81,29.62s-4.02-10.34-3.93-18.75
				C665.55,716.69,673.96,710.86,678.19,714.23z"/>
			<path class="st8" d="M652.96,758.25c0,0,20.58-7.86,29.64,0.9C691.65,767.92,670.3,769.37,652.96,758.25z"/>
			<path class="st8" d="M638.29,775.86c0,0,27.21-9.41,31.38,3.89C673.85,793.04,638.29,775.86,638.29,775.86z"/>
			<path class="st8" d="M630.45,784.71c0,0-11.13-22.31,0.1-32.34C641.79,742.34,639.4,775.19,630.45,784.71z"/>
			<path class="st8" d="M652.09,761.5c0,0-12.51-21.57-1.92-32.28C660.76,718.5,660.44,751.44,652.09,761.5z"/>
		</g>
		<g>
			
				<linearGradient id="SVGID_3_" gradientUnits="userSpaceOnUse" x1="2112.2375" y1="1285.8185" x2="1989.8767" y2="1395.3442" gradientTransform="matrix(0.9609 -0.2769 0.2769 0.9609 -1670.9055 107.2473)">
				<stop  offset="0" style="stop-color:#84D5E0"/>
				<stop  offset="0.4665" style="stop-color:#6FC1E6"/>
				<stop  offset="1" style="stop-color:#57ABEC"/>
			</linearGradient>
			<path class="st9" d="M593.69,824.08c7.77-17.45,18.26-42.6,33.49-46.97c15.23-4.37,18.46,6.24,17.95,11.14
				c-0.5,4.9,7-3.35,26.02-12.5c19.01-9.15,34.03-7.49,39.83-4.79c9.98,4.65,7.22,8.78,4.97,16.57c-2.25,7.78,41.8,4.2,49.02,13.11
				c7.22,8.91-7.65,21.16-25.31,20.19c-17.66-0.97-22.69,2.13-17.66,7.88c5.04,5.75,2.14,22.36-27.71,14.08
				c-29.85-8.29-42.34-7.48-37.05,0.44c5.29,7.92,9.55,16.92-13.07,17.09c-22.62,0.17-49.53-8.02-54.66-1.98
				C584.37,864.38,586.02,841.29,593.69,824.08z"/>
			<path class="st6" d="M590.22,858.66l-1.43-0.65c13.02-28.52,46.72-46.98,97.44-53.4c38.2-4.83,72.99-1.16,73.34-1.12l-0.17,1.56
				C758.03,804.89,621.18,790.87,590.22,858.66z"/>
			<path class="st6" d="M704.67,829.75c-0.17-0.2-17.16-20.04-39.17-20.04c-0.05,0-0.1,0-0.15,0l-0.01-1.57c0.05,0,0.1,0,0.15,0
				c22.75,0,40.19,20.39,40.37,20.6L704.67,829.75z"/>
			<path class="st6" d="M660.84,810.75l-0.45-1.5c18.43-5.46,36.67-29.06,36.85-29.3l1.25,0.95
				C697.73,781.89,679.75,805.15,660.84,810.75z"/>
			<path class="st6" d="M614.34,830.35l-1.21-1c15.36-18.53,12.29-35.73,12.25-35.9l1.54-0.3
				C627.07,793.88,630.21,811.21,614.34,830.35z"/>
		</g>
		<g>
			<ellipse class="st4" cx="138.95" cy="899.06" rx="84.61" ry="11.17"/>
			<g>
				<g>
					<path class="st10" d="M173.22,896.06c2.12,0.81,29.29,0.34,40.61,0.11c2.31-0.05,3.37-2.85,1.71-4.46
						c-2.8-2.7-7.79-5.81-16.3-6.61c-3.7-0.35-5.97-1.56-7.3-3.55c-1.87-2.77-5.96-13.59-5.59-19.15c0.08-1.2-2.47-2.87-2.36-4.19
						c0.95-11.6-16.45,1.75-16.45,1.75s1.37,2.97,1.29,5.33c-0.11,3.41,4.86,12.03,3.89,15.99c-0.14,0.58-0.29,1.14-0.46,1.67
						C170.12,889.58,170.55,895.03,173.22,896.06z"/>
					<path class="st11" d="M173.22,896.06c2.29,0.87,33.96,0.25,43.07,0.05c1.17-0.03,1.63-1.25,1.11-2.29
						c-1.81-3.66-6.97-9.41-17.87-10.44c-3.7-0.35-7.21-1.81-8.54-3.79c-3.82,0.23-6.86,1.92-6.79,5.4
						c0.04,2.05-6.44,2.63-11.48-3.71c-0.14,0.58-0.29,1.14-0.46,1.67C170.12,889.58,170.55,895.03,173.22,896.06z"/>
				</g>
				<g>
					<path class="st10" d="M67.46,887.41c-3.72,3.06-1.53,9.1,3.29,9.1h19.91c3.56,0,8.45-2.83,7.52-11.93
						c-0.06-0.56-0.11-1.14-0.15-1.73c-0.34-4.43-0.34-9.61-0.24-13.92c0.12-5.09,0.38-8.97,0.38-8.97l-15.17-9.14L79.99,849
						c0,0,0.1,0.62,0.23,1.71c0.43,3.37,1.28,11.18,0.95,18.22c-0.21,4.73-0.95,9.12-2.71,11.57c-0.57,0.79-1.24,1.38-2.04,1.72
						C72.48,883.87,69.58,885.67,67.46,887.41z"/>
					<path class="st11" d="M62.4,893.74c-0.56,1.31,0.38,2.77,1.81,2.77h26.46c3.56,0,8.45-2.83,7.52-11.93
						c-0.06-0.56-0.11-1.14-0.15-1.73c-2.71,1.73-4.26,2.75-6.56,0.53c-1.74-1.68-5.63-5.34-11.25-4.54
						c-1.62,0.23-1.99,2.08-2.64,2.65c-0.35,0.31-0.73,0.55-1.15,0.73C67.08,886.14,63.65,890.83,62.4,893.74z"/>
				</g>
				<path class="st8" d="M72.51,803.73v0.17c1.48,21.1,3.35,44.06,5.7,68.86h20.82l14.8-188.16l53.7,188.16h24.72
					c0,0-29.34-183.73-46-240.68c-16.66-56.93-78.28-3.67-78.28-3.67s-0.1,1.69-0.24,5.07C67.09,650.1,65.74,707.49,72.51,803.73z"
					/>
				
					<linearGradient id="SVGID_4_" gradientUnits="userSpaceOnUse" x1="381.6265" y1="798.9367" x2="335.8728" y2="668.7429" gradientTransform="matrix(-1 0 0 1 423.5198 0)">
					<stop  offset="0" style="stop-color:#FFFFFF"/>
					<stop  offset="1" style="stop-color:#000000"/>
				</linearGradient>
				<path class="st12" d="M72.51,803.73c-4.52-113.51,14.13-163.98,14.13-163.98l-18.91-6.26C67.09,650.1,65.74,707.49,72.51,803.73
					z"/>
				<path class="st10" d="M212.92,558.66l-0.19,1.61l-0.85,7.75c0,0,1.36-0.4,3.28-0.74c2.08-0.39,4.84-0.71,7.29-0.46
					c0.27,0.03,0.54,0.08,0.8,0.12c4.79,0.84,14.3,1.35,20.95-1.88c3.39-1.64,1.97-2.92,1.97-2.92c7.58-1.66,6.84-4.66,5.2-4.71
					c-1.51-0.05-5.26,0.29-5.71,0.33c3.23-0.52,6.26-1.99,6.2-3.18c-0.05-1.11-1.57-1.36-4.59-0.78c-3.28,0.64-12.91,1.23-16.85,0.8
					c-3.93-0.42-2.26-1.51-0.46-3.86c1.81-2.34,4.6-5.85,2.99-6.86c-1.6-1.03-7.45,5.84-9.66,7.36c-0.85,0.59-2.6,1.84-4.41,3.15
					C216,556.44,212.92,558.66,212.92,558.66z"/>
				<path class="st11" d="M145.08,533.99c-3.4,9.49-6.13,19.03-6.13,19.03s10.74,28.1,18.91,34.61c0.4,0.33,0.81,0.61,1.21,0.82
					c6.07,3.27,57.87-16.36,57.87-16.36l-3.78-16.43l-40.63,9.02c-0.92,0.2-1.82-0.36-2.02-1.28c-1.84-8.07-11.54-45.91-15.92-50.44
					C151.98,510.26,148.87,523.43,145.08,533.99z"/>
				
					<linearGradient id="SVGID_5_" gradientUnits="userSpaceOnUse" x1="845.963" y1="834.3015" x2="882.6274" y2="834.3015" gradientTransform="matrix(-0.8807 -0.4737 -0.4737 0.8807 1308.041 235.117)">
					<stop  offset="0" style="stop-color:#FFFFFF"/>
					<stop  offset="1" style="stop-color:#000000"/>
				</linearGradient>
				<path class="st13" d="M145.08,533.99c-3.4,9.49-6.13,19.03-6.13,19.03s10.74,28.1,18.91,34.61
					c-10.19-19.26-11.71-53.94-11.71-53.94S145.76,533.79,145.08,533.99z"/>
				<path class="st11" d="M48.84,547.02c1.23,5.15,2.94,10.79,5.31,16.85c12.96,33.15,13.66,68.28,13.66,68.28
					c5.84,1.72,11.85,2.87,17.79,3.62c30.98,3.86,60.66-3.69,60.66-3.69c0-45.35,15.04-116.86,5.79-122.88
					c-9.27-6.01-27.55-16.88-43.51-18.28l-17.1-0.51c-36.6,7.82-43.53,20.09-43.53,20.09S43.43,523.99,48.84,547.02z"/>
				<path class="st6" d="M85.27,491.83c0,0,12.3,75.26,15.34,145.04c0,0,15.83,0.77,30.74-2.01c0,0-0.8-100.44-8.01-140.47
					l-14.73,3.82L85.27,491.83z"/>
				
					<linearGradient id="SVGID_6_" gradientUnits="userSpaceOnUse" x1="-231.2547" y1="501.3145" x2="-193.1824" y2="501.3145" gradientTransform="matrix(1 0 0 1 316.5198 0)">
					<stop  offset="0" style="stop-color:#FFFFFF"/>
					<stop  offset="1" style="stop-color:#000000"/>
				</linearGradient>
				<polygon class="st14" points="85.27,491.83 102.05,510.8 108.61,502.23 114.76,510.32 123.34,494.39 108.61,498.21 				"/>
				<path class="st15" d="M73.08,443.22c2.13,16.38,22.94,28.65,22.94,28.65s2.5-11.81,7.57-22.71c3.91-8.44,9.36-16.32,16.38-17.81
					c16.09-3.45,12.1-17.96,6.23-20.53c-0.09-0.04-18.68-6.47-36.9,0.94c-10.2,4.16-9.66,16.06-9.66,16.06
					S70.95,426.84,73.08,443.22z"/>
				<path class="st10" d="M91.43,490.4c0,0,9.2,7.99,17.17,7.8c7.99-0.17,10.6-4.85,10.6-4.85l-0.46-10.48l-0.41-9.66l-24.8-14.53
					l-0.07-0.05c0,0,0,0.07,0,0.17c0,0.61,0,2.8-0.02,5.38c-0.02,3.43-0.07,7.56-0.19,9.54C92.98,477.91,91.43,490.4,91.43,490.4z"
					/>
				<path class="st16" d="M113.68,502.55c0,0-3.03,4.51-5.07,4.86c-2.05,0.35-6.38-4.86-6.38-4.86l6.38-4.34L113.68,502.55z"/>
				<path class="st16" d="M105.3,598.19l10.67,18.38l7.37-19.08c0,0-0.39-48.03-11.74-94.67l-2.63,0.36l-4.63,0.63
					C104.34,503.81,107.88,566.07,105.3,598.19z"/>
				<polygon class="st6" points="108.61,498.21 102.4,506.37 85.27,491.83 91.42,486.06 				"/>
				<polygon class="st6" points="119.19,488.84 108.61,498.21 113.9,506.37 123.34,494.39 				"/>
				
					<linearGradient id="SVGID_7_" gradientUnits="userSpaceOnUse" x1="336.876" y1="587.7315" x2="374.6799" y2="587.7315" gradientTransform="matrix(-1 0 0 1 423.5198 0)">
					<stop  offset="0" style="stop-color:#FFFFFF"/>
					<stop  offset="1" style="stop-color:#000000"/>
				</linearGradient>
				<path class="st17" d="M48.84,547.02c1.23,5.15,2.94,10.79,5.31,16.85c12.96,33.15,13.66,68.28,13.66,68.28
					c5.84,1.72,11.85,2.87,17.79,3.62c0.41-0.8,0.7-1.69,0.87-2.66c2.59-15.29-23.21-93.4-23.21-93.4S55.1,543.69,48.84,547.02z"/>
				
					<linearGradient id="SVGID_8_" gradientUnits="userSpaceOnUse" x1="322.2278" y1="490.0401" x2="315.08" y2="461.1286" gradientTransform="matrix(-1 0 0 1 423.5198 0)">
					<stop  offset="0" style="stop-color:#FFFFFF"/>
					<stop  offset="1" style="stop-color:#000000"/>
				</linearGradient>
				<path class="st18" d="M93.19,463.14c0.09,0.36,0.15,0.7,0.26,1.04c3.67,14.22,16.95,18.18,25.3,18.69l-0.41-9.66l-24.8-14.53
					c-0.03,0.03-0.05,0.09-0.07,0.12C92.91,459.85,92.78,461.28,93.19,463.14z"/>
				<path class="st10" d="M85.96,455.35c0.48,4.09,7.47,8.17,7.47,8.17c5.4,8.02,17.67,19.17,27.66,10.98
					c8.29-6.81,4.38-32.84,2.82-41.44c-0.31-1.76-0.53-2.79-0.53-2.79s-7.2,2.46-14.95,2.46c-7.57,0-13.26,2.08-12.9,10.49
					c0,0.02-0.02,0.05,0,0.06c-0.02,0.19,0,0.39,0.02,0.58c0.64,8.96,0.87,9.84-0.34,9.95c-1.19,0.11-2.56-1.9-3.01-2.46
					C90.18,448.86,85.46,451.24,85.96,455.35z"/>
				
					<linearGradient id="SVGID_9_" gradientUnits="userSpaceOnUse" x1="317.67" y1="447.6502" x2="311.5129" y2="430.1298" gradientTransform="matrix(-1 0 0 1 423.5198 0)">
					<stop  offset="0" style="stop-color:#FFFFFF"/>
					<stop  offset="1" style="stop-color:#000000"/>
				</linearGradient>
				<path class="st19" d="M95.53,443.22c0.06-1.39,1.86-7.77,8.78-8.58c5.82-0.68,10.47,0.47,19.6-1.59
					c-0.31-1.76-0.53-2.79-0.53-2.79s-7.2,2.46-14.95,2.46C100.86,432.73,95.17,434.81,95.53,443.22z"/>
				<polygon class="st11" points="100.61,636.86 100.61,655.3 64.4,653.74 65.5,608.14 				"/>
				<polygon class="st11" points="130.95,610.72 132.89,655.3 153.17,651.66 147.96,600.01 				"/>
				<polygon class="st20" points="81.46,624.82 124.65,624.82 156.94,568.89 113.75,568.89 				"/>
				<path class="st10" d="M106.04,593.3l-0.55,1.38l-2.61,6.64c0,0,1.29-0.03,3.07,0.13c1.93,0.16,4.45,0.53,6.55,1.34
					c0.23,0.09,0.46,0.2,0.68,0.29c4.03,1.88,12.29,4.62,18.94,3.35c3.38-0.64,2.44-2.11,2.44-2.11c5.25-0.91,6.64-3.6,5.22-4.03
					c-1.32-0.41-4.21,0.12-4.62,0.04c2.97,0.32,6-0.26,6.24-1.32c0.22-0.99-1.06-1.58-3.87-1.78c-3.05-0.22-11.61-2.24-15.07-3.32
					c-3.41-1.07-1.4-1.25,0.71-2.82c2.17-1.62,5.83-2.47,4.65-3.75c-1.17-1.29-8.54,1.09-10.85,1.89c-0.89,0.32-2.73,1-4.65,1.72
					C109.3,592.08,106.04,593.3,106.04,593.3z"/>
				<path class="st11" d="M48.27,508.68c-8.29,4.95-11.18,26.84-9.32,58.05c0.59,9.84,3.01,29.94,9.19,38.35
					c0.3,0.43,0.63,0.8,0.95,1.11c5.01,4.74,60.14-0.64,60.14-0.64l0.65-16.85l-41.58-1.93c-0.94-0.05-1.66-0.82-1.62-1.77
					c0.33-8.27,0.96-43.4,0.49-49.68C65.79,516.79,59.6,501.92,48.27,508.68z"/>
				<path class="st11" d="M141.42,502.78l9.41,5.64c0,0,4.25,2.07,6.36,9.39c2.12,7.32-9.19-2.62-9.19-2.62L141.42,502.78z"/>
				<path class="st11" d="M62.22,499.88c0,0-17.33,4.49-20.9,20.62L60.17,532L62.22,499.88z"/>
			</g>
		</g>
		<g>
			<path class="st21" d="M419.08,611.51c-0.21-0.22-0.65-0.64-1.26-1.11l-13.74,18.33c-2-1.5-3.58-2.68-111.45-145.97
				c-11.81-15.68-13.7-36.32-4.94-53.87c8.76-17.56,26.39-28.46,46.01-28.46h48.23v22.91H333.7c-11.04,0-20.58,5.9-25.51,15.78
				c-4.94,9.87-3.91,21.04,2.73,29.86c47.26,62.76,74.03,98.12,89.15,117.95C413.97,605.15,418.03,610.27,419.08,611.51z"/>
			<path class="st22" d="M402.26,609.4c-14.03-18.12-49.35-64.77-102.32-135.13c-9.05-12.01-10.43-27.21-3.72-40.67
				c6.71-13.46,19.7-21.49,34.74-21.49h50.98v11.21H333.7c-11.04,0-20.58,5.9-25.51,15.78c-4.94,9.87-3.91,21.04,2.73,29.86
				c47.26,62.76,74.03,98.12,89.15,117.95L402.26,609.4z"/>
			<rect x="480.71" y="661.55" class="st21" width="63.33" height="199.59"/>
			<path class="st23" d="M544.04,661.55v39.3c-10.16,2.44-20.75,3.72-31.66,3.72h-0.01c-10.9,0-21.5-1.28-31.66-3.72v-39.3H544.04z"
				/>
			<path class="st21" d="M733.56,482.75C625.68,626.04,624.11,627.22,622.1,628.72l-13.74-18.33c-0.52,0.39-0.9,0.76-1.15,0.98
				c1.16-1.39,5.11-6.4,17.41-22.52c14.84-19.45,41.8-55.03,90.63-119.89c6.64-8.82,7.66-19.99,2.74-29.86
				c-4.92-9.88-14.47-15.78-25.51-15.78h-48.24v-22.91h48.24c19.62,0,37.25,10.9,46.01,28.46
				C747.24,446.43,745.35,467.07,733.56,482.75z"/>
			<path class="st22" d="M724.96,474.28c-52.98,70.36-88.31,117.01-102.32,135.13l1.99-20.54c14.84-19.45,41.8-55.03,90.63-119.89
				c6.64-8.82,7.66-19.99,2.74-29.86c-4.92-9.88-14.47-15.78-25.51-15.78h-48.24v-11.21h49.7c15.04,0,28.03,8.03,34.74,21.49
				C735.38,447.06,733.99,462.26,724.96,474.28z"/>
			<path class="st21" d="M648.2,358.97v199.88c0,75.02-60.81,135.83-135.81,135.83h-0.01c-75.01,0-135.81-60.81-135.81-135.83
				V358.97H648.2z"/>
			<rect x="376.56" y="368.86" class="st23" width="271.64" height="53.85"/>
			<rect x="480.71" y="786.16" class="st23" width="63.33" height="20.78"/>
			<path class="st21" d="M663.92,374.86v3.39c0,2.36-0.36,4.64-1.02,6.79c-2.9,9.37-11.63,16.18-21.97,16.18H383.82
				c-10.34,0-19.07-6.81-21.97-16.18c-0.66-2.15-1.02-4.43-1.02-6.79v-3.39c0-12.69,10.29-22.98,22.99-22.98h257.12
				C653.64,351.89,663.92,362.17,663.92,374.86z"/>
			<path class="st22" d="M663.92,374.86v3.39c0,2.36-0.36,4.64-1.02,6.79c-2.9,9.37-11.63,16.18-21.97,16.18H383.82
				c-10.34,0-19.07-6.81-21.97-16.18c-0.66-2.15-1.02-4.43-1.02-6.79v-3.39c0-12.69,10.29-22.98,22.99-22.98h257.12
				C653.64,351.89,663.92,362.17,663.92,374.86z"/>
			<path class="st21" d="M662.9,385.04c-2.9,9.37-11.63,16.18-21.97,16.18H383.82c-10.34,0-19.07-6.81-21.97-16.18
				c2.9-9.37,11.63-16.18,21.97-16.18h257.12C651.28,368.86,660,375.67,662.9,385.04z"/>
			<path class="st21" d="M579.72,814.19H444.23c0-4,1.07-7.74,2.94-10.96c0.96-1.66,2.13-3.18,3.48-4.54
				c3.96-3.97,9.44-6.43,15.5-6.43h91.63c8.12,0,15.2,4.41,18.99,10.96C578.65,806.45,579.72,810.19,579.72,814.19z"/>
			<path class="st23" d="M579.72,814.19H444.23c0-4,1.07-7.74,2.94-10.96h129.59C578.65,806.45,579.72,810.19,579.72,814.19z"/>
			<path class="st21" d="M590.52,861.71H434.23c-7.65,0-13.84-6.2-13.84-13.84v-25.16c0-7.65,6.2-13.84,13.84-13.84h156.29
				c7.65,0,13.84,6.2,13.84,13.84v25.16C604.36,855.52,598.17,861.71,590.52,861.71z"/>
		</g>
		<g>
			<path class="st10" d="M537.42,518.52l-13.01,2.3c0,0-25.07-93.83-29.65-101.53c-0.77-1.3-1.98-3.03-3.46-5
				c-2.96-3.9-6.99-8.8-10.79-13.28c0,0-0.02,0-0.02-0.02c-5.71-6.73-10.82-12.48-10.82-12.48l3.94-12.76
				c-0.02-0.05,0-0.11,0.06-0.19l17.03-55.26c0,0,5.82,14.67,12.65,32.27c6.41,16.48,13.72,35.51,18.03,47.41
				c2.12,5.83,3.5,9.96,3.68,11.21C526.1,417.76,537.42,518.52,537.42,518.52z"/>
			<path class="st10" d="M614.32,473.9l-13.12,3.72c0,0-43.37-81.4-51.8-86.53c-2.79-1.69-6.85-4.73-11.02-8.06
				c-8.47-6.71-17.42-14.52-17.42-14.52l28.44-26.98c0,0,6.96,7.65,14.22,16.62c6.9,8.51,14.08,18.22,15.82,23.71
				C585.52,400.97,614.32,473.9,614.32,473.9z"/>
			<linearGradient id="SVGID_10_" gradientUnits="userSpaceOnUse" x1="457.1181" y1="409.0519" x2="559.0249" y2="349.9983">
				<stop  offset="0" style="stop-color:#FFFFFF"/>
				<stop  offset="1" style="stop-color:#000000"/>
			</linearGradient>
			<path class="st24" d="M521.39,399.98c-11.13,10.07-22.87,13.31-30.09,14.31c-2.96-3.9-6.99-8.8-10.79-13.28c0,0-0.02,0-0.02-0.02
				c-2.95-10.71-6.58-24-6.88-25.24c-0.02-0.05,0-0.11,0.06-0.19c0.96-1.79,15.02-12.31,29.68-23
				C509.77,369.05,517.07,388.08,521.39,399.98z"/>
			<linearGradient id="SVGID_11_" gradientUnits="userSpaceOnUse" x1="458.6419" y1="411.6819" x2="560.5486" y2="352.6283">
				<stop  offset="0" style="stop-color:#FFFFFF"/>
				<stop  offset="1" style="stop-color:#000000"/>
			</linearGradient>
			<path class="st25" d="M563.62,358.15c-6.16,9.28-19.54,15.8-25.24,24.88c-8.47-6.71-17.42-14.52-17.42-14.52l28.44-26.98
				C549.4,341.53,556.36,349.18,563.62,358.15z"/>
			<path class="st11" d="M495.27,271.9c0,0,35.47,42.07,60.02,65.55c21.79,20.82-11.33,26.97-23.55,43.12
				c-12.22,16.16-60.67,33.85-79.57,30c-18.9-3.85-3.7-36.97-13.51-71.55c-9.82-34.58,15.33-66.7,15.33-66.7L495.27,271.9z"/>
			<path class="st26" d="M560.03,541.98c-0.65,0.84-17.95,1.91-19.59,1.15c-1.64-0.76-7.63-9.08-7.63-9.08l-0.23,9.82l-4.47,0.07
				l-4.02-24.23l13.34-1.19c0,0,9.31,15.09,10.89,16.67C549.91,536.78,560.89,540.86,560.03,541.98z"/>
			<path class="st26" d="M640.49,492.24c-0.48,0.95-17.27,5.25-19.03,4.81c-1.76-0.44-9.2-7.49-9.2-7.49l1.61,9.69l-4.38,0.9
				l-8.49-23.05l12.88-3.67c0,0,11.98,13.07,13.83,14.34C629.57,489.03,641.13,490.98,640.49,492.24z"/>
			<path class="st8" d="M491.71,164.75c0,0-1.7,13.25,7.47,19.98c10.58,7.76-2.36,16.06-16.41,17.41
				c-14.05,1.35-27.41-3.26-39.55-4.69c-12.13-1.43-17.89-4.96-11.86-14.4c6.03-9.45,11.19-20.64,11.74-27.82
				c0.55-7.18,0.18-18.66,13.69-22.21c13.51-3.55,11.15-9.37,19.96-11.78c11.95-3.26,19.39,11.41,9.21,20.33
				C475.97,150.31,491.71,164.75,491.71,164.75z"/>
			<path class="st10" d="M408.17,100.3c0,0-1.7-5.97-5.68-9.23c-3.98-3.27-7.67-5.11-7.95-4.12c-0.29,0.99,4.54,5.11,4.26,5.82
				c-0.28,0.71-6.07-1.75-7.85-2.42c-4.26-1.6-6.36-6.11-7.35-4.69c-0.99,1.42,3.02,8.03,4.16,9.16s8.98,7.32,10.76,7.04
				C400.29,101.58,408.17,100.3,408.17,100.3z"/>
			<path class="st10" d="M537.04,98.91c0,0,1.7-5.97,5.68-9.23c3.98-3.27,7.67-5.11,7.95-4.12c0.29,0.99-4.54,5.11-4.26,5.82
				c0.28,0.71,6.62-1.64,8.4-2.31c4.26-1.6,5.81-6.21,6.8-4.79c0.99,1.42-3.02,8.03-4.16,9.16c-1.14,1.14-8.98,7.32-10.76,7.04
				C544.92,100.19,537.04,98.91,537.04,98.91z"/>
			<linearGradient id="SVGID_12_" gradientUnits="userSpaceOnUse" x1="472.6138" y1="289.4235" x2="472.6138" y2="213.1855">
				<stop  offset="0" style="stop-color:#C73F86"/>
				<stop  offset="1" style="stop-color:#E34899"/>
			</linearGradient>
			<path class="st27" d="M547.11,162.52c-0.86,6.24-40.07,53.7-42.05,58.24c-1.99,4.55,1.85,8.86-2.26,21.21
				c-2.65,7.98-10.38,17.42-7.54,29.93c1.04,4.5-4.04,5.82-10.97,5.64c-12.26-0.28-30.31-5.22-30.31-5.22s-6.04-32.25-9.16-44.74
				c-0.11-0.47-0.27-0.97-0.47-1.54c-0.02-0.03-0.02-0.05-0.02-0.05c-5.03-14.49-34.55-58.54-37.02-62.92
				c-2.57-4.55-9.67-61.08-9.67-61.08l10.52-1.71c0,0,14.49,54.84,15.63,57.12c1.13,2.26,26.42,36.36,29.82,35.51
				c0,0,14.66,5.05,28.47,3.43c5.49-0.66,13.29,0.25,20.11-4.58c6.82-4.83,27.28-32.11,28.42-34.66c1.13-2.56,6.52-57.96,6.52-57.96
				l10.24,1.44C547.39,100.6,547.96,156.27,547.11,162.52z"/>
			<path class="st10" d="M463.38,199.06c5.29,8.43,21.2,8.18,20.9,0.33c-0.15-3.87-1.03-9.36-1.88-13.93
				c-0.88-4.69-1.72-8.43-1.72-8.43s-18.48-12.75-17.7-5.64S463.38,199.06,463.38,199.06z"/>
			
				<linearGradient id="SVGID_13_" gradientUnits="userSpaceOnUse" x1="-952.6586" y1="193.5914" x2="-933.9216" y2="193.5914" gradientTransform="matrix(-0.9989 0.0476 0.0476 0.9989 -478.832 28.9237)">
				<stop  offset="0" style="stop-color:#FFFFFF"/>
				<stop  offset="1" style="stop-color:#000000"/>
			</linearGradient>
			<path class="st28" d="M462.98,171.41c3.6,9.8,14.9,13.12,19.42,14.06c-0.88-4.69-1.72-8.43-1.72-8.43
				S462.19,164.29,462.98,171.41z"/>
			<path class="st10" d="M485.32,142.11c0,0,16.09,25,6.27,34.56c-9.82,9.55-22.21-3.39-24.36-4.86c-2.16-1.47-8.58,0.17-10.21-3.77
				c-1.63-3.94,1.74-5.16,3.69-4.8c1.95,0.36,5.39,0.49,1.98-5.3c-3.4-5.8,7.91-6,12.84-8.8
				C480.46,146.33,485.32,142.11,485.32,142.11z"/>
		</g>
		<g>
			<polygon class="st11" points="361.49,877.31 366.17,877.31 501.98,571.62 497.24,571.76 			"/>
			<polygon class="st11" points="268.15,877.31 272.84,877.31 408.77,571.35 404.11,571.29 			"/>
			<g>
				<polygon class="st11" points="379.18,848.03 283.51,848.03 285.61,843.3 381.28,843.3 				"/>
			</g>
			<g>
				<polygon class="st11" points="400.43,800.21 304.75,800.21 306.85,795.48 402.53,795.48 				"/>
			</g>
			<g>
				<polygon class="st11" points="421.67,752.39 326,752.39 328.1,747.66 423.77,747.66 				"/>
			</g>
			<g>
				<polygon class="st11" points="442.92,704.56 347.24,704.56 349.34,699.84 445.02,699.84 				"/>
			</g>
			<g>
				<polygon class="st11" points="464.17,656.74 368.49,656.74 370.59,652.02 466.26,652.02 				"/>
			</g>
			<g>
				<polygon class="st11" points="485.41,608.92 389.73,608.92 391.83,604.2 487.51,604.2 				"/>
			</g>
		</g>
		<g>
			<path class="st29" d="M467.5,486.31c-19.39,4.61-23.08,8.32-27.59,27.73c-4.61-19.38-8.32-23.07-27.73-27.59
				c19.39-4.61,23.08-8.32,27.59-27.73C444.38,478.11,448.09,481.8,467.5,486.31z"/>
			<path class="st6" d="M452.96,486.35c-9.2,2.19-10.95,3.95-13.09,13.15c-2.19-9.19-3.95-10.94-13.15-13.09
				c9.2-2.19,10.95-3.95,13.09-13.15C441.99,482.46,443.75,484.21,452.96,486.35z"/>
		</g>
		<g>
			<path class="st29" d="M597.35,620.84c-13.91,3.31-16.56,5.97-19.8,19.9c-3.31-13.91-5.97-16.56-19.9-19.8
				c13.91-3.31,16.56-5.97,19.8-19.9C580.76,614.95,583.42,617.6,597.35,620.84z"/>
			<path class="st6" d="M586.91,620.87c-6.6,1.57-7.85,2.83-9.39,9.44c-1.57-6.6-2.83-7.85-9.44-9.39c6.6-1.57,7.85-2.83,9.39-9.44
				C579.04,618.07,580.31,619.33,586.91,620.87z"/>
		</g>
		<g>
			<ellipse class="st4" cx="836.72" cy="930.41" rx="84.61" ry="11.17"/>
			<g>
				<path class="st10" d="M811.63,929.95c-2.13,0.81-29.49,0.34-40.89,0.11c-2.33-0.05-3.4-2.87-1.72-4.49
					c2.81-2.72,7.84-5.85,16.41-6.66c3.72-0.35,6.01-1.57,7.35-3.57c1.88-2.79,1.94-7.1,1.56-12.7c-0.08-1.2-0.18-2.46-0.29-3.78
					c-0.95-11.68,16.61-0.21,16.61-0.21s-0.03,1.62,0.04,4c0.11,3.43,0.45,8.45,1.43,12.44c0.14,0.58,0.3,1.15,0.47,1.68
					C814.76,923.43,814.32,928.91,811.63,929.95z"/>
				<path class="st10" d="M903.1,921.24c3.75,3.08,1.54,9.16-3.31,9.16h-20.05c-3.58,0-8.51-2.85-7.57-12.01
					c0.06-0.56,0.11-1.15,0.15-1.74c0.34-4.46,0.34-9.67,0.24-14.02c-0.13-5.13-0.38-9.03-0.38-9.03l15.28-9.2l3.04-1.83
					c0,0-0.1,0.63-0.24,1.72c-0.44,3.39-1.29,11.26-0.96,18.34c0.21,4.77,0.96,9.18,2.73,11.65c0.58,0.8,1.25,1.39,2.05,1.73
					C898.05,917.68,900.97,919.49,903.1,921.24z"/>
				<path class="st8" d="M889.65,906.49h-15.15c-2.26,0-4.22-1.58-4.69-3.79l-41.91-194.4l-12.22,194.24
					c-0.14,2.22-1.98,3.95-4.21,3.95h-14.77c-2.06,0-3.83-1.47-4.16-3.5c-13.7-82.41-12.64-190.6,0.42-246.23
					c1.08-4.6,0.72-7.28,0.72-7.28h70.06c0.78,2.15,1.56,4.59,2.32,7.28c8.14,28.81,15.07,87.08,20.08,140.08
					c4.45,47.15,7.38,90.13,8.33,104.54C894.62,904.15,892.42,906.49,889.65,906.49z"/>
				<path class="st10" d="M789.89,404.28c0,0,4.58-9.53,5.53-12.54c0.95-3.02,0.18-6.83-2.77-6.83c-2.95,0-3.9-2.38-7.24-1.59
					c-3.33,0.79-5.87,0.95-5.87,4.29c0,3.33-0.87,14.39-0.87,14.39L789.89,404.28z"/>
				<path class="st2" d="M883.09,565.51c-8.15,28-15.07,68.55-17.04,80.52c-0.39,2.44-2,4.46-4.26,5.44
					c-5,2.2-15.41,5.37-33.05,4.85c-4.04-0.13-8.48-0.44-13.31-1.02c-4.93-0.59-13.59-2.93-18.93-4.46c-2.8-0.8-4.83-3.18-5.17-6.07
					c-4.22-36.31-4.28-61.59-3.78-79.26c0.09-2.81-0.09-0.39,0.09-2.81c-6.88-42.15-23.03-84.7-17.61-108.32
					c2.65-11.55,8.98-54.69,8.98-54.69l14.43,2.54c0,0-3.64,56.55-3.42,59.06c5.65,63.95,29.26,65.74,29.26,65.74
					c4.11,1.94,8.35,0.11,12.46,0.94h0.02c5.93,1.22,12.37,1.69,20.78,2.5c0.27,0.03,0.54,0.05,0.82,0.06
					c8.66,0.45,16.48,5.32,20.18,13.17C878.28,553.71,883.33,564.69,883.09,565.51z"/>
				<path class="st11" d="M811.63,929.95c-2.31,0.88-34.2,0.25-43.37,0.06c-1.18-0.03-1.64-1.25-1.12-2.31
					c1.83-3.68,7.02-9.47,17.99-10.51c3.72-0.35,7.26-1.83,8.6-3.82c3.84,0.23,6.91,1.93,6.83,5.44c-0.04,2.07,6.48,2.65,11.56-3.73
					c0.14,0.58,0.3,1.15,0.47,1.68C814.76,923.43,814.32,928.91,811.63,929.95z"/>
				<path class="st11" d="M908.2,927.62c0.57,1.32-0.39,2.79-1.82,2.79h-26.64c-3.58,0-8.51-2.85-7.57-12.01
					c0.06-0.56,0.11-1.15,0.15-1.74c2.72,1.75,4.29,2.77,6.6,0.53c1.75-1.7,5.67-5.37,11.33-4.57c1.63,0.23,2.01,2.09,2.66,2.66
					c0.35,0.31,0.74,0.56,1.16,0.73C903.49,919.97,906.94,924.69,908.2,927.62z"/>
				
					<linearGradient id="SVGID_14_" gradientUnits="userSpaceOnUse" x1="458.3811" y1="453.3508" x2="657.757" y2="776.7963" gradientTransform="matrix(1 0 0 1 145.4622 0)">
					<stop  offset="0" style="stop-color:#FFFFFF"/>
					<stop  offset="0.6599" style="stop-color:#6E6B6C"/>
					<stop  offset="1" style="stop-color:#231F20"/>
				</linearGradient>
				<polygon class="st30" points="827.89,708.3 815.42,906.49 819.42,693.18 				"/>
				
					<linearGradient id="SVGID_15_" gradientUnits="userSpaceOnUse" x1="487.9491" y1="446.0233" x2="683.1257" y2="762.6565" gradientTransform="matrix(1 0 0 1 145.4622 0)">
					<stop  offset="0" style="stop-color:#FFFFFF"/>
					<stop  offset="0.6599" style="stop-color:#6E6B6C"/>
					<stop  offset="1" style="stop-color:#231F20"/>
				</linearGradient>
				<path class="st31" d="M880.79,906.49c6.1-20.21,6.14-72.97,5.32-109.65c4.42,46.89,7.35,89.67,8.31,104.3
					c0.19,2.9-2.11,5.35-5.02,5.35H880.79z"/>
				<path class="st32" d="M785.68,551.08c0.01-1.02,0.06-1.99,0.16-2.89L785.68,551.08z"/>
				<path class="st11" d="M822.57,468.24c0,0-6.47-6.04-4.51-15.22c1.96-9.18,20.45-11.01,29.54-2.4
					c16.13,15.29,13.66,10.49,20,18.59c12.21,15.61-7.31,31.47-16.15,31.7C842.61,501.14,822.57,468.24,822.57,468.24z"/>
				<path class="st10" d="M847.53,502.31l0.05,1.2l0.9,25.59c0.08,2.42-1.32,4.66-3.56,5.58c-2.41,0.98-5.84,1.95-9.87,1.82
					c-3.5-0.12-6.26-1.22-8.2-2.34c-2.05-1.19-3.17-3.49-2.85-5.84l1.78-12.99l0.53-3.87c0.21-1.52,1.27-2.78,2.73-3.25
					L847.53,502.31z"/>
				
					<linearGradient id="SVGID_16_" gradientUnits="userSpaceOnUse" x1="744.0918" y1="762.6227" x2="779.584" y2="820.7992" gradientTransform="matrix(0.9972 -0.0748 0.0748 0.9972 23.5214 -212.4289)">
					<stop  offset="0" style="stop-color:#FFFFFF"/>
					<stop  offset="1" style="stop-color:#231F20"/>
				</linearGradient>
				<path class="st33" d="M847.53,502.31l0.05,1.2c-5.5,9.82-18.17,16.88-22.54,17.18l1.6-11.72L847.53,502.31z"/>
				<path class="st10" d="M858.4,492.89c-2.16,5.08-6.18,5.98-6.18,5.98s-18.42,22.87-29.24,12.52c-8.84-8.45-3.51-31.92-1.26-40.21
					c0.5-1.85,0.85-2.95,0.85-2.95c4.19,6.25,30.91,8.76,27.96,14.7c-0.01,0.02-0.02,0.05-0.03,0.07c-2.92,5.9-1.41,7.77-0.55,8.69
					c0.86,0.93,2.28-3.26,3.88-4.23C857.38,485.28,860.2,488.63,858.4,492.89z"/>
				
					<linearGradient id="SVGID_17_" gradientUnits="userSpaceOnUse" x1="819.1518" y1="1745.2296" x2="842.9482" y2="1745.2296" gradientTransform="matrix(0.9418 -0.3362 0.3362 0.9418 -533.4248 -888.4486)">
					<stop  offset="0" style="stop-color:#FFFFFF"/>
					<stop  offset="1" style="stop-color:#231F20"/>
				</linearGradient>
				<path class="st34" d="M850.52,482.94c-0.01,0.02-0.02,0.05-0.03,0.07c-0.86-1.54-3.1-3.31-8.52-4.39
					c-8.65-1.73-16.89-5.69-20.25-7.43c0.5-1.85,0.85-2.95,0.85-2.95C826.76,474.48,853.48,477,850.52,482.94z"/>
				
					<linearGradient id="SVGID_18_" gradientUnits="userSpaceOnUse" x1="689.6989" y1="570.0929" x2="785.9919" y2="740.4575" gradientTransform="matrix(1 0 0 1 145.4622 0)">
					<stop  offset="0" style="stop-color:#FFFFFF"/>
					<stop  offset="0.6599" style="stop-color:#6E6B6C"/>
					<stop  offset="1" style="stop-color:#231F20"/>
				</linearGradient>
				<path class="st35" d="M884.87,560.45c-0.74,1.85-1.33,3.54-1.78,5.06c-8.15,28-15.07,68.55-17.04,80.52
					c-0.39,2.44-2,4.46-4.26,5.44c-5,2.2-15.41,5.37-33.05,4.85C849.39,644.12,882.39,566.34,884.87,560.45z"/>
				<polygon class="st6" points="848.48,526.25 831.38,535.99 836.31,543.51 851.64,530.37 				"/>
				<polygon class="st6" points="831.38,535.99 824.35,525.74 820.11,527.35 825.04,542.4 				"/>
				<path class="st11" d="M849.6,485.02c0,0-4.73,10.44-11.09,11.18c-6.36,0.74-17.96-7.84-20.15-7.09
					c-2.19,0.74-5.9,21.17,4.05,24.13c9.95,2.96,20.11-0.42,23.92-11.64c3.81-11.22,8.04-15.13,8.04-15.13L849.6,485.02z"/>
				<path class="st10" d="M867.34,653.2c0,0-4.61,0.36-10.53,0.95c-5.92,0.59-12.8,6.35-13.12,7.78c-0.32,1.43,1.27,4.76,8.41,2.54
					c7.14-2.22,17.03-1.32,21.37-2.49C877.82,660.83,867.34,653.2,867.34,653.2z"/>
				<path class="st2" d="M863.04,533.05c0,0,40.34,18.46,57.35,71.73c2.05,6.42,0.41,13.46-4.3,18.29l-40.33,41.41l-11.01-12
					l31.07-37.82c2.47-3,2.38-7.35-0.21-10.25l-42.03-47.06L863.04,533.05z"/>
			</g>
		</g>
		<g>
			
				<ellipse transform="matrix(0.1222 -0.9925 0.9925 0.1222 85.3038 501.2084)" class="st36" cx="326" cy="202.38" rx="6.18" ry="6.18"/>
		</g>
		<g>
			<path class="st36" d="M741.39,224.34c0,3.41-2.77,6.18-6.18,6.18c-3.41,0-6.18-2.77-6.18-6.18c0-3.41,2.77-6.18,6.18-6.18
				C738.63,218.16,741.39,220.93,741.39,224.34z"/>
		</g>
		<g>
			
				<ellipse transform="matrix(0.1602 -0.9871 0.9871 0.1602 -78.3169 522.9241)" class="st37" cx="268.15" cy="307.49" rx="6.18" ry="6.18"/>
		</g>
		<g>
			<path class="st21" d="M395.91,271.9c0,3.41-2.77,6.18-6.18,6.18c-3.41,0-6.18-2.77-6.18-6.18c0-3.41,2.77-6.18,6.18-6.18
				C393.15,265.73,395.91,268.49,395.91,271.9z"/>
		</g>
		<g>
			<path class="st21" d="M602.23,320.3c0,3.41-2.77,6.18-6.18,6.18c-3.41,0-6.18-2.77-6.18-6.18c0-3.41,2.77-6.18,6.18-6.18
				C599.47,314.12,602.23,316.89,602.23,320.3z"/>
		</g>
		<g>
			<path class="st20" d="M633.91,230.52c0,3.41-2.77,6.18-6.18,6.18c-3.41,0-6.18-2.77-6.18-6.18c0-3.41,2.77-6.18,6.18-6.18
				C631.15,224.34,633.91,227.11,633.91,230.52z"/>
		</g>
		<g>
			
				<ellipse transform="matrix(0.2298 -0.9732 0.9732 0.2298 259.4109 998.4342)" class="st38" cx="760.49" cy="335.33" rx="6.18" ry="6.18"/>
		</g>
		<g>
			
				<ellipse transform="matrix(0.1222 -0.9925 0.9925 0.1222 -198.8402 403.4297)" class="st38" cx="128.65" cy="314.12" rx="6.18" ry="6.18"/>
		</g>
		<g>
			<path class="st37" d="M212.85,177.36c0,2.49-2.02,4.51-4.51,4.51c-2.49,0-4.51-2.02-4.51-4.51c0-2.49,2.02-4.51,4.51-4.51
				C210.83,172.85,212.85,174.87,212.85,177.36z"/>
		</g>
		<g>
			<path class="st20" d="M457.47,54.09c0,2.49-2.02,4.51-4.51,4.51c-2.49,0-4.51-2.02-4.51-4.51c0-2.49,2.02-4.51,4.51-4.51
				C455.45,49.58,457.47,51.6,457.47,54.09z"/>
		</g>
		<g>
			<path class="st38" d="M657.76,120.77c0,2.49-2.02,4.51-4.51,4.51c-2.49,0-4.51-2.02-4.51-4.51c0-2.49,2.02-4.51,4.51-4.51
				C655.74,116.26,657.76,118.28,657.76,120.77z"/>
		</g>
		<path class="st2" d="M280.39,591.55l-4.2-6.08c-2.28,0.64-4.47,1.46-6.57,2.46l0.85,7.36c-2.15,1.21-4.15,2.64-5.96,4.27
			l-6.69-3.17c-1.63,1.68-3.13,3.49-4.45,5.42l4.41,5.93c-1.24,2.1-2.26,4.34-3.03,6.68l-7.38,0.6c-0.57,2.25-0.94,4.56-1.13,6.92
			l6.78,2.94c-0.01,1.21,0.05,2.43,0.17,3.67c0.12,1.23,0.3,2.44,0.55,3.62l-6.08,4.2c0.65,2.29,1.46,4.48,2.46,6.57l7.36-0.85
			c1.21,2.15,2.65,4.15,4.27,5.97l-3.17,6.68c1.68,1.64,3.5,3.12,5.42,4.45l5.95-4.4c2.09,1.24,4.33,2.25,6.67,3.02l0.6,7.38
			c2.25,0.57,4.56,0.94,6.92,1.13l2.94-6.78c1.21,0.01,2.44-0.04,3.67-0.16c1.23-0.12,2.44-0.31,3.62-0.56l4.21,6.08
			c2.28-0.64,4.47-1.46,6.56-2.46l-0.84-7.36c2.15-1.21,4.14-2.64,5.96-4.26l6.68,3.16c1.64-1.68,3.13-3.49,4.45-5.42l-4.4-5.93
			c1.24-2.1,2.25-4.34,3.03-6.68l7.37-0.6c0.58-2.24,0.96-4.55,1.13-6.92l-6.78-2.94c0.01-1.21-0.04-2.43-0.16-3.66
			c-0.12-1.24-0.31-2.45-0.56-3.63l6.08-4.2c-0.63-2.28-1.45-4.47-2.46-6.57l-7.35,0.85c-1.22-2.15-2.65-4.15-4.27-5.97l3.16-6.68
			c-1.68-1.64-3.49-3.13-5.42-4.45l-5.93,4.41c-2.1-1.25-4.33-2.26-6.67-3.03l-0.61-7.38c-2.24-0.57-4.55-0.95-6.91-1.14l-2.95,6.78
			c-1.21-0.01-2.43,0.04-3.66,0.16C282.79,591.12,281.58,591.31,280.39,591.55z M285.89,610c8.39-0.82,15.87,5.32,16.69,13.71
			c0.82,8.39-5.32,15.86-13.71,16.68c-8.39,0.82-15.87-5.31-16.69-13.7C271.35,618.3,277.49,610.83,285.89,610z"/>
		<path class="st3" d="M285.16,597.35c-15.31,1.5-26.51,15.13-25.01,30.44c1.5,15.3,15.13,26.5,30.44,25
			c15.31-1.5,26.51-15.13,25.01-30.43C314.1,607.05,300.47,595.85,285.16,597.35z M286.39,609.88c8.39-0.82,15.87,5.32,16.69,13.71
			c0.82,8.39-5.32,15.86-13.71,16.68c-8.39,0.82-15.87-5.31-16.69-13.7S277.99,610.7,286.39,609.88z"/>
		<path class="st2" d="M701.03,595.78l-3.32-4.8c-1.8,0.51-3.53,1.15-5.19,1.94l0.67,5.81c-1.7,0.96-3.28,2.09-4.71,3.38l-5.28-2.5
			c-1.29,1.32-2.47,2.76-3.52,4.28l3.48,4.69c-0.98,1.66-1.79,3.43-2.4,5.28l-5.83,0.47c-0.45,1.78-0.75,3.6-0.9,5.47l5.36,2.32
			c-0.01,0.96,0.04,1.92,0.13,2.9c0.1,0.97,0.24,1.92,0.43,2.86l-4.8,3.32c0.51,1.81,1.15,3.54,1.94,5.19l5.81-0.67
			c0.96,1.7,2.09,3.28,3.38,4.71l-2.51,5.27c1.33,1.29,2.76,2.47,4.28,3.52l4.7-3.47c1.65,0.98,3.42,1.78,5.27,2.39l0.47,5.83
			c1.78,0.45,3.6,0.75,5.47,0.9l2.32-5.36c0.96,0.01,1.93-0.03,2.9-0.13c0.97-0.1,1.92-0.25,2.86-0.44l3.33,4.8
			c1.8-0.51,3.53-1.15,5.18-1.94l-0.66-5.81c1.7-0.96,3.27-2.09,4.71-3.37l5.27,2.5c1.29-1.33,2.47-2.76,3.52-4.28l-3.47-4.69
			c0.98-1.66,1.78-3.43,2.4-5.28l5.82-0.47c0.46-1.77,0.75-3.6,0.9-5.47l-5.36-2.32c0.01-0.96-0.03-1.92-0.13-2.89
			c-0.1-0.98-0.25-1.93-0.44-2.87l4.8-3.32c-0.5-1.8-1.15-3.53-1.94-5.19l-5.8,0.67c-0.97-1.7-2.09-3.27-3.38-4.71l2.5-5.27
			c-1.33-1.29-2.76-2.47-4.28-3.52l-4.69,3.48c-1.66-0.99-3.42-1.79-5.27-2.4l-0.48-5.83c-1.77-0.45-3.6-0.75-5.46-0.9l-2.33,5.36
			c-0.96-0.01-1.92,0.03-2.89,0.13C702.93,595.44,701.97,595.59,701.03,595.78z M705.37,610.36c6.63-0.65,12.53,4.2,13.18,10.83
			c0.65,6.63-4.2,12.53-10.83,13.18c-6.63,0.65-12.53-4.19-13.18-10.82C693.89,616.91,698.74,611.01,705.37,610.36z"/>
		<path class="st3" d="M704.8,600.36c-12.1,1.19-20.94,11.95-19.76,24.05c1.19,12.09,11.95,20.93,24.05,19.75
			c12.1-1.19,20.94-11.95,19.76-24.04C727.67,608.02,716.9,599.18,704.8,600.36z M705.77,610.26c6.63-0.65,12.53,4.2,13.18,10.83
			c0.65,6.63-4.2,12.53-10.83,13.18c-6.63,0.65-12.53-4.19-13.18-10.82C694.29,616.82,699.14,610.91,705.77,610.26z"/>
		<linearGradient id="SVGID_19_" gradientUnits="userSpaceOnUse" x1="444.356" y1="251.8019" x2="484.2877" y2="251.8019">
			<stop  offset="0" style="stop-color:#FFFFFF"/>
			<stop  offset="1" style="stop-color:#000000"/>
		</linearGradient>
		<path class="st39" d="M484.29,277.55c-12.26-0.28-30.31-5.22-30.31-5.22s-6.04-32.25-9.16-44.74c-0.11-0.47-0.27-0.97-0.47-1.54
			c0.44,1,7.46,17.1,18.59,22.92C474.46,254.99,471.64,274.26,484.29,277.55z"/>
	</g>
	<g>
		<path class="st2" d="M921.22,405.2h61.19c0,0,11.64-0.1,13.92-7.54c1.43-4.66-2.08-10.03-9.57-11.42
			c-8.45-1.57-9.59-1.66-11.32-9.03c-1.74-7.38-5.05-9.85-9.6-10.48c-5.03-0.7-9.57,2.45-13.91,7.87
			c-2.09,2.61-9.06-2.42-12.16-5.28c-3.91-3.6-13.03-3.72-16.63,4c-4.06,8.71,2.2,12.56-5.28,16.09c-5.28,2.49-7.47,5.55-7.36,9.02
			C910.61,401.9,916.23,405.2,921.22,405.2z"/>
		<path class="st40" d="M930.67,405.2c0,0-7.1-0.94-3.53-7.25c3.68-6.49,12.8,1.92,15.51-7.36c2.81-9.57,13.52-12.32,17.27-3.84
			c3.09,6.98,6.96,8.57,16.79,6.89s9.82,10.61,4.37,11.55C975.65,406.13,930.67,405.2,930.67,405.2z"/>
	</g>
	<g>
		<path class="st2" d="M100.09,251.76h83.21c0,0,13.05-0.05,16.15-10.16c1.94-6.34,0-14.08-8.94-15.84
			c-9.88-1.95-12.78-1.9-14.3-10.74c-1.32-7.7-6.53-12.59-12.71-13.45c-6.84-0.95-10.9,2.98-18.25,8.9
			c-4.73,3.81-8.93,2.9-15.16-3.76c-6.99-7.47-19.06-6.04-22.24,3.81c-3.63,11.27-2.16,14.97-12.33,19.77
			c-7.18,3.39-10.15,7.55-10,12.27C85.67,247.28,93.31,251.76,100.09,251.76z"/>
		<path class="st40" d="M112.94,251.76c0,0-11.7-5.08-8.31-13.55c5.91-14.77,21.07-1.27,24.61-6.31
			c7.79-11.11,17.11-16.09,23.49-5.22c3.26,5.55,11.73,10.89,22.84,9.37c13.44-1.84,13.35,14.43,5.95,15.7
			C174.11,253.03,112.94,251.76,112.94,251.76z"/>
	</g>
</g>
</svg>
