<?xml version="1.0" encoding="utf-8"?>
<!-- Generator: Adobe Illustrator 25.0.0, SVG Export Plug-In . SVG Version: 6.00 Build 0)  -->
<svg version="1.1" id="Warstwa_1" xmlns="http://www.w3.org/2000/svg" xmlns:xlink="http://www.w3.org/1999/xlink" x="0px" y="0px"
	 viewBox="0 0 128 128" style="enable-background:new 0 0 128 128;" xml:space="preserve">
<style type="text/css">
	.st0{fill:#E52C2B;}
	.st1{fill:#FFFFFF;}
	.st2{fill:#1D1D1B;}
</style>
<g>
	<g>
		<path class="st0" d="M30.64,65.48h51.95l6.99-2.59c6.28-2.33,9.49-9.31,7.16-15.59l-6.88-18.56c-2.33-6.28-9.31-9.49-15.59-7.16
			L32.97,36.89c-6.28,2.33-9.49,9.31-7.16,15.59L30.64,65.48z"/>
	</g>
	<g>
		<path class="st1" d="M66.36,44.3l-10.71-1.82c-3.04-0.52-5.49,2.45-4.42,5.34l3.78,10.19c1.07,2.89,4.87,3.53,6.83,1.16l6.93-8.36
			C70.74,48.43,69.4,44.82,66.36,44.3z"/>
	</g>
	<g>
		<g>
			<path class="st2" d="M40.87,85.56v6.37H25V68.2h7.02v17.36H40.87z"/>
		</g>
		<g>
			<path class="st2" d="M51.56,68.2v23.74h-7.02V68.2H51.56z"/>
		</g>
		<g>
			<path class="st2" d="M79.13,68.2L71.2,91.94h-8.68L54.58,68.2h7.6l4.68,16.92l4.68-16.92H79.13z"/>
		</g>
		<g>
			<path class="st2" d="M98.09,86.17v5.76H81.95V68.2h15.8V74h-8.78v3.22h7.7v5.49h-7.7v3.46H98.09z"/>
		</g>
	</g>
	<g>
		<circle class="st0" cx="104.74" cy="65.48" r="3.26"/>
	</g>
	<g>
		<path class="st0" d="M34.75,103.36c0,2.05-1.75,3.82-4.63,3.82c-2.14,0-4.48-0.81-4.97-3.17l2.98-0.93
			c0.07,0.61,0.74,1.18,1.84,1.18c0.91,0,1.31-0.4,1.31-0.86c0-0.71-0.89-0.77-2.07-1.06c-2.27-0.54-3.59-1.48-3.59-3.62
			c0-2.26,1.89-3.75,4.48-3.75c2.07,0,3.89,1.06,4.33,3.1l-2.96,0.72c-0.13-0.47-0.54-0.91-1.33-0.91c-0.67,0-1.18,0.29-1.18,0.83
			c0,0.67,1.03,0.77,1.94,1.03C33.77,100.53,34.75,101.49,34.75,103.36z"/>
		<path class="st0" d="M45.47,98.34h-2.76v8.62h-3.49v-8.62h-2.76v-3.17h9.01V98.34z"/>
		<path class="st0" d="M52.63,103.18h-1.28v3.79h-3.49V95.18h4.83c3.25,0,4.83,1.63,4.83,4.23c0,1.5-0.61,2.53-1.68,3.12l2.51,4.45
			h-3.81L52.63,103.18z M51.35,100.45h1.35c0.79,0,1.31-0.27,1.31-1.04c0-0.71-0.4-1.06-1.31-1.06h-1.35V100.45z"/>
		<path class="st0" d="M68.42,104.1v2.86h-8.01V95.18h7.85v2.88h-4.36v1.6h3.82v2.73h-3.82v1.72H68.42z"/>
		<path class="st0" d="M78.04,105.08h-3.6l-0.52,1.89h-3.77l3.94-11.79h4.31l3.94,11.79h-3.77L78.04,105.08z M77.35,102.59
			l-1.11-4.02l-1.11,4.02H77.35z"/>
		<path class="st0" d="M97.96,95.18v11.79h-3.49v-6.47l-2.76,4.82h-1.06l-2.78-4.82v6.47h-3.49V95.18h3.79l3,5.29l3.01-5.29H97.96z"
			/>
	</g>
</g>
</svg>
