<?xml version="1.0" encoding="utf-8"?>
<!-- Generator: Adobe Illustrator 25.0.0, SVG Export Plug-In . SVG Version: 6.00 Build 0)  -->
<svg version="1.1" id="Warstwa_1" xmlns="http://www.w3.org/2000/svg" xmlns:xlink="http://www.w3.org/1999/xlink" x="0px" y="0px"
	 viewBox="0 0 52 48" style="enable-background:new 0 0 52 48;" xml:space="preserve">
<style type="text/css">
	.st0{fill:#FFFFFF;}
</style>
<g>
	<path id="Path_1" class="st0" d="M26.58,0h0.02c2.56,4.16,5.12,8.33,7.67,12.5c0.3,0.46,0.52,1.04,1.04,1.31
		c0.46,0.18,0.94,0.31,1.42,0.4c4.19,1.01,8.38,2.02,12.57,3.04c0.42,0.08,0.83,0.19,1.22,0.35c-0.09,0.1-0.21,0.17-0.34,0.19
		c-2.01,0.61-4.02,1.25-6.03,1.86c-0.43,0.17-0.89,0.27-1.35,0.28c-0.44-0.06-0.87-0.15-1.3-0.27c-2.83-0.66-5.66-1.34-8.48-2.04
		c-0.29-0.06-0.56-0.19-0.78-0.39c-0.25-0.29-0.48-0.61-0.66-0.95c-1.59-2.55-3.16-5.11-4.72-7.68c-0.19-0.3-0.29-0.65-0.3-1
		c-0.02-2.26-0.01-4.53-0.01-6.79C26.55,0.54,26.56,0.27,26.58,0L26.58,0z"/>
	<path id="Path_2" class="st0" d="M23.5,2.99c0.6-0.94,1.14-1.93,1.79-2.85c0.05,0.28,0.08,0.57,0.08,0.85
		c0,2.18,0.01,4.35-0.01,6.53c0,0.41-0.12,0.81-0.34,1.16c-1.67,2.76-3.36,5.51-5.06,8.25c-0.2,0.32-0.51,0.56-0.88,0.65
		c-3.23,0.81-6.47,1.57-9.71,2.35C9.13,20,8.88,20,8.64,19.93c-2.32-0.7-4.63-1.42-6.94-2.14c-0.14-0.06-0.28-0.13-0.4-0.23
		c4.92-1.23,9.86-2.37,14.77-3.6c0.48-0.09,0.89-0.38,1.15-0.79C19.33,9.8,21.42,6.4,23.5,2.99L23.5,2.99z"/>
	<path id="Path_3" class="st0" d="M14.3,8.39c1.29-0.18,2.48,0.71,2.67,2s-0.71,2.48-2,2.67c-0.03,0-0.05,0.01-0.08,0.01
		c-1.29,0.1-2.42-0.87-2.52-2.17c0-0.01,0-0.02,0-0.03C12.28,9.67,13.12,8.61,14.3,8.39L14.3,8.39z"/>
	<path id="Path_4" class="st0" d="M36.85,8.38c0.62-0.1,1.25,0.05,1.76,0.42c1.04,0.76,1.26,2.22,0.5,3.26s-2.22,1.26-3.26,0.5
		c-1.04-0.76-1.26-2.22-0.5-3.26C35.71,8.81,36.25,8.48,36.85,8.38z"/>
	<path id="Path_5" class="st0" d="M0.76,18.75c2.1,0.67,4.2,1.36,6.33,1.93c1.09,0.31,2.05,0.96,2.75,1.85
		c1.74,2.15,3.55,4.24,5.36,6.32c0.25,0.26,0.42,0.59,0.48,0.95c0.01,0.46-0.01,0.92-0.08,1.37c-0.22,2.35-0.39,4.7-0.53,7.06
		c-0.02,0.9-0.2,1.79-0.55,2.63c-0.44,0.78-0.95,1.51-1.52,2.19c-1.03,1.37-1.93,2.83-2.99,4.17c0.36-4.53,0.72-9.07,1.08-13.6
		c0.04-0.69,0.13-1.38,0.1-2.08c-0.02-0.6-0.5-1.01-0.85-1.45c-3.18-3.78-6.41-7.52-9.58-11.31C0.76,18.78,0.76,18.75,0.76,18.75z"
		/>
	<path id="Path_6" class="st0" d="M43.99,20.96c2.41-0.76,4.83-1.52,7.25-2.25c-2.35,2.78-4.7,5.55-7.07,8.32
		c-0.99,1.15-1.92,2.35-2.96,3.45c-0.43,0.58-0.59,1.32-0.44,2.03c0.37,4.5,0.72,9,1.06,13.5c0.04,0.38,0.05,0.75,0.06,1.13
		c-0.41-0.46-0.78-0.95-1.13-1.46c-1.14-1.58-2.3-3.16-3.4-4.78c-0.27-0.49-0.42-1.04-0.42-1.6c-0.25-3.05-0.49-6.1-0.7-9.15
		c-0.05-0.4,0.08-0.81,0.35-1.12c1.99-2.38,4-4.74,6.03-7.09C42.95,21.47,43.43,21.13,43.99,20.96L43.99,20.96z"/>
	<path id="Path_7" class="st0" d="M7.24,29.94c1.27-0.24,2.5,0.6,2.73,1.87c0.16,0.85-0.17,1.72-0.84,2.26
		c-0.89,0.69-2.14,0.67-3-0.05c-0.71-0.61-0.99-1.58-0.71-2.48C5.68,30.72,6.38,30.09,7.24,29.94L7.24,29.94z"/>
	<path id="Path_8" class="st0" d="M44.1,29.94c0.84-0.14,1.69,0.18,2.22,0.85c0.81,1.02,0.64,2.49-0.37,3.3
		c-0.91,0.73-2.23,0.67-3.08-0.13c-0.95-0.88-1-2.36-0.12-3.31C43.11,30.27,43.58,30.02,44.1,29.94L44.1,29.94z"/>
	<path id="Path_9" class="st0" d="M24.85,37.41c0.5-0.31,1.1-0.39,1.66-0.23c2.96,1.19,5.91,2.42,8.85,3.65
		c0.41,0.16,0.76,0.43,1.02,0.78c1.46,1.99,2.89,4.01,4.25,6.07c0.06,0.1,0.11,0.2,0.15,0.31h-0.04c-0.06-0.06-0.13-0.12-0.19-0.18
		c-0.39-0.12-0.77-0.26-1.14-0.43c-4.27-1.76-8.54-3.53-12.8-5.3c-0.47-0.19-1-0.16-1.44,0.08c-3.75,1.57-7.5,3.13-11.26,4.68
		c-0.92,0.4-1.86,0.73-2.76,1.17h-0.13c0.32-0.57,0.69-1.11,1.09-1.63c1.16-1.64,2.33-3.28,3.5-4.92c0.19-0.24,0.44-0.43,0.73-0.53
		C19.17,39.75,22.01,38.57,24.85,37.41L24.85,37.41z"/>
	<path id="Path_10" class="st0" d="M25.43,43.24c1.27-0.31,2.55,0.47,2.86,1.73c0.31,1.27-0.47,2.55-1.73,2.86
		c-1.27,0.31-2.55-0.47-2.86-1.73c-0.02-0.06-0.03-0.13-0.04-0.19C23.46,44.69,24.23,43.53,25.43,43.24z"/>
</g>
</svg>
