<?xml version="1.0" encoding="utf-8"?>
<!-- Generator: Adobe Illustrator 25.0.0, SVG Export Plug-In . SVG Version: 6.00 Build 0)  -->
<svg version="1.1" id="Warstwa_1" xmlns="http://www.w3.org/2000/svg" xmlns:xlink="http://www.w3.org/1999/xlink" x="0px" y="0px"
	 viewBox="0 0 1080 1080" style="enable-background:new 0 0 1080 1080;" xml:space="preserve">
<style type="text/css">
	.st0{fill:#EEEEEE;}
</style>
<g>
	<path id="Path_1" class="st0" d="M13.05,0h0.45c57.59,93.58,115.18,187.39,172.54,281.19c6.75,10.35,11.7,23.4,23.4,29.47
		c10.35,4.05,21.15,6.97,31.94,9c94.26,22.72,188.51,45.44,282.77,68.39c9.45,1.8,18.67,4.27,27.44,7.87
		c-2.02,2.25-4.72,3.82-7.65,4.27c-45.22,13.72-90.43,28.12-135.65,41.84c-9.67,3.82-20.02,6.07-30.37,6.3
		c-9.9-1.35-19.57-3.37-29.24-6.07c-63.66-14.85-127.32-30.14-190.76-45.89c-6.52-1.35-12.6-4.27-17.55-8.77
		c-5.62-6.52-10.8-13.72-14.85-21.37C89.76,308.86,54.44,251.27,19.35,193.46c-4.27-6.75-6.52-14.62-6.75-22.5
		c-0.45-50.84-0.22-101.9-0.22-152.74C12.37,12.15,12.6,6.07,13.05,0L13.05,0z"/>
	<path id="Path_2" class="st0" d="M-56.24,67.26c13.5-21.15,25.64-43.42,40.27-64.11c1.12,6.3,1.8,12.82,1.8,19.12
		c0,49.04,0.22,97.85-0.22,146.89c0,9.22-2.7,18.22-7.65,26.09c-37.57,62.09-75.58,123.95-113.83,185.59
		c-4.5,7.2-11.47,12.6-19.8,14.62c-72.66,18.22-145.54,35.32-218.43,52.86c-5.4,1.57-11.02,1.57-16.42,0
		c-52.19-15.75-104.15-31.94-156.12-48.14c-3.15-1.35-6.3-2.92-9-5.17c110.68-27.67,221.8-53.31,332.26-80.98
		c10.8-2.02,20.02-8.55,25.87-17.77C-150.04,220.45-103.03,143.97-56.24,67.26L-56.24,67.26z"/>
	<path id="Path_3" class="st0" d="M-263.2,188.74c29.02-4.05,55.79,15.97,60.06,44.99s-15.97,55.79-44.99,60.06
		c-0.67,0-1.12,0.22-1.8,0.22c-29.02,2.25-54.44-19.57-56.69-48.81c0-0.22,0-0.45,0-0.67C-308.64,217.53-289.74,193.68-263.2,188.74
		L-263.2,188.74z"/>
	<path id="Path_4" class="st0" d="M244.07,188.51c13.95-2.25,28.12,1.12,39.59,9.45c23.4,17.1,28.34,49.94,11.25,73.33
		s-49.94,28.34-73.33,11.25c-23.4-17.1-28.34-49.94-11.25-73.33C218.43,198.18,230.58,190.76,244.07,188.51z"/>
	<path id="Path_5" class="st0" d="M-567.78,421.79c47.24,15.07,94.48,30.59,142.4,43.42c24.52,6.97,46.12,21.6,61.86,41.62
		c39.14,48.36,79.86,95.38,120.57,142.17c5.62,5.85,9.45,13.27,10.8,21.37c0.22,10.35-0.22,20.7-1.8,30.82
		c-4.95,52.86-8.77,105.73-11.92,158.82c-0.45,20.25-4.5,40.27-12.37,59.16c-9.9,17.55-21.37,33.97-34.19,49.26
		c-23.17,30.82-43.42,63.66-67.26,93.81c8.1-101.9,16.2-204.03,24.29-305.94c0.9-15.52,2.92-31.04,2.25-46.79
		c-0.45-13.5-11.25-22.72-19.12-32.62c-71.54-85.03-144.19-169.16-215.51-254.42C-567.78,422.46-567.78,421.79-567.78,421.79z"/>
	<path id="Path_6" class="st0" d="M404.69,471.5c54.21-17.1,108.65-34.19,163.09-50.61c-52.86,62.54-105.73,124.85-159.04,187.16
		c-22.27,25.87-43.19,52.86-66.59,77.61c-9.67,13.05-13.27,29.69-9.9,45.67c8.32,101.23,16.2,202.46,23.85,303.69
		c0.9,8.55,1.12,16.87,1.35,25.42c-9.22-10.35-17.55-21.37-25.42-32.84c-25.64-35.54-51.74-71.09-76.48-107.53
		c-6.07-11.02-9.45-23.4-9.45-35.99c-5.62-68.61-11.02-137.22-15.75-205.83c-1.12-9,1.8-18.22,7.87-25.19
		c44.77-53.54,89.98-106.63,135.65-159.49C381.3,482.97,392.09,475.33,404.69,471.5L404.69,471.5z"/>
	<path id="Path_7" class="st0" d="M-422.01,673.51c28.57-5.4,56.24,13.5,61.41,42.07c3.6,19.12-3.82,38.69-18.9,50.84
		c-20.02,15.52-48.14,15.07-67.49-1.12c-15.97-13.72-22.27-35.54-15.97-55.79C-457.1,691.06-441.36,676.88-422.01,673.51
		L-422.01,673.51z"/>
	<path id="Path_8" class="st0" d="M407.17,673.51c18.9-3.15,38.02,4.05,49.94,19.12c18.22,22.95,14.4,56.01-8.32,74.23
		c-20.47,16.42-50.16,15.07-69.29-2.92c-21.37-19.8-22.5-53.09-2.7-74.46C384.89,680.93,395.47,675.31,407.17,673.51L407.17,673.51z
		"/>
	<path id="Path_9" class="st0" d="M-25.87,841.55c11.25-6.97,24.74-8.77,37.34-5.17c66.59,26.77,132.95,54.44,199.08,82.11
		c9.22,3.6,17.1,9.67,22.95,17.55c32.84,44.77,65.01,90.21,95.61,136.55c1.35,2.25,2.47,4.5,3.37,6.97h-0.9
		c-1.35-1.35-2.92-2.7-4.27-4.05c-8.77-2.7-17.32-5.85-25.64-9.67c-96.05-39.59-192.11-79.41-287.94-119.23
		c-10.57-4.27-22.5-3.6-32.39,1.8c-84.36,35.32-168.71,70.41-253.3,105.28c-20.7,9-41.84,16.42-62.09,26.32h-2.92
		c7.2-12.82,15.52-24.97,24.52-36.67c26.09-36.89,52.41-73.78,78.73-110.68c4.27-5.4,9.9-9.67,16.42-11.92
		C-153.64,894.19-89.76,867.64-25.87,841.55L-25.87,841.55z"/>
	<path id="Path_10" class="st0" d="M-12.82,972.7c28.57-6.97,57.36,10.57,64.34,38.92c6.97,28.57-10.57,57.36-38.92,64.34
		c-28.57,6.97-57.36-10.57-64.34-38.92c-0.45-1.35-0.67-2.92-0.9-4.27C-57.14,1005.32-39.82,979.22-12.82,972.7z"/>
	<animateTransform attributeType="xml" attributeName="transform" type="rotate" from="360 0 540" to="0 0 540" dur="50s" additive="sum" repeatCount="indefinite" />
</g>

</svg>
