<?xml version="1.0" encoding="utf-8"?>
<!-- Generator: Adobe Illustrator 25.0.0, SVG Export Plug-In . SVG Version: 6.00 Build 0)  -->
<svg version="1.1" id="Warstwa_1" xmlns="http://www.w3.org/2000/svg" xmlns:xlink="http://www.w3.org/1999/xlink" x="0px" y="0px"
	 viewBox="0 0 1080 1080" style="enable-background:new 0 0 1080 1080;" xml:space="preserve">
<style type="text/css">
	.st0{fill:url(#SVGID_1_);}
	.st1{opacity:0.3;}
	.st2{fill:#91B3FA;}
	.st3{fill:#BDD0FB;}
	.st4{opacity:0.43;fill:#FFFFFF;}
	.st5{fill:#7D97F4;}
	.st6{fill:url(#SVGID_2_);}
	.st7{fill:url(#SVGID_3_);}
	.st8{fill:url(#SVGID_4_);}
	.st9{fill:url(#SVGID_5_);}
	.st10{fill:url(#SVGID_6_);}
	.st11{fill:url(#SVGID_7_);}
	.st12{fill:url(#SVGID_8_);}
	.st13{opacity:0.7;fill:#FFFFFF;}
	.st14{fill:url(#SVGID_9_);}
	.st15{fill:url(#SVGID_10_);}
	.st16{fill:url(#SVGID_11_);}
	.st17{fill:url(#SVGID_12_);}
	.st18{fill:url(#SVGID_13_);}
	.st19{fill:url(#SVGID_14_);}
	.st20{fill:url(#SVGID_15_);}
	.st21{fill:url(#SVGID_16_);}
	.st22{fill:url(#SVGID_17_);}
	.st23{fill:url(#SVGID_18_);}
	.st24{fill:url(#SVGID_19_);}
	.st25{fill:url(#SVGID_20_);}
	.st26{fill:url(#SVGID_21_);}
	.st27{fill:url(#SVGID_22_);}
	.st28{fill:url(#SVGID_23_);}
	.st29{fill:url(#SVGID_24_);}
	.st30{fill:url(#SVGID_25_);}
	.st31{fill:url(#SVGID_26_);}
	.st32{fill:url(#SVGID_27_);}
</style>
<g>
	<g>
		<linearGradient id="SVGID_1_" gradientUnits="userSpaceOnUse" x1="1046.9252" y1="1179.7363" x2="329.2987" y2="288.4893">
			<stop  offset="0" style="stop-color:#DAE3FE"/>
			<stop  offset="1" style="stop-color:#E9EFFD"/>
		</linearGradient>
		<path class="st0" d="M849.5,828.26c-16.48,17.35-32.08,28.54-44.4,37.39c-144.85,103.93-316.25,73.64-352.67,66.24
			c-53.79-10.93-157.77-32.04-232.94-120.44c-113.73-133.74-96.02-344.45-7.8-483.55c16.14-25.44,101.37-166.65,274.61-189.3
			c104.84-13.7,227.06,13.94,315.56,88.09C987.64,382.33,974.41,696.76,849.5,828.26z"/>
		<g>
			<g>
				<g class="st1">
					<path class="st2" d="M263.9,356.75c0.23-1.52,1.65-2.56,3.17-2.33c2.95,0.45,5.97,0.78,8.96,0.98c1.52,0.1,2.67,1.4,2.59,2.91
						c0,0.02,0,0.04,0,0.05c-0.1,1.53-1.43,2.69-2.96,2.59c-3.15-0.21-6.33-0.56-9.43-1.03c-1.42-0.22-2.42-1.47-2.36-2.88
						C263.88,356.94,263.89,356.85,263.9,356.75z M290.68,355.37c2.99-0.21,6-0.55,8.95-1.01c1.52-0.24,2.94,0.8,3.18,2.32
						c0.23,1.52-0.8,2.94-2.32,3.18c-3.1,0.49-6.27,0.84-9.42,1.07c-1.53,0.11-2.86-1.05-2.97-2.58c-0.01-0.11-0.01-0.22,0-0.33
						C288.16,356.62,289.25,355.47,290.68,355.37z M313.9,351.09c2.86-0.87,5.72-1.87,8.5-2.99c1.43-0.57,3.05,0.12,3.62,1.55
						c0.57,1.43-0.12,3.05-1.55,3.62c-2.93,1.17-5.94,2.23-8.95,3.14c-1.47,0.45-3.02-0.38-3.47-1.85
						c-0.09-0.31-0.13-0.63-0.12-0.94C311.98,352.48,312.74,351.44,313.9,351.09z M335.58,341.73c2.6-1.49,5.16-3.11,7.62-4.81
						c1.26-0.87,3-0.56,3.87,0.7c0.87,1.26,0.56,3-0.7,3.87c-2.59,1.79-5.29,3.5-8.02,5.07c-1.33,0.76-3.03,0.3-3.8-1.03
						c-0.27-0.48-0.39-1-0.37-1.51C334.23,343.1,334.72,342.22,335.58,341.73z M354.63,327.77c2.2-2.02,4.34-4.17,6.37-6.38
						c1.04-1.13,2.8-1.21,3.93-0.17c1.13,1.04,1.21,2.8,0.17,3.93c-2.13,2.33-4.39,4.58-6.7,6.71c-1.13,1.04-2.89,0.97-3.93-0.16
						c-0.52-0.57-0.77-1.3-0.73-2.02C353.77,328.98,354.07,328.29,354.63,327.77z M370.12,309.94c1.7-2.46,3.31-5.03,4.8-7.63
						c0.76-1.33,2.46-1.8,3.8-1.04c1.33,0.76,1.8,2.46,1.04,3.8c-1.56,2.74-3.26,5.44-5.05,8.03c-0.87,1.26-2.6,1.58-3.87,0.71
						c-0.82-0.57-1.24-1.5-1.2-2.43C369.66,310.89,369.82,310.39,370.12,309.94z M382.83,207.41c1.43-0.57,3.05,0.13,3.61,1.56
						c1.16,2.92,2.22,5.94,3.13,8.96c0.44,1.47-0.39,3.02-1.86,3.47c-1.47,0.44-3.02-0.39-3.47-1.86c-0.86-2.87-1.87-5.73-2.97-8.51
						c-0.15-0.38-0.21-0.78-0.2-1.16C381.13,208.8,381.79,207.82,382.83,207.41z M381.27,289.14c1.11-2.78,2.11-5.64,2.97-8.5
						c0.45-1.47,2-2.3,3.47-1.86c1.47,0.44,2.3,2,1.86,3.47c-0.91,3.01-1.96,6.03-3.13,8.95c-0.57,1.43-2.19,2.12-3.62,1.55
						c-1.13-0.45-1.8-1.56-1.75-2.72C381.09,289.74,381.15,289.43,381.27,289.14z M389.81,230.63c1.52-0.23,2.94,0.81,3.17,2.33
						c0.48,3.11,0.83,6.28,1.05,9.43c0.11,1.53-1.05,2.86-2.59,2.97c-1.53,0.11-2.86-1.05-2.97-2.59c-0.21-2.99-0.54-6.01-1-8.96
						c-0.03-0.19-0.04-0.38-0.03-0.56C387.52,231.95,388.48,230.83,389.81,230.63z M387.49,266.37c0.46-2.95,0.79-5.97,1-8.96
						c0.1-1.53,1.43-2.69,2.97-2.59c1.51,0.1,2.66,1.4,2.59,2.91c0,0.02,0,0.04,0,0.06c-0.21,3.15-0.57,6.32-1.05,9.43
						c-0.24,1.52-1.66,2.56-3.18,2.32c-1.42-0.22-2.42-1.48-2.35-2.88C387.46,266.57,387.47,266.47,387.49,266.37z"/>
					<path class="st2" d="M372.24,192.44c-0.03,0.55,0.11,1.11,0.42,1.61c0.76,1.22,1.51,2.47,2.23,3.72
						c0.76,1.33,2.46,1.8,3.8,1.03c1.33-0.76,1.8-2.46,1.03-3.8c-0.75-1.32-1.54-2.63-2.34-3.91c-0.82-1.3-2.53-1.7-3.84-0.88
						C372.74,190.71,372.28,191.56,372.24,192.44z"/>
				</g>
				<g class="st1">
					<path class="st2" d="M302.68,143.88c-0.06,1.34,0.85,2.57,2.21,2.85c1.4,0.29,2.83,0.62,4.22,0.98c1.49,0.38,3-0.53,3.38-2.02
						c0.38-1.5-0.53-3-2.02-3.38c-1.47-0.37-2.97-0.72-4.45-1.03c-1.5-0.31-2.98,0.65-3.29,2.15
						C302.71,143.59,302.69,143.74,302.68,143.88z"/>
					<path class="st2" d="M172.56,239.23c0.15-1.53,1.51-2.65,3.04-2.5c1.53,0.15,2.65,1.51,2.5,3.04
						c-0.28,2.91-0.44,5.88-0.48,8.86c-0.02,1.53-1.28,2.76-2.82,2.74c-1.54-0.02-2.76-1.28-2.74-2.82
						c0.02-1.29,0.06-2.57,0.12-3.85C172.25,242.87,172.38,241.03,172.56,239.23z M175.29,260.59c1.52-0.19,2.91,0.9,3.1,2.42
						c0.36,2.93,0.85,5.87,1.45,8.75c0.32,1.5-0.65,2.98-2.16,3.29c-1.5,0.31-2.98-0.65-3.29-2.16c-0.63-3.03-1.15-6.13-1.52-9.21
						c-0.02-0.16-0.03-0.32-0.02-0.47C172.91,261.88,173.92,260.75,175.29,260.59z M175.05,224.27c0.72-3.01,1.57-6.03,2.54-8.98
						c0.48-1.46,2.05-2.25,3.51-1.77c1.46,0.48,2.25,2.05,1.77,3.51c-0.92,2.8-1.73,5.67-2.41,8.53c-0.36,1.49-1.86,2.42-3.35,2.06
						c-1.32-0.31-2.2-1.53-2.14-2.84C174.98,224.61,175.01,224.44,175.05,224.27z M180.18,283.94c1.45-0.52,3.04,0.24,3.56,1.68
						c0.99,2.77,2.11,5.54,3.33,8.22c0.64,1.4,0.02,3.05-1.38,3.69c-1.4,0.64-3.05,0.02-3.69-1.38c-1.29-2.82-2.47-5.73-3.51-8.65
						c-0.13-0.35-0.18-0.71-0.16-1.07C178.39,285.34,179.09,284.33,180.18,283.94z M183.31,201.26c1.36-2.78,2.86-5.54,4.45-8.2
						c0.79-1.32,2.5-1.75,3.82-0.96c1.32,0.79,1.75,2.5,0.96,3.82c-1.51,2.53-2.94,5.15-4.23,7.79c-0.68,1.38-2.34,1.95-3.72,1.28
						c-1.03-0.5-1.61-1.56-1.56-2.63C183.04,201.98,183.13,201.61,183.31,201.26z M196.41,180.61c1.94-2.42,4-4.79,6.14-7.03
						c1.06-1.11,2.82-1.16,3.93-0.1c1.12,1.06,1.16,2.82,0.1,3.93c-2.03,2.13-3.99,4.38-5.83,6.68c-0.96,1.2-2.71,1.39-3.91,0.43
						c-0.72-0.58-1.08-1.45-1.04-2.3C195.83,181.65,196.03,181.09,196.41,180.61z M213.71,163.31c2.42-1.94,4.95-3.8,7.52-5.53
						c1.28-0.86,3-0.52,3.86,0.76c0.86,1.28,0.52,3-0.76,3.86c-2.44,1.64-4.84,3.41-7.15,5.25c-1.2,0.96-2.95,0.77-3.91-0.43
						c-0.44-0.55-0.64-1.22-0.61-1.87C212.7,164.58,213.06,163.83,213.71,163.31z M234.36,150.2c2.79-1.36,5.67-2.63,8.55-3.75
						c1.43-0.56,3.04,0.15,3.6,1.59c0.56,1.43-0.15,3.04-1.59,3.6c-2.74,1.07-5.47,2.26-8.12,3.56c-1.38,0.68-3.05,0.1-3.72-1.28
						c-0.21-0.44-0.3-0.9-0.28-1.35C232.85,151.59,233.42,150.66,234.36,150.2z M257.41,141.94c3.01-0.71,6.09-1.31,9.16-1.77
						c1.52-0.23,2.94,0.82,3.16,2.34c0.23,1.52-0.82,2.94-2.34,3.16c-2.91,0.44-5.84,1-8.7,1.68c-1.49,0.36-2.99-0.57-3.35-2.06
						c-0.06-0.26-0.09-0.52-0.07-0.78C255.33,143.31,256.17,142.23,257.41,141.94z M281.68,138.95c2.28-0.03,4.59,0.01,6.87,0.12
						c0.82,0.04,1.64,0.09,2.46,0.14c1.53,0.11,2.72,1.42,2.58,2.97c-0.11,1.53-1.43,2.69-2.97,2.58c-0.78-0.05-1.56-0.1-2.34-0.14
						c-2.16-0.1-4.36-0.14-6.53-0.11c-1.54,0.02-2.8-1.21-2.82-2.74c0-0.06,0-0.12,0-0.17C279.01,140.14,280.2,138.97,281.68,138.95
						z"/>
					<path class="st2" d="M188.84,307.93c-0.03,0.55,0.11,1.12,0.43,1.62c0.81,1.27,1.66,2.55,2.52,3.8
						c0.88,1.26,2.61,1.58,3.87,0.7c1.26-0.88,1.58-2.61,0.7-3.87c-0.82-1.19-1.63-2.4-2.4-3.61c-0.82-1.3-2.54-1.68-3.84-0.86
						C189.34,306.21,188.89,307.05,188.84,307.93z"/>
				</g>
				<g>
					<path class="st2" d="M232,319.16c0.44,0.4,1.08,0.47,1.6,0.18l14.77-8.2c6.92,3.8,14.49,6.51,22.49,7.94l6.35,15.65
						c0.22,0.55,0.77,0.9,1.36,0.86l20.24-1.08c0.59-0.03,1.1-0.44,1.26-1l4.64-16.24c7.8-2.27,15.04-5.79,21.51-10.3l15.56,6.58
						c0.55,0.23,1.18,0.09,1.57-0.35l13.54-15.08c0.4-0.44,0.47-1.08,0.18-1.6l-8.2-14.77c3.8-6.92,6.52-14.49,7.94-22.49
						l15.65-6.35c0.55-0.22,0.9-0.77,0.86-1.36l-1.08-20.24c-0.03-0.59-0.44-1.1-1-1.26l-16.24-4.64
						c-2.27-7.8-5.79-15.04-10.3-21.51l6.58-15.56c0.23-0.55,0.09-1.18-0.35-1.57l-15.08-13.54c-0.44-0.4-1.08-0.47-1.6-0.18
						l-14.77,8.2c-6.92-3.8-14.49-6.52-22.49-7.94l-6.35-15.65c-0.22-0.55-0.77-0.9-1.36-0.86l-20.24,1.08
						c-0.59,0.03-1.1,0.44-1.26,1l-4.64,16.24c-7.8,2.27-15.04,5.79-21.51,10.3l-15.56-6.58c-0.55-0.23-1.18-0.09-1.57,0.35
						l-13.54,15.08c-0.4,0.44-0.47,1.08-0.18,1.6l8.2,14.77c-3.8,6.92-6.52,14.49-7.94,22.49l-15.65,6.35
						c-0.55,0.22-0.9,0.77-0.86,1.36l1.08,20.24c0.03,0.59,0.43,1.1,1,1.26l16.23,4.64c2.27,7.8,5.79,15.04,10.3,21.51l-6.58,15.56
						c-0.23,0.55-0.09,1.18,0.35,1.57L232,319.16z"/>
					<g>
						<path class="st3" d="M263.94,242.27c2.16-11.02,12.89-18.23,23.91-16.07c5.34,1.05,9.95,4.11,12.99,8.63
							c3.03,4.52,4.13,9.94,3.08,15.28c-2.16,11.02-12.89,18.23-23.91,16.07c-10.03-1.97-16.9-11.02-16.43-20.94
							C263.62,244.26,263.74,243.26,263.94,242.27z M296.89,237.48c-2.33-3.46-5.86-5.81-9.96-6.62
							c-8.45-1.66-16.68,3.87-18.33,12.32c-1.66,8.45,3.87,16.68,12.32,18.34c8.45,1.66,16.68-3.87,18.33-12.32
							c0.15-0.77,0.24-1.53,0.28-2.3C299.69,243.57,298.78,240.29,296.89,237.48z"/>
					</g>
					<g>
						<path class="st3" d="M234.21,243.43c-0.08,1.7-0.08,3.42,0.02,5.15l0,0c0.03,0.54,0.07,1.09,0.11,1.63
							c0.23,2.67,0.67,5.33,1.32,7.91c0.01,0.04,0.02,0.07,0.03,0.11c0.03,0.1,0.05,0.2,0.08,0.3c0.05,0.19,0.1,0.39,0.15,0.58
							c0.14,0.51,0.59,0.85,1.09,0.88c0.12,0.01,0.25-0.01,0.37-0.04c0.63-0.17,1-0.83,0.83-1.46c-0.89-3.26-1.43-6.63-1.61-10.03
							c-0.91-16.88,7.12-32.22,19.95-41.39c7.13-5.11,15.75-8.31,25.14-8.81c1.65-0.09,3.29-0.09,4.91-0.02
							c10.94,0.52,21.27,4.75,29.53,12.17c9.48,8.52,15.08,20.22,15.76,32.94c1.41,26.28-18.82,48.79-45.09,50.2
							c-1.62,0.09-3.24,0.09-4.85,0.01c-6.98-0.33-13.8-2.19-19.98-5.46c-0.16-0.08-0.33-0.13-0.5-0.14
							c-0.45-0.02-0.88,0.21-1.11,0.63c-0.31,0.58-0.09,1.3,0.5,1.61c6.49,3.43,13.65,5.38,20.98,5.73
							c1.69,0.08,3.39,0.08,5.09-0.01c27.58-1.48,48.82-25.13,47.34-52.7c-0.72-13.36-6.59-25.64-16.55-34.58
							c-8.67-7.78-19.52-12.23-31-12.77c-1.71-0.08-3.43-0.08-5.15,0.02c-13.36,0.72-25.64,6.59-34.59,16.55
							C239.19,221.09,234.75,231.94,234.21,243.43z"/>
					</g>
				</g>
			</g>
			<g>
				<g class="st1">
					<path class="st2" d="M186.13,448.41c-0.04,0.74,0.42,1.45,1.16,1.7c1.38,0.48,2.79,0.92,4.2,1.31
						c0.91,0.26,1.86-0.28,2.12-1.19c0.26-0.91-0.28-1.86-1.19-2.12c-1.34-0.38-2.69-0.8-4-1.25c-0.9-0.31-1.87,0.17-2.19,1.06
						C186.17,448.09,186.14,448.25,186.13,448.41z"/>
					<path class="st2" d="M198.98,451.39c0.14-0.94,1.02-1.58,1.96-1.44c2.37,0.36,4.78,0.59,7.18,0.71
						c0.5,0.02,1.01,0.04,1.52,0.06c0.95,0.03,1.7,0.81,1.67,1.76c-0.06,0.9-0.81,1.7-1.76,1.67c-0.53-0.01-1.06-0.03-1.59-0.06
						c-2.51-0.12-5.04-0.37-7.52-0.74c-0.88-0.13-1.5-0.91-1.46-1.78C198.97,451.51,198.98,451.45,198.98,451.39z M218.36,450.41
						c2.89-0.28,5.79-0.73,8.62-1.36c0.93-0.21,1.84,0.38,2.05,1.31c0.2,0.92-0.38,1.84-1.31,2.05c-2.96,0.66-6,1.14-9.03,1.43
						c-0.95,0.09-1.78-0.6-1.88-1.55c-0.01-0.08-0.01-0.17,0-0.25C216.84,451.19,217.5,450.49,218.36,450.41z M235.36,446.62
						c2.73-0.98,5.43-2.13,8.02-3.44c0.85-0.43,1.88-0.09,2.31,0.76c0.43,0.85,0.09,1.88-0.76,2.31c-2.72,1.37-5.55,2.58-8.41,3.61
						c-0.89,0.32-1.88-0.15-2.2-1.04c-0.08-0.22-0.11-0.44-0.1-0.66C234.25,447.49,234.69,446.87,235.36,446.62z M250.92,438.78
						c2.41-1.62,4.75-3.4,6.93-5.3c0.72-0.62,1.8-0.54,2.42,0.17c0.62,0.72,0.54,1.8-0.17,2.42c-2.3,1.99-4.74,3.86-7.27,5.55
						c-0.79,0.53-1.86,0.32-2.39-0.47c-0.21-0.32-0.31-0.68-0.29-1.04C250.18,439.6,250.45,439.09,250.92,438.78z M264.09,427.37
						c1.95-2.15,3.77-4.45,5.44-6.82c0.54-0.78,1.62-0.96,2.39-0.42c0.78,0.55,0.97,1.62,0.42,2.39c-1.74,2.49-3.66,4.89-5.7,7.15
						c-0.64,0.7-1.72,0.76-2.43,0.12c-0.4-0.36-0.59-0.86-0.57-1.36C263.66,428.06,263.81,427.68,264.09,427.37z M274.09,413.12
						c1.36-2.56,2.58-5.23,3.61-7.94c0.34-0.89,1.33-1.33,2.22-0.99c0.89,0.34,1.33,1.33,0.99,2.22c-1.08,2.84-2.36,5.64-3.78,8.32
						c-0.45,0.84-1.49,1.16-2.32,0.71c-0.61-0.32-0.94-0.96-0.91-1.6C273.9,413.6,273.96,413.35,274.09,413.12z M280.3,396.86
						c0.69-2.81,1.21-5.7,1.55-8.59c0.11-0.94,0.97-1.62,1.91-1.51c0.94,0.11,1.6,0.96,1.51,1.91c-0.36,3.03-0.9,6.06-1.63,9
						c-0.23,0.92-1.16,1.49-2.08,1.26c-0.81-0.2-1.34-0.94-1.31-1.75C280.25,397.08,280.27,396.97,280.3,396.86z M283.23,368.92
						c0.94-0.12,1.8,0.54,1.92,1.48c0.34,2.61,0.54,5.27,0.59,7.93c0.01,0.4,0.02,0.8,0.02,1.21c0.03,0.94-0.76,1.72-1.71,1.73
						c-0.95,0-1.72-0.76-1.73-1.71c0-0.38-0.01-0.75-0.02-1.14c-0.05-2.54-0.24-5.08-0.56-7.57c-0.01-0.1-0.02-0.2-0.01-0.3
						C281.77,369.73,282.39,369.03,283.23,368.92z"/>
				</g>
				<g class="st1">
					<path class="st2" d="M137.46,375.4c0.18-2.99,0.55-5.99,1.08-8.93c0.17-0.93,1.07-1.55,2-1.38c0.93,0.17,1.54,1.07,1.38,2
						c-0.51,2.8-0.86,5.67-1.03,8.52c-0.06,0.95-0.87,1.67-1.82,1.61c-0.94-0.06-1.66-0.86-1.61-1.8
						C137.45,375.41,137.46,375.4,137.46,375.4z M139.07,382.58c0.95-0.06,1.76,0.67,1.82,1.61c0.17,2.85,0.51,5.72,1.03,8.53
						c0.17,0.93-0.45,1.83-1.39,2c-0.93,0.17-1.83-0.45-2-1.38c-0.53-2.94-0.9-5.95-1.07-8.93c0-0.06,0-0.12,0-0.19
						C137.49,383.35,138.18,382.63,139.07,382.58z M140.7,357.73c0.9-2.86,1.98-5.69,3.21-8.41c0.39-0.86,1.41-1.25,2.28-0.86
						c0.87,0.39,1.25,1.41,0.86,2.27c-1.18,2.59-2.21,5.29-3.07,8.02c-0.28,0.91-1.25,1.41-2.15,1.12c-0.76-0.24-1.24-0.96-1.2-1.72
						C140.63,358.02,140.66,357.87,140.7,357.73z M141.81,399.92c0.91-0.28,1.87,0.22,2.15,1.13c0.85,2.73,1.88,5.42,3.05,8.02
						c0.39,0.86,0,1.88-0.86,2.27c-0.87,0.39-1.88,0.01-2.27-0.86c-1.23-2.73-2.31-5.56-3.2-8.42c-0.06-0.2-0.09-0.4-0.08-0.59
						C140.63,400.78,141.1,400.15,141.81,399.92z M148.12,341.37c1.56-2.55,3.29-5.04,5.14-7.39c0.59-0.74,1.67-0.87,2.41-0.28
						c0.75,0.59,0.87,1.67,0.28,2.41c-1.77,2.24-3.42,4.61-4.9,7.04c-0.49,0.81-1.55,1.07-2.36,0.57c-0.56-0.34-0.85-0.94-0.82-1.55
						C147.89,341.91,147.97,341.63,148.12,341.37z M159.25,327.27c2.13-2.11,4.4-4.11,6.76-5.94c0.75-0.58,1.83-0.45,2.41,0.3
						c0.58,0.75,0.45,1.83-0.3,2.41c-2.25,1.75-4.42,3.66-6.45,5.67c-0.67,0.67-1.76,0.66-2.43-0.01c-0.35-0.36-0.52-0.83-0.5-1.29
						C158.76,328,158.93,327.59,159.25,327.27z M173.44,316.24c2.57-1.54,5.26-2.94,7.99-4.15c0.87-0.39,1.88,0.01,2.27,0.87
						c0.39,0.87-0.01,1.88-0.87,2.27c-2.6,1.16-5.17,2.49-7.62,3.96c-0.81,0.49-1.87,0.22-2.36-0.59c-0.18-0.3-0.26-0.64-0.24-0.96
						C172.63,317.08,172.92,316.55,173.44,316.24z"/>
					<path class="st2" d="M147.87,417.55c-0.02,0.33,0.06,0.67,0.25,0.97c0.77,1.26,1.57,2.49,2.4,3.68
						c0.54,0.78,1.61,0.97,2.39,0.43c0.78-0.54,0.97-1.61,0.43-2.39c-0.79-1.13-1.56-2.32-2.29-3.51c-0.49-0.81-1.55-1.07-2.36-0.57
						C148.19,416.47,147.9,417,147.87,417.55z"/>
				</g>
				<g>
					<path class="st2" d="M179.57,425.67c0.28,0.25,0.68,0.29,1,0.11l9.26-5.14c4.34,2.38,9.08,4.08,14.09,4.98l3.98,9.81
						c0.14,0.34,0.48,0.56,0.85,0.54l12.69-0.68c0.37-0.02,0.69-0.27,0.79-0.63l2.91-10.18c4.89-1.42,9.42-3.63,13.48-6.46
						l9.76,4.12c0.34,0.14,0.74,0.06,0.99-0.22l8.49-9.45c0.25-0.28,0.29-0.68,0.11-1l-5.14-9.26c2.38-4.34,4.08-9.08,4.98-14.09
						l9.81-3.98c0.34-0.14,0.56-0.48,0.54-0.85l-0.68-12.69c-0.02-0.37-0.27-0.69-0.63-0.79l-10.18-2.91
						c-1.42-4.89-3.63-9.42-6.46-13.48l4.12-9.76c0.14-0.34,0.06-0.74-0.22-0.99l-9.45-8.49c-0.28-0.25-0.68-0.29-1-0.11l-9.26,5.14
						c-4.34-2.38-9.08-4.08-14.09-4.98l-3.98-9.81c-0.14-0.34-0.48-0.56-0.85-0.54l-12.69,0.68c-0.37,0.02-0.69,0.27-0.79,0.63
						l-2.91,10.18c-4.89,1.42-9.42,3.63-13.48,6.46l-9.76-4.12c-0.34-0.14-0.74-0.06-0.99,0.22l-8.49,9.45
						c-0.25,0.28-0.29,0.68-0.11,1l5.14,9.26c-2.38,4.34-4.08,9.08-4.98,14.09l-9.81,3.98c-0.34,0.14-0.56,0.48-0.54,0.85
						l0.68,12.69c0.02,0.37,0.27,0.69,0.63,0.79l10.18,2.91c1.42,4.89,3.63,9.42,6.46,13.48l-4.12,9.76
						c-0.14,0.34-0.06,0.74,0.22,0.99L179.57,425.67z"/>
					<g>
						<path class="st3" d="M199.36,377.42c0.67-3.41,2.62-6.35,5.51-8.29c2.88-1.94,6.34-2.64,9.75-1.97
							c7.03,1.38,11.62,8.21,10.25,15.26c-1.38,7.03-8.23,11.63-15.26,10.25c-3.41-0.67-6.35-2.62-8.29-5.51
							c-1.57-2.34-2.33-5.07-2.2-7.84C199.16,378.7,199.23,378.06,199.36,377.42z M213.96,370.54c-2.51-0.49-5.05,0.02-7.18,1.45
							c-2.12,1.42-3.56,3.59-4.05,6.1l0,0c-0.49,2.51,0.02,5.05,1.45,7.17c1.42,2.12,3.59,3.56,6.09,4.05
							c5.17,1.02,10.21-2.37,11.22-7.54c0.09-0.47,0.15-0.93,0.17-1.39C221.89,375.72,218.66,371.47,213.96,370.54z"/>
					</g>
					<g>
						<path class="st3" d="M179.97,378.18c-0.05,1.09-0.05,2.18,0.01,3.29c0.12,2.2,0.46,4.39,1.02,6.52
							c0.03,0.1,0.05,0.19,0.08,0.29c0.2,0.74,0.85,1.23,1.57,1.27c0.18,0.01,0.36-0.01,0.54-0.06c0.92-0.25,1.45-1.19,1.21-2.11
							c-0.54-1.98-0.87-4.03-0.98-6.08l0,0c-0.01-0.11-0.01-0.23-0.02-0.34c-0.21-4.87,0.79-9.61,2.88-13.88
							c1.13-2.32,2.58-4.49,4.33-6.48c0.01-0.02,0.03-0.03,0.04-0.05c0.04-0.05,0.09-0.1,0.13-0.15c5.17-5.75,12.26-9.14,19.98-9.56
							c1-0.05,1.99-0.06,2.98-0.01c6.63,0.32,12.9,2.88,17.91,7.38c5.75,5.17,9.14,12.26,9.56,19.98c0.41,7.71-2.2,15.13-7.37,20.89
							c-5.17,5.75-12.26,9.14-19.98,9.56c-0.98,0.05-1.96,0.06-2.94,0.01c-4.23-0.2-8.37-1.33-12.12-3.31
							c-0.23-0.12-0.48-0.19-0.72-0.2c-0.64-0.03-1.28,0.3-1.6,0.91c-0.44,0.84-0.12,1.88,0.72,2.32c4.19,2.22,8.82,3.48,13.56,3.7
							c1.09,0.05,2.19,0.05,3.29-0.01c8.64-0.46,16.57-4.26,22.35-10.69c5.78-6.43,8.71-14.73,8.24-23.36
							c-0.46-8.63-4.26-16.57-10.69-22.35c-5.6-5.03-12.61-7.9-20.03-8.25c-1.1-0.05-2.21-0.05-3.33,0.01
							C193.86,348.31,180.75,361.8,179.97,378.18z"/>
					</g>
				</g>
			</g>
		</g>
		<g>
			<g>
				<path class="st3" d="M929.39,174.91c-0.01-2.8-3.77-3.73-5.07-1.25c-12.57,23.94-47.49,85.68-87.01,113.97
					c-64.35,46.06-118.85,131.51-95.68,186.72C741.64,474.35,930.12,479.61,929.39,174.91z"/>
				<path class="st4" d="M916.63,210.17c-0.24,0.82-0.51,1.47-0.76,2.19l-0.79,2.1l-1.63,4.18c-1.11,2.78-2.26,5.54-3.4,8.3
					c-2.32,5.51-4.7,10.99-7.14,16.45c-4.89,10.91-10.08,21.69-15.43,32.39c-5.33,10.71-10.97,21.26-16.82,31.7
					c-5.86,10.43-11.88,20.78-18.23,30.92c-12.66,20.31-26.44,39.95-41.55,58.54c-7.65,9.21-15.55,18.23-23.95,26.77
					c-8.46,8.48-17.29,16.6-26.66,24.04c-0.2,0.16-0.5,0.13-0.66-0.08c-0.16-0.2-0.13-0.49,0.06-0.65l0.01,0
					c9.05-7.77,17.66-16.02,25.86-24.67c8.22-8.63,15.93-17.73,23.39-27.01c7.46-9.29,14.54-18.88,21.4-28.62
					c6.86-9.75,13.31-19.78,19.7-29.84c12.7-20.18,24.32-41.03,35.36-62.18c5.5-10.59,10.78-21.29,15.87-32.08
					c2.55-5.39,5.06-10.81,7.5-16.25l3.59-8.2l1.75-4.11l0.85-2.06c0.27-0.68,0.57-1.41,0.78-2.01l0.03-0.1
					c0.08-0.24,0.35-0.37,0.59-0.29C916.57,209.68,916.7,209.93,916.63,210.17z"/>
			</g>
			<g>
				<path class="st2" d="M838.18,136.65c-0.59-2.61-4.29-2.7-4.99-0.11c-6.75,24.97-26.5,89.9-57.51,124.55
					c-50.49,56.42-83.58,147.57-50.44,194.29C725.23,455.38,902.33,421.03,838.18,136.65z"/>
				<path class="st4" d="M833.61,172.23c-0.06,0.82-0.17,1.48-0.25,2.21l-0.3,2.13l-0.65,4.24c-0.45,2.83-0.95,5.64-1.45,8.46
					c-1.02,5.63-2.1,11.25-3.24,16.85c-2.29,11.21-4.89,22.36-7.66,33.46c-2.75,11.11-5.81,22.14-9.1,33.1
					c-3.3,10.96-6.76,21.88-10.58,32.67c-7.59,21.61-16.37,42.82-26.6,63.33c-5.23,10.2-10.72,20.26-16.79,29.99
					c-6.14,9.68-12.69,19.1-19.9,28c-0.16,0.2-0.45,0.23-0.65,0.07c-0.19-0.16-0.23-0.43-0.08-0.63l0-0.01
					c6.83-9.15,13.15-18.64,19-28.42c5.87-9.77,11.18-19.87,16.21-30.1c5.03-10.23,9.64-20.66,14.02-31.19
					c4.37-10.53,8.31-21.24,12.18-31.96c7.66-21.49,14.16-43.38,20.07-65.43c2.93-11.03,5.63-22.12,8.14-33.26
					c1.26-5.57,2.48-11.15,3.62-16.74l1.65-8.4l0.78-4.21l0.37-2.11c0.11-0.69,0.24-1.43,0.31-2.04l0.01-0.1
					c0.03-0.25,0.25-0.43,0.5-0.4C833.45,171.78,833.63,171.99,833.61,172.23z"/>
			</g>
		</g>
		<path class="st5" d="M913.7,936.62H541.18V488.35c0-26.11,21.17-47.28,47.28-47.28h295.15c26.11,0,47.28,21.17,47.28,47.28v431.08
			C930.89,928.93,923.19,936.62,913.7,936.62z"/>
		<g>
			<linearGradient id="SVGID_2_" gradientUnits="userSpaceOnUse" x1="712.3101" y1="498.558" x2="720.0187" y2="353.3798">
				<stop  offset="0" style="stop-color:#FF928E"/>
				<stop  offset="1" style="stop-color:#FE7062"/>
			</linearGradient>
			<polygon class="st6" points="727.01,422.07 710.38,422.07 684.24,345.17 756.9,340.76 			"/>
			<linearGradient id="SVGID_3_" gradientUnits="userSpaceOnUse" x1="720.6801" y1="353.5835" x2="717.7654" y2="191.8082">
				<stop  offset="0" style="stop-color:#FF928E"/>
				<stop  offset="1" style="stop-color:#FE7062"/>
			</linearGradient>
			<path class="st7" d="M640.01,202.3c-0.08,6.49-0.08,133.57,64.43,154.2c64.51,20.64,93.65-86.88,91.33-163.46L640.01,202.3z"/>
			<linearGradient id="SVGID_4_" gradientUnits="userSpaceOnUse" x1="719.6795" y1="423.8796" x2="713.5629" y2="524.0396">
				<stop  offset="0" style="stop-color:#FF928E"/>
				<stop  offset="1" style="stop-color:#FE7062"/>
			</linearGradient>
			<rect x="667.13" y="433.73" class="st8" width="103.13" height="12.52"/>
			<linearGradient id="SVGID_5_" gradientUnits="userSpaceOnUse" x1="718.6956" y1="246.5908" x2="718.6956" y2="385.0471">
				<stop  offset="0" style="stop-color:#FF928E"/>
				<stop  offset="1" style="stop-color:#FE7062"/>
			</linearGradient>
			<polygon class="st9" points="770.26,433.73 667.13,433.73 693.23,419.73 744.16,419.73 			"/>
			<linearGradient id="SVGID_6_" gradientUnits="userSpaceOnUse" x1="718.6505" y1="233.8344" x2="725.0743" y2="119.4902">
				<stop  offset="0" style="stop-color:#FF928E"/>
				<stop  offset="1" style="stop-color:#FE7062"/>
			</linearGradient>
			<path class="st10" d="M632.53,184.27c-5.66,0.34-10.29,4.54-10.29,9.32v9.77c0,4.78,4.64,8.44,10.3,8.14l176.79-9.51
				c5.67-0.3,10.3-4.46,10.3-9.24v-11.16c0-4.78-4.63-8.41-10.3-8.06L632.53,184.27z"/>
			<linearGradient id="SVGID_7_" gradientUnits="userSpaceOnUse" x1="735.0404" y1="353.7918" x2="944.4562" y2="230.4546">
				<stop  offset="0" style="stop-color:#FF928E"/>
				<stop  offset="1" style="stop-color:#FE7062"/>
			</linearGradient>
			<path class="st11" d="M750.12,366.6c-4.12,0-7.67-2.6-8.15-6.13c-0.51-3.79,2.72-7.22,7.23-7.66
				c0.86-0.09,60.19-6.35,65.81-38.82c0.95-5.47,0.84-12.63-5.04-15.61c-4.86-2.46-12.81-1.68-18.5,1.82
				c-3.23,1.99-6.77,5.48-5.27,10.79c1.05,3.72-1.67,7.45-6.09,8.33c-4.41,0.89-8.85-1.41-9.9-5.12
				c-2.73-9.62,1.59-19.03,11.55-25.17c11.07-6.82,26.15-7.85,36.68-2.51c6.16,3.12,16.01,11.1,12.83,29.46
				c-3.15,18.16-18.31,32.7-43.84,42.06c-18.34,6.72-35.63,8.44-36.36,8.51C750.74,366.59,750.43,366.6,750.12,366.6z"/>
			<linearGradient id="SVGID_8_" gradientUnits="userSpaceOnUse" x1="636.2147" y1="351.8751" x2="706.8765" y2="256.8027">
				<stop  offset="0" style="stop-color:#FF928E"/>
				<stop  offset="1" style="stop-color:#FE7062"/>
			</linearGradient>
			<path class="st12" d="M688.58,366.6c4.12,0,7.67-2.6,8.15-6.13c0.51-3.79-2.72-7.22-7.23-7.66c-0.86-0.09-60.19-6.35-65.81-38.82
				c-0.95-5.47-0.84-12.63,5.04-15.61c4.86-2.46,12.82-1.68,18.5,1.82c3.23,1.99,6.77,5.48,5.27,10.79
				c-1.05,3.72,1.67,7.45,6.09,8.33c4.41,0.89,8.85-1.41,9.9-5.12c2.73-9.62-1.59-19.03-11.55-25.17
				c-11.07-6.82-26.15-7.85-36.68-2.51c-6.16,3.12-16.01,11.1-12.83,29.46c3.14,18.16,18.31,32.7,43.84,42.06
				c18.34,6.72,35.63,8.44,36.36,8.51C687.96,366.59,688.27,366.6,688.58,366.6z"/>
			<path class="st13" d="M760.78,192.32c-0.71,0-1.3-0.56-1.34-1.27c-0.04-0.74,0.53-1.37,1.27-1.41l15.79-0.85
				c0.74-0.03,1.37,0.53,1.41,1.27c0.04,0.74-0.53,1.37-1.27,1.41l-15.79,0.85C760.82,192.32,760.8,192.32,760.78,192.32z"/>
			<path class="st13" d="M640,198.82c-0.71,0-1.3-0.56-1.34-1.27c-0.04-0.74,0.53-1.37,1.27-1.41l94.32-5.07
				c0.74-0.04,1.37,0.53,1.41,1.27c0.04,0.74-0.53,1.37-1.27,1.41l-94.32,5.07C640.05,198.82,640.03,198.82,640,198.82z"/>
			<path class="st13" d="M713.04,342.1c-0.05,0-0.1,0-0.16-0.01c-17.08-1.96-30.73-15.87-40.58-41.34
				c-8.13-21.03-11.97-45.64-13.76-62.58c-0.08-0.74,0.46-1.4,1.2-1.48c0.74-0.07,1.4,0.46,1.48,1.2
				c3.07,29.08,14.28,97.2,51.98,101.53c0.74,0.09,1.27,0.75,1.18,1.49C714.29,341.59,713.71,342.1,713.04,342.1z"/>
			<path class="st13" d="M658.73,226.08c-0.7,0-1.29-0.55-1.34-1.26c-0.25-3.88-0.32-6.11-0.32-6.2c-0.02-0.74,0.56-1.36,1.3-1.38
				c0.8-0.05,1.36,0.56,1.38,1.3c0,0.02,0.07,2.28,0.32,6.11c0.05,0.74-0.51,1.38-1.25,1.43
				C658.79,226.08,658.76,226.08,658.73,226.08z"/>
		</g>
		<linearGradient id="SVGID_9_" gradientUnits="userSpaceOnUse" x1="710.9048" y1="491.2865" x2="107.5516" y2="1412.71">
			<stop  offset="0" style="stop-color:#4F52FF"/>
			<stop  offset="1" style="stop-color:#4042E2"/>
		</linearGradient>
		<path class="st14" d="M690.6,936.62H350.95V641.2c0-26.87,21.79-48.66,48.66-48.66h242.33c26.87,0,48.66,21.79,48.66,48.66V936.62
			z"/>
		<path class="st5" d="M451.84,936.62H176.36c-9.49,0-17.19-7.7-17.19-17.19V736.21c0-26.11,21.17-47.28,47.28-47.28h198.1
			c26.11,0,47.28,21.17,47.28,47.28V936.62z"/>
		<g>
			
				<linearGradient id="SVGID_10_" gradientUnits="userSpaceOnUse" x1="-760.4094" y1="1011.8994" x2="-595.5312" y2="949.4112" gradientTransform="matrix(0.8056 -0.5925 0.5925 0.8056 275.1898 -598.7884)">
				<stop  offset="0" style="stop-color:#FEBBBA"/>
				<stop  offset="1" style="stop-color:#FF928E"/>
			</linearGradient>
			<path class="st15" d="M337.84,541.94c0.43,0.87-5.72,39.31-7.16,40.67c-0.89,0.84-2.21,0.94-3.43,1.04
				c-15.72,1.34-29.83,10.36-41.46,21.02c-11.63,10.66-21.47,23.16-33.17,33.75c-3.39,3.07-7.11,6.13-11.35,7.95
				c-5.16,2.21-8.45-0.06-12.8,0.63c-0.05,0.01-0.08,0.01-0.13,0.02c3.13,6.72,6.46,13.36,9.92,19.93c2.26-3.63,4.88-6.98,8.15-9.72
				c5.69-4.77,12.86-7.3,19.73-10.1c27.38-11.16,51.82-28.57,78.76-40.92c10.31-4.73,11.53-17.3,16.2-27
				c6.41-13.33,19.07-30.79,17.33-41.99C367.47,539.32,347.62,536.57,337.84,541.94z"/>
			
				<linearGradient id="SVGID_11_" gradientUnits="userSpaceOnUse" x1="1833.5089" y1="-2781.3381" x2="1823.004" y2="-2683.6812" gradientTransform="matrix(0.485 0.8745 -0.8606 0.4773 -3012.9502 382.017)">
				<stop  offset="0" style="stop-color:#09005D"/>
				<stop  offset="1" style="stop-color:#1A0F91"/>
			</linearGradient>
			<path class="st16" d="M227.38,645.94l-4.98,1.04c-1.34,0.28-2.42,1.26-2.82,2.57c-3.71,12.27-5.58,22.25-4.48,33.77
				c0.49,5.12,3.4,12.74,6.49,16.86c3.16,4.21,6.12,7.05,7.39,5.74l2.28-1.38c1.56-0.95,2.43-2.71,2.22-4.53L227.38,645.94z"/>
			
				<linearGradient id="SVGID_12_" gradientUnits="userSpaceOnUse" x1="1845.3938" y1="-2761.9697" x2="1801.5432" y2="-2666.1843" gradientTransform="matrix(0.485 0.8745 -0.8745 0.485 -3041.7495 397.9173)">
				<stop  offset="0" style="stop-color:#FF928E"/>
				<stop  offset="1" style="stop-color:#FE7062"/>
			</linearGradient>
			<path class="st17" d="M235.89,647.31l-8.51-1.37c-1.58-0.25-2.39,0.94-3.25,2.28c-4.01,6.19-6.22,19.82-5.59,35.87
				c0.17,4.35,0.17,8.09,2.71,11.62c7.05,9.77,9.72,10.03,12.25,7.46l10.19-43.34C239.12,656.92,235.98,652.3,235.89,647.31z"/>
			<linearGradient id="SVGID_13_" gradientUnits="userSpaceOnUse" x1="385.5407" y1="470.1903" x2="260.2013" y2="707.7518">
				<stop  offset="0" style="stop-color:#09005D"/>
				<stop  offset="1" style="stop-color:#1A0F91"/>
			</linearGradient>
			<path class="st18" d="M385.8,485.7c-7.59-3.01-16.48-4.43-24.38-1.77c-8.79,2.97-10.82,12.16-13.41,20.28
				c-3.96,12.41-7.34,25.01-10.17,37.72c0,0-0.01,0-0.01,0c0,0,0,0.02,0,0.02c-0.15,0.66-4.79,26.62-4.8,28.8
				c0.13,0.01,0.26,0.01,0.39,0.02c-1.17,6.35-2.25,11.35-2.76,11.83c-0.89,0.84-5.68-1.41-6.89-1.31
				c-15.72,1.34-26.36,12.71-38,23.37c-4.9,4.49-9.48,9.31-14.01,14.17c0.72,8.38,4.15,15.32,14.4,18.94
				c19.71-10.19,38.52-22.31,58.74-31.58c10.31-4.73,11.53-17.3,16.2-27c0.39-0.81,0.81-1.64,1.24-2.49
				c0.08,0.04,4.26-7.52,6.22-11.36c2.88-5.18,9.49-19.26,10.4-21.21c4.56-9.73,8.89-19.57,13.03-29.49
				C397.49,501.52,402.8,492.44,385.8,485.7z"/>
			<linearGradient id="SVGID_14_" gradientUnits="userSpaceOnUse" x1="348.2154" y1="129.2416" x2="320.0226" y2="391.3297">
				<stop  offset="0" style="stop-color:#09005D"/>
				<stop  offset="1" style="stop-color:#1A0F91"/>
			</linearGradient>
			<path class="st19" d="M372.16,261.1c0,0-29.5-22.78-48.56,11.12c-19.06,33.9-27.13,44.05-32.77,34.97
				c-0.29,2.08-0.43,5.5,1.22,8.7c3.14,6.1,10.52,7.07,14.39,7.58c11.2,1.47,21.53-2.19,23.79-5.12
				C362.78,276.35,371.98,274.89,372.16,261.1z"/>
			
				<linearGradient id="SVGID_15_" gradientUnits="userSpaceOnUse" x1="369.5486" y1="417.7892" x2="142.0506" y2="434.3344" gradientTransform="matrix(0.9973 -0.0737 0.0737 0.9973 212.864 -52.3689)">
				<stop  offset="0" style="stop-color:#FEBBBA"/>
				<stop  offset="1" style="stop-color:#FF928E"/>
			</linearGradient>
			<path class="st20" d="M505.91,362.28c16.69-4.34,32.15-17.49,41.83-31.8c1.11-1.64,2.38-3.47,4.3-3.84
				c1.97-0.38,3.86,0.94,5.44,2.22c3.07,2.5,11.4,7.56,8.81,12.79c-1.69,3.41-10.45,6.94-13.6,9.16c1.76-1.24,1.59-5.93,1.01-7.6
				c-0.89,1.46-1.77,3.24-3.03,4.51c-1.29,1.3-2.94,2.16-4.56,3c-3.64,1.88-6.04,4.1-9.29,6.42c-7.31,7.16-14.39,14.84-23.42,19.77
				c-7.6,4.15-16.15,6.1-24.65,7.6c-3.6,0.64-7.27,1.21-10.92,0.85c-3.35-0.33-6.59-1.44-9.79-2.54
				c-9.65-3.31-19.37-7.02-27.84-12.94c-4.04-2.82-7.76-6.14-10.88-10.01c-3.41-4.22-7.2-10.07-7.59-15.67
				c-0.34-4.91,1.39-11.5,7.13-7.96c12.61,7.78,23.46,18.04,37.35,23.19C478.91,364.14,492.78,365.69,505.91,362.28z"/>
			<linearGradient id="SVGID_16_" gradientUnits="userSpaceOnUse" x1="312.157" y1="470.5349" x2="437.6704" y2="255.3688">
				<stop  offset="0" style="stop-color:#FEBBBA"/>
				<stop  offset="1" style="stop-color:#FF928E"/>
			</linearGradient>
			<path class="st21" d="M361.69,366.98c-2.39,0.19-4.77,0.39-7.12,0.58c-9.41,0.76-16.27,6.45-22.82,12.93
				c-3.36,3.32-6.48,6.89-9.3,10.67c-9.53,12.77-15.1,28.98-12.97,44.77c1.09,8.05,4.09,15.7,7.18,23.21
				c1.96,4.76,4.01,9.6,7.39,13.48c4.04,4.65,9.74,7.66,13.6,12.47c0.69,0.86,1.35,1.89,1.2,2.98c-0.15,1.13-1.1,1.96-1.99,2.68
				c-3.44,2.78-6.88,5.55-10.32,8.33c-0.47,0.38-0.98,0.77-1.58,0.81c-0.94,0.06-1.67-0.76-2.23-1.51
				c-2.81-3.77-6.69-8.94-7.36-13.67c1.51-0.41,5.08,2.92,6.05,1.19c-5.48-12.05-16.39-20.92-22.14-32.85
				c-3.71-7.7-5.08-16.3-6.14-24.78c-1.05-8.41-1.83-17.08,0.37-25.27c1.07-3.99,2.83-7.76,4.71-11.45
				c10.25-20.13,24.76-38.69,43.26-51.85c13.62-9.69,28.14-15.26,44.71-15.75c6.66-0.2,13.41-0.38,19.88,1.2
				c6.25,1.53,10.84,4.14,16.49,7.18c7.39,3.98,16.21,10.22,20.15,17.74c-9.31,1.6-8.92,6.09-14.71,10.26
				c-2.63,1.9-5.93,2.58-9.12,3.16c-10.26,1.86-21.72,4.29-32.09,3.2C378.62,365.82,370.07,366.32,361.69,366.98z"/>
			<linearGradient id="SVGID_17_" gradientUnits="userSpaceOnUse" x1="517.1811" y1="348.1184" x2="361.2354" y2="483.6599">
				<stop  offset="0" style="stop-color:#09005D"/>
				<stop  offset="1" style="stop-color:#1A0F91"/>
			</linearGradient>
			<path class="st22" d="M369.13,434.08c-3.27,6.73-21.55,35.92-22.35,40.72c-0.8,4.81,2.14,11.72,6.28,15.24
				c3.15,2.68,30.95,9.15,41.91,6.29c8.27-2.16,21.6-35.77,19.87-48.73c-0.32-2.38-0.36-4.76-0.2-7.15
				C398.69,439.76,385.2,436.82,369.13,434.08z"/>
			<linearGradient id="SVGID_18_" gradientUnits="userSpaceOnUse" x1="503.6927" y1="518.3766" x2="597.5399" y2="637.3194">
				<stop  offset="0" style="stop-color:#FEBBBA"/>
				<stop  offset="1" style="stop-color:#FF928E"/>
			</linearGradient>
			<path class="st23" d="M544.55,573.11c-0.27-0.22-0.53-0.45-0.79-0.67c-8.94-7.02-9.77-15.6-12.22-25.87
				c-2.74-11.5-5.61-22.97-8.6-34.41c-0.17-0.66-0.35-1.31-0.52-1.97c-6.74,2.29-14.5,3.04-22.02,3.28
				c3.17,6.7,14.47,35.78,18.05,42.9c2.52,5.01,7.64,17.69,6.4,20.69C524.57,577.68,537.08,576.03,544.55,573.11z"/>
			<linearGradient id="SVGID_19_" gradientUnits="userSpaceOnUse" x1="524.6781" y1="211.2396" x2="448.8875" y2="306.4638">
				<stop  offset="0" style="stop-color:#FF928E"/>
				<stop  offset="1" style="stop-color:#FE7062"/>
			</linearGradient>
			<path class="st24" d="M356.04,331.15c7.18-4.57,8.04,11.18,5.65,35.83l7.65,68.5c9.45,7.84,34.86,11.9,45.3,5.98
				c4.97-29.61,21.23-68.77,18.2-77.69c-5.2-9.73-6.73-19.77-6.37-29.2c-2.84-3.78-11.73-6.46-20.37-9.42l-19.88-1.2
				C376.99,323.82,368.45,323.94,356.04,331.15z"/>
			<g>
				
					<linearGradient id="SVGID_20_" gradientUnits="userSpaceOnUse" x1="-2874.5044" y1="429.6755" x2="-2883.3992" y2="372.6008" gradientTransform="matrix(-0.9973 0.0737 0.0737 0.9973 -2504.0613 147.9276)">
					<stop  offset="0" style="stop-color:#FEBBBA"/>
					<stop  offset="1" style="stop-color:#FF928E"/>
				</linearGradient>
				<path class="st25" d="M413.56,300.81c-0.2,0.9-8.52,29.44-9,29.93c-0.48,0.49-14.44,2.28-21.36-1.74l13.99-33.2L413.56,300.81z"
					/>
				
					<linearGradient id="SVGID_21_" gradientUnits="userSpaceOnUse" x1="-4430.106" y1="-387.1165" x2="-4370.1636" y2="-346.401" gradientTransform="matrix(-0.9999 0.0171 0.0171 0.9999 -3995.5364 732.2579)">
					<stop  offset="0" style="stop-color:#FEBBBA"/>
					<stop  offset="1" style="stop-color:#FF928E"/>
				</linearGradient>
				<path class="st26" d="M407.47,255.08c0,0,12.43,5,21.13,22.69c8.7,17.69,2.57,26.03-5.28,27.3
					c-7.85,1.27-19.63,1.29-32.28-10.01C378.39,283.75,391.32,249.18,407.47,255.08z"/>
				
					<linearGradient id="SVGID_22_" gradientUnits="userSpaceOnUse" x1="3677.2871" y1="-428.4275" x2="3529.1575" y2="-250.9471" gradientTransform="matrix(0.9999 -0.0171 0.0171 0.9999 -3246.0654 719.1371)">
					<stop  offset="0" style="stop-color:#09005D"/>
					<stop  offset="1" style="stop-color:#1A0F91"/>
				</linearGradient>
				<path class="st27" d="M399.25,285.39c0,0-9.76-25.93,13.37-26.64l5.51,3.71c0,0,3.01-10.95-11.04-17.62
					c-14.05-6.67-29.5-3.82-35.11,15.05c-5.61,18.87-1.93,30.93,8.09,39.74c10.02,8.81,15.18-0.95,15.18-0.95s-6.79-8.8-4.68-13.33
					c2.11-4.53,6.86,2.31,6.86,2.31L399.25,285.39z"/>
			</g>
			<linearGradient id="SVGID_23_" gradientUnits="userSpaceOnUse" x1="553.9263" y1="390.3945" x2="397.9805" y2="525.936">
				<stop  offset="0" style="stop-color:#09005D"/>
				<stop  offset="1" style="stop-color:#1A0F91"/>
			</linearGradient>
			<path class="st28" d="M522.93,512.15c-3.69-14.12-7.57-28.2-11.63-42.22c-2.49-8.58-3.07-17.98-7.55-25.89
				c-6.83-12.06-25.72-11.05-42.23-7.91c-19.19,2.07-35.44,2.87-54.69,4.97c-18.78,2.04-38.42,4.48-52.21,18.87
				c-5.96,6.22-9.67,15.34-7.17,23.59c2.43,8.06,10.25,13.56,18.42,15.59c12.61,3.15,27.69,0.94,39.96-2.8
				c25.1-7.65,52.81-22.95,75.69-35.02c-0.26,10.26-2.21,18.72,2.59,28.23c6.31,12.52,15.95,25.68,21.66,38.49
				c6.34-1.63,13.12-5.62,19.09-8.46C524.2,517.11,523.58,514.63,522.93,512.15z M481.35,460.25c0.06,0,0.12,0,0.18,0.01
				c-0.01,0.19-0.01,0.37-0.01,0.55C481.46,460.61,481.4,460.43,481.35,460.25z"/>
			
				<linearGradient id="SVGID_24_" gradientUnits="userSpaceOnUse" x1="-800.5546" y1="873.7949" x2="-811.4163" y2="974.7681" gradientTransform="matrix(0.6541 -0.7564 0.7564 0.6541 383.0567 -639.3367)">
				<stop  offset="0" style="stop-color:#09005D"/>
				<stop  offset="1" style="stop-color:#1A0F91"/>
			</linearGradient>
			<path class="st29" d="M524.98,583.01l2.75,4.37c0.74,1.18,2.06,1.87,3.44,1.8c12.75-0.64,24.96-2.22,35.32-7.03
				c2.95-1.37,5.48-3.49,7.48-6.05c5.09-6.51,9.53-13.86,7.1-14.95l-4.49-3.59L524.98,583.01z"/>
			
				<linearGradient id="SVGID_25_" gradientUnits="userSpaceOnUse" x1="-792.7303" y1="891.9071" x2="-837.3669" y2="989.4095" gradientTransform="matrix(0.6541 -0.7564 0.7564 0.6541 383.0567 -639.3367)">
				<stop  offset="0" style="stop-color:#FF928E"/>
				<stop  offset="1" style="stop-color:#FE7062"/>
			</linearGradient>
			<path class="st30" d="M523.33,574.55l1.65,8.46c0.31,1.57,1.5,2.81,3.06,3.16c7.19,1.64,21.03,0.63,35.88-5.48
				c4.02-1.66,7.46-4.49,9.9-8.1c6.74-9.98,6.07-13.53,2.78-15.02l-40.37,5.52C535.07,568.36,527.98,572.74,523.33,574.55z"/>
			<linearGradient id="SVGID_26_" gradientUnits="userSpaceOnUse" x1="541.277" y1="224.4506" x2="465.4866" y2="319.6745">
				<stop  offset="0" style="stop-color:#FF928E"/>
				<stop  offset="1" style="stop-color:#FE7062"/>
			</linearGradient>
			<path class="st31" d="M426.47,334.56c-2.11,10.22,0.42,21.06,6.37,32.36l14.25,10c4.1-11.56,6.58-22.3,3-29.99L426.47,334.56z"/>
			<linearGradient id="SVGID_27_" gradientUnits="userSpaceOnUse" x1="486.9877" y1="181.2406" x2="411.1974" y2="276.4644">
				<stop  offset="0" style="stop-color:#FF928E"/>
				<stop  offset="1" style="stop-color:#FE7062"/>
			</linearGradient>
			<path class="st32" d="M335.56,341.93c-2.82,9.64,2.27,20.51,9.22,31.66l17.92-6.61c4.96-17.28,5.62-31.06-2.9-37.35
				L335.56,341.93z"/>
		</g>
	</g>
</g>
</svg>
