<?xml version="1.0" encoding="utf-8"?>
<!-- Generator: Adobe Illustrator 25.0.0, SVG Export Plug-In . SVG Version: 6.00 Build 0)  -->
<svg version="1.1" id="Warstwa_1" xmlns="http://www.w3.org/2000/svg" xmlns:xlink="http://www.w3.org/1999/xlink" x="0px" y="0px"
	 viewBox="0 0 1080 1080" style="enable-background:new 0 0 1080 1080;" xml:space="preserve">
<style type="text/css">
	.st0{opacity:0.3;fill:url(#SVGID_1_);}
	.st1{fill:url(#SVGID_2_);}
	.st2{opacity:0.43;fill:#FFFFFF;}
	.st3{fill:url(#SVGID_3_);}
	.st4{fill:url(#SVGID_4_);}
	.st5{fill:url(#SVGID_5_);}
	.st6{fill:url(#SVGID_6_);}
	.st7{fill:url(#SVGID_7_);}
	.st8{fill:#FFFFFF;}
	.st9{fill:url(#SVGID_8_);}
	.st10{fill:url(#SVGID_9_);}
	.st11{fill:url(#SVGID_10_);}
	.st12{fill:url(#SVGID_11_);}
	.st13{fill:url(#SVGID_12_);}
	.st14{fill:url(#SVGID_13_);}
	.st15{fill:url(#SVGID_14_);}
	.st16{fill:url(#SVGID_15_);}
	.st17{fill:url(#SVGID_16_);}
	.st18{fill:url(#SVGID_17_);}
	.st19{fill:url(#SVGID_18_);}
	.st20{fill:url(#SVGID_19_);}
	.st21{fill:url(#SVGID_20_);}
	.st22{fill:url(#SVGID_21_);}
	.st23{fill:url(#SVGID_22_);}
	.st24{fill:url(#SVGID_23_);}
	.st25{fill:url(#SVGID_24_);}
	.st26{fill:url(#SVGID_25_);}
	.st27{fill:url(#SVGID_26_);}
	.st28{fill:url(#SVGID_27_);}
	.st29{fill:url(#SVGID_28_);}
	.st30{fill:url(#SVGID_29_);}
	.st31{fill:url(#SVGID_30_);}
</style>
<g>
	<g>
		<linearGradient id="SVGID_1_" gradientUnits="userSpaceOnUse" x1="973.522" y1="1026.7562" x2="397.2648" y2="404.7643">
			<stop  offset="0" style="stop-color:#B37CFF"/>
			<stop  offset="1" style="stop-color:#F895E7"/>
		</linearGradient>
		<path class="st0" d="M893.22,672.31c-79.18,185.08-288.2,264.57-451.96,251.02c-44.71-3.7-134.68-11.15-204.93-77.58
			c-134.9-127.58-114.13-394.24,15.01-551.24c16.63-20.22,131.75-155.68,311.14-153.87c131.34,1.33,223.52,75.52,234.73,84.76
			c14.16,11.68,45.39,39.42,73.54,83.44C936.88,412.27,942.7,556.65,893.22,672.31z"/>
		<g>
			<g>
				
					<linearGradient id="SVGID_2_" gradientUnits="userSpaceOnUse" x1="1286.1974" y1="391.5122" x2="1650.5272" y2="141.1359" gradientTransform="matrix(0.2342 -0.9722 0.9722 0.2342 181.6274 2009.8123)">
					<stop  offset="0" style="stop-color:#CB236D"/>
					<stop  offset="1" style="stop-color:#4C246D"/>
				</linearGradient>
				<path class="st1" d="M764.43,861.79c0,0-60.56-186.31-43.86-280.69c14.9-84.23,43.83-201.36,49.88-225.59
					c0.41-1.66,2.64-1.96,3.48-0.48c13.79,24.33,81.63,156.67,30.74,324.26C748.24,865.1,764.43,861.79,764.43,861.79z"/>
				<path class="st2" d="M780.45,415.83c0.56,27.78-0.22,55.53-1.75,83.25c-1.55,27.72-4.07,55.38-7.62,82.92
					c-1.81,13.77-3.92,27.49-6.3,41.18c-2.43,13.67-5.22,27.29-8.33,40.83c-3.22,13.52-6.79,26.96-10.84,40.26
					c-4.16,13.27-8.78,26.4-14.03,39.3c-0.31,0.77-1.2,1.15-1.97,0.83c-0.77-0.31-1.15-1.2-0.83-1.97l0-0.01l0.01-0.01
					c5.26-12.78,9.92-25.8,14.11-38.98c4.09-13.21,7.7-26.57,10.97-40.03c3.15-13.48,5.99-27.03,8.47-40.66
					c2.43-13.63,4.59-27.32,6.46-41.04c3.66-27.46,6.31-55.07,7.97-82.73c1.65-27.66,2.55-55.4,2.11-83.09l0-0.02
					c-0.01-0.44,0.34-0.79,0.78-0.8C780.08,415.05,780.44,415.39,780.45,415.83z"/>
			</g>
			<g>
				
					<linearGradient id="SVGID_3_" gradientUnits="userSpaceOnUse" x1="1627.6021" y1="1685.9611" x2="1991.9281" y2="1435.5873" gradientTransform="matrix(0.5728 -0.8197 0.8197 0.5728 -1467.6071 1296.7386)">
					<stop  offset="0" style="stop-color:#A737D5"/>
					<stop  offset="1" style="stop-color:#EF497A"/>
				</linearGradient>
				<path class="st3" d="M750.52,902.15c0,0,11.61-195.56,61.6-277.34c44.61-72.98,114.29-171.48,128.76-191.83
					c0.99-1.39,3.18-0.87,3.42,0.83c3.96,27.68,18.83,175.65-89.72,313.12C734.24,899.33,750.52,902.15,750.52,902.15z"/>
				<path class="st2" d="M928.18,492.8c-9.62,26.06-20.47,51.62-32.01,76.87c-11.55,25.24-24,50.07-37.36,74.42
					c-6.71,12.16-13.68,24.17-20.89,36.04c-7.26,11.84-14.82,23.5-22.65,34.98c-7.93,11.41-16.16,22.62-24.79,33.53
					c-8.71,10.84-17.81,21.37-27.4,31.47c-0.58,0.61-1.53,0.63-2.14,0.05c-0.61-0.58-0.63-1.53-0.05-2.14l0,0l0.01-0.01
					c9.56-9.98,18.65-20.4,27.36-31.15c8.63-10.81,16.87-21.93,24.82-33.26c7.85-11.4,15.44-22.98,22.73-34.76
					c7.24-11.81,14.24-23.76,20.99-35.86c13.43-24.23,25.97-48.97,37.61-74.12c11.63-25.15,22.59-50.65,32.29-76.59l0.01-0.02
					c0.15-0.41,0.61-0.62,1.02-0.46C928.12,491.94,928.33,492.39,928.18,492.8z"/>
			</g>
		</g>
		<g>
			<g>
				
					<linearGradient id="SVGID_4_" gradientUnits="userSpaceOnUse" x1="-1712.1473" y1="2756.6763" x2="-1460.3823" y2="2756.6763" gradientTransform="matrix(-0.1683 -1.306 0.9918 -0.1278 -2679.3074 -1099.8287)">
					<stop  offset="0" style="stop-color:#A737D5"/>
					<stop  offset="1" style="stop-color:#EF497A"/>
				</linearGradient>
				<path class="st4" d="M133.09,405.08c18.05,51.83,132.23,348.72,358.01,278.35c0,0-37.87-217.2-354.43-284.67
					C133.91,398.16,131.91,401.69,133.09,405.08z"/>
				<path class="st2" d="M171.67,434.02c9.67,13.18,19.85,26.01,30.23,38.65c10.4,12.63,21.08,25.03,32.03,37.19
					c21.9,24.31,44.86,47.68,69.18,69.55c24.33,21.83,50.01,42.25,77.65,59.65c6.92,4.32,13.94,8.49,21.12,12.36
					c7.18,3.87,14.48,7.49,21.92,10.81c14.89,6.6,30.37,11.89,46.29,15.15l0.01,0c0.82,0.17,1.35,0.97,1.18,1.79
					c-0.17,0.82-0.97,1.35-1.79,1.18l-0.01,0c-16.17-3.38-31.82-8.82-46.83-15.55c-7.5-3.39-14.85-7.08-22.07-11.01
					c-7.22-3.94-14.26-8.16-21.21-12.54c-27.74-17.63-53.42-38.24-77.71-60.24c-24.29-22.04-47.19-45.55-69.01-70
					c-10.91-12.23-21.55-24.7-31.91-37.39c-10.34-12.71-20.47-25.58-30.12-38.85c-0.21-0.29-0.14-0.69,0.14-0.9
					C171.06,433.66,171.46,433.73,171.67,434.02L171.67,434.02z"/>
			</g>
			<g>
				
					<linearGradient id="SVGID_5_" gradientUnits="userSpaceOnUse" x1="-410.2659" y1="360.0477" x2="-161.8251" y2="360.0477" gradientTransform="matrix(-0.9989 0.0502 0.0502 0.9989 50.6051 63.6192)">
					<stop  offset="0" style="stop-color:#A737D5"/>
					<stop  offset="1" style="stop-color:#EF497A"/>
				</linearGradient>
				<path class="st5" d="M303.78,137.04c0.7-4.61,5-3.71,8.66-0.82C512.76,294.52,591.6,591.72,539.8,677.07
					C539.8,677.07,227.65,639.42,303.78,137.04z"/>
				<path class="st2" d="M317.44,198.27c0.2,1.12,0.5,2.37,0.77,3.57l0.87,3.63l1.83,7.24c1.25,4.82,2.54,9.62,3.85,14.42
					c2.65,9.59,5.41,19.16,8.27,28.69c5.69,19.08,11.73,38.04,18.14,56.89c12.89,37.66,26.96,74.92,42.91,111.38
					c8.04,18.19,16.27,36.31,25.2,54.09c1.08,2.24,2.21,4.45,3.36,6.66l3.42,6.63l3.42,6.63c1.16,2.2,2.37,4.37,3.55,6.56
					c2.39,4.36,4.72,8.75,7.17,13.08l7.42,12.94c0.62,1.08,1.22,2.17,1.86,3.23l1.93,3.19l3.86,6.38l3.86,6.38
					c1.31,2.11,2.68,4.18,4.02,6.28l4.04,6.27c1.36,2.08,2.65,4.21,4.09,6.24l8.45,12.29c11.47,16.24,23.73,31.93,36.86,46.88l0,0
					c0.18,0.2,0.16,0.52-0.05,0.69c-0.2,0.18-0.51,0.16-0.69-0.04c-13.52-14.67-26.01-30.26-37.79-46.36l-8.61-12.24
					c-1.47-2.02-2.78-4.14-4.17-6.21l-4.11-6.25c-1.36-2.09-2.76-4.16-4.1-6.26l-3.94-6.36l-3.94-6.36l-1.97-3.18
					c-0.65-1.06-1.26-2.15-1.9-3.22c-20.29-34.37-38.1-70.15-53.99-106.73l-5.89-13.75l-5.68-13.84c-1.93-4.6-3.69-9.26-5.54-13.89
					l-2.74-6.96l-2.65-6.99c-7.1-18.63-13.81-37.41-20.03-56.35c-6.24-18.93-12.19-37.96-17.63-57.14
					c-2.71-9.59-5.33-19.21-7.83-28.85c-1.24-4.83-2.46-9.66-3.63-14.5l-1.72-7.28l-0.82-3.65c-0.25-1.24-0.53-2.41-0.73-3.75
					c-0.04-0.27,0.14-0.52,0.41-0.56c0.26-0.04,0.51,0.14,0.55,0.4L317.44,198.27z"/>
			</g>
		</g>
		<g>
			<g>
				<g>
					
						<linearGradient id="SVGID_6_" gradientUnits="userSpaceOnUse" x1="8763.9014" y1="812.4715" x2="8234.8203" y2="1155.4484" gradientTransform="matrix(-1 0 0 1 9232.3076 0)">
						<stop  offset="0" style="stop-color:#53D8FF"/>
						<stop  offset="1" style="stop-color:#3840F7"/>
					</linearGradient>
					<path class="st6" d="M262.43,921.65l572.15,0V807.14l-572.15,0C274.68,807.14,274.68,921.65,262.43,921.65z"/>
					<linearGradient id="SVGID_7_" gradientUnits="userSpaceOnUse" x1="526.3893" y1="895.1836" x2="956.5015" y2="398.4349">
						<stop  offset="0" style="stop-color:#CB236D"/>
						<stop  offset="1" style="stop-color:#4C246D"/>
					</linearGradient>
					<path class="st7" d="M834.58,893v-52.41c0-18.47-11.31-33.45-25.25-33.45H264.84c-10.97,0-19.86-8.89-19.86-19.86v0
						c0-3.33,2.7-6.03,6.03-6.03H846.1c13.65,0,35.31,21.46,35.31,47.92v73.19c0,24.96-21.03,45.19-33.9,45.19H254.15
						c-5.06,0-9.16-4.1-9.16-9.16c0-9.24,7.49-16.73,16.73-16.73h551.24C824.9,921.65,834.58,908.82,834.58,893z"/>
				</g>
				<path class="st8" d="M818.71,831.62H282.24c-0.54,0-0.98-0.44-0.98-0.98c0-0.54,0.44-0.98,0.98-0.98h536.47
					c0.54,0,0.98,0.44,0.98,0.98C819.7,831.18,819.26,831.62,818.71,831.62z"/>
				<path class="st8" d="M818.71,848.62H282.24c-0.54,0-0.98-0.44-0.98-0.98c0-0.54,0.44-0.98,0.98-0.98h536.47
					c0.54,0,0.98,0.44,0.98,0.98C819.7,848.18,819.26,848.62,818.71,848.62z"/>
				<path class="st8" d="M818.71,865.62H282.24c-0.54,0-0.98-0.44-0.98-0.98s0.44-0.98,0.98-0.98h536.47c0.54,0,0.98,0.44,0.98,0.98
					S819.26,865.62,818.71,865.62z"/>
				<path class="st8" d="M818.71,882.61H282.24c-0.54,0-0.98-0.44-0.98-0.98c0-0.54,0.44-0.98,0.98-0.98h536.47
					c0.54,0,0.98,0.44,0.98,0.98C819.7,882.17,819.26,882.61,818.71,882.61z"/>
				<path class="st8" d="M818.71,899.61H282.24c-0.54,0-0.98-0.44-0.98-0.98c0-0.54,0.44-0.98,0.98-0.98h536.47
					c0.54,0,0.98,0.44,0.98,0.98C819.7,899.17,819.26,899.61,818.71,899.61z"/>
			</g>
			<g>
				<linearGradient id="SVGID_8_" gradientUnits="userSpaceOnUse" x1="867.5504" y1="178.2312" x2="573.6226" y2="723.6649">
					<stop  offset="0" style="stop-color:#53D8FF"/>
					<stop  offset="1" style="stop-color:#3840F7"/>
				</linearGradient>
				<path class="st9" d="M339.04,780.72h474.64c11.1,0,20.1-9,20.1-20.09v-84.08c0-11.1-9-20.1-20.1-20.1H339.04
					c-11.1,0-20.1,9-20.1,20.1v84.08C318.94,771.73,327.94,780.72,339.04,780.72z"/>
				<linearGradient id="SVGID_9_" gradientUnits="userSpaceOnUse" x1="988.1855" y1="419.4846" x2="491.1723" y2="1031.6593">
					<stop  offset="0" style="stop-color:#53D8FF"/>
					<stop  offset="1" style="stop-color:#3840F7"/>
				</linearGradient>
				<path class="st10" d="M722.35,766.44h46c4,0,7.24-3.24,7.24-7.24v-81.22c0-4-3.24-7.24-7.24-7.24h-46c-4,0-7.24,3.24-7.24,7.24
					v81.22C715.11,763.2,718.35,766.44,722.35,766.44z"/>
				<linearGradient id="SVGID_10_" gradientUnits="userSpaceOnUse" x1="957.7179" y1="394.832" x2="460.8021" y2="1006.8867">
					<stop  offset="0" style="stop-color:#53D8FF"/>
					<stop  offset="1" style="stop-color:#3840F7"/>
				</linearGradient>
				<path class="st11" d="M687.19,766.44h15.35c2.03,0,3.67-1.64,3.67-3.67v-88.37c0-2.03-1.64-3.67-3.67-3.67h-15.35
					c-2.03,0-3.67,1.64-3.67,3.67v88.37C683.52,764.8,685.16,766.44,687.19,766.44z"/>
			</g>
			<g>
				<linearGradient id="SVGID_11_" gradientUnits="userSpaceOnUse" x1="596.7504" y1="378.5851" x2="542.219" y2="1117.7882">
					<stop  offset="0" style="stop-color:#53D8FF"/>
					<stop  offset="1" style="stop-color:#3840F7"/>
				</linearGradient>
				<path class="st12" d="M302.34,657.11h555.71c11.1,0,20.1-9,20.1-20.1v-68.04c0-11.1-9-20.1-20.1-20.1H302.34
					c-11.1,0-20.1,9-20.1,20.1v68.04C282.24,648.11,291.24,657.11,302.34,657.11z"/>
				<linearGradient id="SVGID_12_" gradientUnits="userSpaceOnUse" x1="977.7625" y1="242.7012" x2="592.8762" y2="933.6776">
					<stop  offset="0" style="stop-color:#53D8FF"/>
					<stop  offset="1" style="stop-color:#3840F7"/>
				</linearGradient>
				<path class="st13" d="M748.04,641.72h55.52c4,0,7.24-3.24,7.24-7.24v-58.4c0-4-3.24-7.24-7.24-7.24h-55.52
					c-4,0-7.24,3.24-7.24,7.24v58.4C740.8,638.48,744.04,641.72,748.04,641.72z"/>
				<linearGradient id="SVGID_13_" gradientUnits="userSpaceOnUse" x1="935.4427" y1="219.2115" x2="550.631" y2="910.0536">
					<stop  offset="0" style="stop-color:#53D8FF"/>
					<stop  offset="1" style="stop-color:#3840F7"/>
				</linearGradient>
				<path class="st14" d="M710.93,641.72h18.93c2.03,0,3.67-1.64,3.67-3.67v-65.54c0-2.03-1.64-3.67-3.67-3.67h-18.93
					c-2.03,0-3.67,1.64-3.67,3.67v65.54C707.26,640.08,708.9,641.72,710.93,641.72z"/>
				<linearGradient id="SVGID_14_" gradientUnits="userSpaceOnUse" x1="1016.0592" y1="264.1304" x2="631.2432" y2="954.9804">
					<stop  offset="0" style="stop-color:#53D8FF"/>
					<stop  offset="1" style="stop-color:#3840F7"/>
				</linearGradient>
				<path class="st15" d="M821.51,638.74h12.36c2.03,0,3.67-1.64,3.67-3.67v-65.54c0-2.03-1.64-3.67-3.67-3.67h-12.36
					c-2.03,0-3.67,1.64-3.67,3.67v65.54C817.84,637.1,819.49,638.74,821.51,638.74z"/>
			</g>
		</g>
		<g>
			
				<linearGradient id="SVGID_15_" gradientUnits="userSpaceOnUse" x1="17049.5508" y1="522.5797" x2="16868.2285" y2="626.076" gradientTransform="matrix(-1 0 0 1 17317.5723 0)">
				<stop  offset="0" style="stop-color:#F9B776"/>
				<stop  offset="1" style="stop-color:#F47960"/>
			</linearGradient>
			<path class="st16" d="M295.59,691.3c0.21-0.08,115.22-201.49,130.77-220.45c2.61-3.19,6.66-4.81,10.76-4.32l32.1,3.83
				l37.71,81.59l-62.83-36.59c6.22,43-74.49,106.89-102.17,130.21c-2.81,2.37-3.04,6.6-0.5,9.26l11.05,11.57
				c-18.14,18.39-39.08,30.2-62.71,35.66L295.59,691.3z"/>
			
				<linearGradient id="SVGID_16_" gradientUnits="userSpaceOnUse" x1="-9335.5166" y1="-5503.4756" x2="-9349.4365" y2="-5290.0439" gradientTransform="matrix(0.8974 -0.4412 0.4412 0.8974 11097.5527 1446.0511)">
				<stop  offset="0" style="stop-color:#2B3582"/>
				<stop  offset="1" style="stop-color:#150E42"/>
			</linearGradient>
			<path class="st17" d="M346.08,660.15c0,0,7.05,2.28,9.44,8.56c1.14,3.01-0.09,6.41-2.7,8.28c-11.61,8.32-49.92,35.18-67.6,40.44
				c-1.45,0.43-2.83-0.88-2.5-2.36c0.91-4.11,3.84-12.31,13.3-24.31l-0.85,1.72c-1.07,2.17,1.29,4.43,3.4,3.24
				C310.39,689.05,334.47,674.44,346.08,660.15z"/>
			
				<linearGradient id="SVGID_17_" gradientUnits="userSpaceOnUse" x1="17032.0098" y1="548.3907" x2="17652.4043" y2="160.0136" gradientTransform="matrix(-1 0 0 1 17317.5723 0)">
				<stop  offset="0" style="stop-color:#F9B776"/>
				<stop  offset="1" style="stop-color:#F47960"/>
			</linearGradient>
			<path class="st18" d="M340.39,740.74c0.19-0.12,17.45-41.7,17.64-41.82c15.82-96.33,54.42-178.82,65.81-200.53
				c1.92-3.65,5.55-6.06,9.66-6.41l32.21-2.75l53.44,72.27l-68.93-23.12c14.79,40.85-51.32,119.76-73.71,148.19
				c-2.27,2.89-1.64,7.08,1.38,9.17l13.16,9.09c-14.05,21.68-32.16,37.48-54.19,47.61L340.39,740.74z"/>
			
				<linearGradient id="SVGID_18_" gradientUnits="userSpaceOnUse" x1="-7710.2515" y1="-7804.2129" x2="-7724.1699" y2="-7590.7954" gradientTransform="matrix(0.7895 -0.6137 0.6137 0.7895 11200.0908 2107.2788)">
				<stop  offset="0" style="stop-color:#2B3582"/>
				<stop  offset="1" style="stop-color:#150E42"/>
			</linearGradient>
			<path class="st19" d="M383.53,700.01c0,0,7.37,0.8,10.98,6.47c1.73,2.71,1.21,6.29-0.97,8.66c-9.69,10.5-41.77,44.56-58.02,53.29
				c-1.33,0.72-2.95-0.29-2.93-1.8c0.06-4.21,1.27-12.83,8.1-26.5l-0.48,1.85c-0.61,2.34,2.16,4.08,3.99,2.49
				C354.42,735.53,375.05,716.35,383.53,700.01z"/>
			<g>
				
					<linearGradient id="SVGID_19_" gradientUnits="userSpaceOnUse" x1="9048.0078" y1="392.6297" x2="8898.877" y2="556.0607" gradientTransform="matrix(-1 0 0 1 9485.873 0)">
					<stop  offset="0" style="stop-color:#CB236D"/>
					<stop  offset="1" style="stop-color:#4C246D"/>
				</linearGradient>
				<path class="st20" d="M616.48,474c0,0,29.14,43.34,31.53,63.11c2.39,19.77-8.06,26.61-38.56,29.13
					c-90.76,7.5-135.5-19.7-135.5-19.7c-6.21-39.59-10.63-49.66-62.48-71.18c0,0,65.59,5.21,78.78,0.08
					C503.46,470.33,616.48,474,616.48,474z"/>
			</g>
			<g>
				
					<linearGradient id="SVGID_20_" gradientUnits="userSpaceOnUse" x1="-12776.9756" y1="-1926.7698" x2="-12732.3877" y2="-1814.9226" gradientTransform="matrix(0.9446 -0.3283 0.3283 0.9446 13170.8994 -2203.7378)">
					<stop  offset="0" style="stop-color:#2B3582"/>
					<stop  offset="1" style="stop-color:#150E42"/>
				</linearGradient>
				<path class="st21" d="M500.28,231.18c0,0,20.3-24.01,41.87,5.45c3.91,5.34,18.92,0.93,24.42,12.1c2.84,5.77,8.98,9.04,15.3,7.88
					c15.74-2.9,41.48-3.15,54.19,21.52c9.7,18.83,2.21,29.85-7.48,36.14c-7.12,4.62-9.66,13.99-5.36,21.3
					c4.13,7.01,4.91,16.51-5.76,27.94c-23.9,25.61-71.2-16.25-71.2-16.25L508.7,258.5L500.28,231.18z"/>
				
					<linearGradient id="SVGID_21_" gradientUnits="userSpaceOnUse" x1="16842.3711" y1="324.9348" x2="16414.9238" y2="737.2513" gradientTransform="matrix(-1 0 0 1 17317.5723 0)">
					<stop  offset="0" style="stop-color:#FDF53F"/>
					<stop  offset="1" style="stop-color:#D93C65"/>
				</linearGradient>
				<path class="st22" d="M537.68,468.27c0,0-33.93-32.31-50.64-53.71c-9.03-11.57-11.86-26.8-7.69-40.87
					c7.63-25.69,21.18-52.3,22.41-56.44c1.89-6.35,39.94-6.08,39.94-6.08s74.87,48.59,104.29,130.9l-33.04,10.29
					c0,0-19.55-32.8-38.86-53.65c0,0,33.42,44.15,34.6,62.23L537.68,468.27z"/>
				
					<linearGradient id="SVGID_22_" gradientUnits="userSpaceOnUse" x1="-10965.5078" y1="462.9233" x2="-10784.8838" y2="462.9233" gradientTransform="matrix(1 0 0 1 11551.1094 0)">
					<stop  offset="0" style="stop-color:#F9B776"/>
					<stop  offset="1" style="stop-color:#F47960"/>
				</linearGradient>
				<path class="st23" d="M473.02,481.02l25.5-27.74l29.45,7.93c0,0,34.33,5.32,53.98,0c19.65-5.32,19.65-5.32,19.65-5.32
					l44.4-13.82l6.97,19.71c1.77,5-0.01,10.56-4.34,13.63c-3.84,2.73-8.34,5.73-11.21,6.99c-5.85,2.56-134.7,0.81-134.7,0.81
					L473.02,481.02z"/>
				
					<linearGradient id="SVGID_23_" gradientUnits="userSpaceOnUse" x1="-12789.6387" y1="-549.1557" x2="-12780.8086" y2="-613.7512" gradientTransform="matrix(0.9974 -0.0717 0.0717 0.9974 13307.8467 7.3049)">
					<stop  offset="0" style="stop-color:#F9B776"/>
					<stop  offset="1" style="stop-color:#F47960"/>
				</linearGradient>
				<path class="st24" d="M515.56,265.41l25.57,47.55c-1.69,10.38-27.83,10.67-31.87,4.47c-0.41-0.63-0.65-1.36-0.8-2.1l-15.3-31.77
					c-0.66-3.1,7.84-13.54,10.63-15.03l10.16-5.41C517.87,261.05,501.54,260.89,515.56,265.41z"/>
				<g>
					
						<linearGradient id="SVGID_24_" gradientUnits="userSpaceOnUse" x1="-11199.8574" y1="-5575.1812" x2="-11116.7207" y2="-5723.1362" gradientTransform="matrix(0.5458 -0.8379 0.8379 0.5458 11302.5615 -6019.8809)">
						<stop  offset="0" style="stop-color:#F9B776"/>
						<stop  offset="1" style="stop-color:#F47960"/>
					</linearGradient>
					<path class="st25" d="M463.81,254.26c0,0-2.89,16.07,9.74,36.49c12.63,20.43,25.2,19.5,31.59,12.22
						c6.39-7.28,14.04-19.42,10.56-39.79C512.21,242.8,468.17,233.77,463.81,254.26z"/>
					
						<linearGradient id="SVGID_25_" gradientUnits="userSpaceOnUse" x1="-11181.9795" y1="-5704.0269" x2="-11140.4121" y2="-5599.7544" gradientTransform="matrix(0.5458 -0.8379 0.8379 0.5458 11302.5615 -6019.8809)">
						<stop  offset="0" style="stop-color:#2B3582"/>
						<stop  offset="1" style="stop-color:#150E42"/>
					</linearGradient>
					<path class="st26" d="M500.41,265.39c0,0-20.45-26.86-36.14-3.44l0.26,8.09c0,0-20.41-0.95-18.2-19.77
						c2.21-18.82,18.88-31.67,41.98-25.24s36.6,13.75,39.21,29.79c2.61,16.04-10.49,13.42-10.49,13.42s-5-11.07-11.04-11.82
						c-6.04-0.76-3.86,8-3.86,8L500.41,265.39z"/>
					
						<linearGradient id="SVGID_26_" gradientUnits="userSpaceOnUse" x1="-11182.1602" y1="-5565.2388" x2="-11099.0244" y2="-5713.1924" gradientTransform="matrix(0.5458 -0.8379 0.8379 0.5458 11302.5615 -6019.8809)">
						<stop  offset="0" style="stop-color:#F9B776"/>
						<stop  offset="1" style="stop-color:#F47960"/>
					</linearGradient>
					<path class="st27" d="M505.1,264.67c0,0-10.59-13.74-0.95-16.6c9.64-2.85,9.28,13.47,8.65,19.54L505.1,264.67z"/>
				</g>
			</g>
			<g>
				
					<linearGradient id="SVGID_27_" gradientUnits="userSpaceOnUse" x1="-11010.8203" y1="38.5208" x2="-11105.3096" y2="64.418" gradientTransform="matrix(0.9988 -0.0494 0.0494 0.9988 11573.0234 -121.5718)">
					<stop  offset="0" style="stop-color:#2B3582"/>
					<stop  offset="1" style="stop-color:#150E42"/>
				</linearGradient>
				<path class="st28" d="M557.42,492c-0.09,0-0.18,0.01-0.27,0.01l-117.28-0.13c-2.9,0-5.25-2.36-5.24-5.25
					c0-2.9,2.36-5.3,5.26-5.24l117.28,0.13c2.9,0,5.25,2.36,5.24,5.25C562.4,489.57,560.2,491.86,557.42,492z"/>
				<linearGradient id="SVGID_28_" gradientUnits="userSpaceOnUse" x1="332.0794" y1="445.6277" x2="1181.9175" y2="374.1269">
					<stop  offset="0" style="stop-color:#2B3582"/>
					<stop  offset="1" style="stop-color:#150E42"/>
				</linearGradient>
				<path class="st29" d="M334.45,385.52h97.67c7.21,0,13.76,4.16,16.84,10.67l45.15,95.74H372.73c-4.64,0-8.81-2.84-10.52-7.16
					l-35.01-88.6C325.17,391.07,328.95,385.52,334.45,385.52z"/>
				
					<linearGradient id="SVGID_29_" gradientUnits="userSpaceOnUse" x1="-11142.209" y1="417.44" x2="-11172.6299" y2="463.2503" gradientTransform="matrix(1 0 0 1 11551.1094 0)">
					<stop  offset="0" style="stop-color:#53D8FF"/>
					<stop  offset="1" style="stop-color:#3840F7"/>
				</linearGradient>
				<path class="st30" d="M403.26,434.61c2.12,6.58,0.55,12.96-3.49,14.26c-4.05,1.3-9.04-2.97-11.16-9.55
					c-2.12-6.58-0.55-12.96,3.49-14.26C396.15,423.76,401.14,428.03,403.26,434.61z"/>
			</g>
		</g>
		<g>
			<linearGradient id="SVGID_30_" gradientUnits="userSpaceOnUse" x1="891.0417" y1="85.1452" x2="597.3427" y2="456.1744">
				<stop  offset="0" style="stop-color:#53D8FF"/>
				<stop  offset="1" style="stop-color:#3840F7"/>
			</linearGradient>
			<circle class="st31" cx="769.11" cy="239.18" r="106.73"/>
			<path class="st8" d="M685.11,293.27c-0.33,0-0.65-0.16-0.83-0.46c-10.15-16.02-15.52-34.57-15.52-53.64
				c0-55.33,45.02-100.35,100.35-100.35c0.93,0,1.85,0.01,2.77,0.04c4.33,0.12,8.7,0.52,12.96,1.19c0.54,0.08,0.9,0.59,0.82,1.13
				c-0.08,0.54-0.59,0.91-1.13,0.82c-4.18-0.66-8.45-1.05-12.71-1.17c-0.9-0.03-1.8-0.04-2.71-0.04
				c-54.25,0-98.38,44.13-98.38,98.38c0,18.69,5.26,36.87,15.22,52.58c0.29,0.46,0.15,1.07-0.3,1.36
				C685.47,293.22,685.29,293.27,685.11,293.27z"/>
			<path class="st8" d="M762.75,339.33c-0.02,0-0.04,0-0.06,0c-16.78-1.06-33.14-6.38-47.31-15.39c-4.81-3.05-9.4-6.55-13.64-10.38
				c-0.4-0.36-0.43-0.99-0.07-1.39c0.36-0.4,0.99-0.43,1.39-0.07c4.15,3.76,8.65,7.19,13.37,10.18
				c13.89,8.83,29.92,14.05,46.37,15.09c0.54,0.03,0.95,0.5,0.92,1.04C763.7,338.93,763.27,339.33,762.75,339.33z"/>
			<path class="st8" d="M852.15,185.57c-0.32,0-0.63-0.16-0.82-0.44c-7.89-11.97-18.5-22.27-30.7-29.78
				c-0.46-0.29-0.61-0.89-0.32-1.35c0.28-0.46,0.89-0.61,1.35-0.32c12.44,7.66,23.27,18.16,31.32,30.37
				c0.3,0.45,0.17,1.06-0.28,1.36C852.52,185.52,852.34,185.57,852.15,185.57z"/>
			<g>
				<polygon class="st8" points="769.11,193.52 679.87,220.72 769.11,247.92 858.35,220.72 				"/>
				<path class="st8" d="M769.11,257.46l-56.17-17.12v39.11c0,6.42,4.49,11.97,10.77,13.3c30.16,6.4,59.16,6.59,86.94,0.21
					c6.15-1.41,10.49-6.93,10.49-13.24V241.6L769.11,257.46z"/>
				<path class="st8" d="M700.54,273.68c-4.88,2.17-9.15,2.21-12.8,0.14c-1.07-0.61-1.6-1.86-1.36-3.06l7.94-39.49l7.88,39.19
					C702.47,271.79,701.78,273.13,700.54,273.68z"/>
				<polygon class="st8" points="769.11,216.69 693.17,224.76 693.17,237.93 695.42,237.93 695.65,226.39 				"/>
			</g>
		</g>
	</g>
</g>
</svg>
