<?xml version="1.0" encoding="utf-8"?>
<!-- Generator: Adobe Illustrator 25.0.0, SVG Export Plug-In . SVG Version: 6.00 Build 0)  -->
<svg version="1.1" id="Warstwa_1" xmlns="http://www.w3.org/2000/svg" xmlns:xlink="http://www.w3.org/1999/xlink" x="0px" y="0px"
	 viewBox="0 0 1080 1080" style="enable-background:new 0 0 1080 1080;" xml:space="preserve">
<style type="text/css">
	.st0{opacity:0.3;fill:url(#SVGID_1_);}
	.st1{fill:url(#SVGID_2_);}
	.st2{opacity:0.5;fill:#FFFFFF;}
	.st3{fill:url(#SVGID_3_);}
	.st4{fill:url(#SVGID_4_);}
	.st5{fill:url(#SVGID_5_);}
	.st6{fill:url(#SVGID_6_);}
	.st7{fill:#FFFFFF;}
	.st8{fill:url(#SVGID_7_);}
	.st9{fill:url(#SVGID_8_);}
	.st10{fill:url(#SVGID_9_);}
	.st11{fill:url(#SVGID_10_);}
	.st12{fill:url(#SVGID_11_);}
	.st13{fill:url(#SVGID_12_);}
	.st14{fill:url(#SVGID_13_);}
	.st15{fill:url(#SVGID_14_);}
	.st16{fill:url(#SVGID_15_);}
	.st17{fill:#26264F;}
	.st18{fill:url(#SVGID_16_);}
	.st19{fill:url(#SVGID_17_);}
	.st20{fill:url(#SVGID_18_);}
	.st21{fill:url(#SVGID_19_);}
	.st22{fill:url(#SVGID_20_);}
	.st23{fill:url(#SVGID_21_);}
	.st24{fill:url(#SVGID_22_);}
	.st25{fill:url(#SVGID_23_);}
	.st26{fill:url(#SVGID_24_);}
	.st27{fill:url(#SVGID_25_);}
	.st28{fill:url(#SVGID_26_);}
	.st29{fill:url(#SVGID_27_);}
	.st30{fill:url(#SVGID_28_);}
	.st31{fill:url(#SVGID_29_);}
	.st32{fill:url(#SVGID_30_);}
	.st33{fill:url(#SVGID_31_);}
</style>
<g>
	<g>
		<linearGradient id="SVGID_1_" gradientUnits="userSpaceOnUse" x1="1012.1712" y1="958.5608" x2="406.948" y2="428.9909">
			<stop  offset="0" style="stop-color:#B37CFF"/>
			<stop  offset="1" style="stop-color:#F895E7"/>
		</linearGradient>
		<path class="st0" d="M909.31,683.53C831.1,867.71,622.74,970.88,442.05,943.05c-29.4-4.53-110.01-18.02-181.37-81.66
			C123.29,738.87,93.91,496.27,204.74,325.31c80.66-124.43,225.25-194.97,362.64-191.44c29.59,0.76,143.01,5.44,242.68,87.63
			c14.64,12.07,46.93,40.76,76.03,86.27C954.42,414.62,960.29,563.5,909.31,683.53z"/>
		<g>
			<linearGradient id="SVGID_2_" gradientUnits="userSpaceOnUse" x1="281.7312" y1="841.1136" x2="323.0724" y2="421.7976">
				<stop  offset="0" style="stop-color:#B37CFF"/>
				<stop  offset="1" style="stop-color:#F895E7"/>
			</linearGradient>
			<path class="st1" d="M429.26,866.44c0,0-81.83-291.56-225.4-448.06c-9.65-10.52-25.95-5.95-28.71,8.1
				C156.74,520.39,127.43,804.57,429.26,866.44z"/>
			<path class="st2" d="M400.91,848.23c0.71,0.68-0.11,1.81-0.9,1.23C371.11,828.16,258,722.7,206.05,508.05
				c-0.17-0.69,0.77-0.98,0.99-0.3C223.35,557.39,288.88,740.31,400.91,848.23z"/>
		</g>
		<g>
			<linearGradient id="SVGID_3_" gradientUnits="userSpaceOnUse" x1="306.4857" y1="861.6189" x2="619.4971" y2="-59.6956">
				<stop  offset="0" style="stop-color:#FDF53F"/>
				<stop  offset="1" style="stop-color:#D93C65"/>
			</linearGradient>
			<path class="st3" d="M430.73,760.05c0,0,42.48-215.27-4.62-364.71c-3.17-10.05-16.16-12.65-22.91-4.56
				C358.12,444.89,240.23,617.62,430.73,760.05z"/>
			<path class="st2" d="M417.08,738.71c0.26,0.68-0.7,1.13-1.05,0.49c-12.98-23.53-56.18-129.8-19.1-285.46
				c0.12-0.5,0.87-0.37,0.8,0.14C392.16,491.34,375.47,631.22,417.08,738.71z"/>
		</g>
		<g>
			
				<linearGradient id="SVGID_4_" gradientUnits="userSpaceOnUse" x1="-834.0862" y1="398.395" x2="-858.9043" y2="144.6972" gradientTransform="matrix(-0.9092 -0.4163 -0.4163 0.9092 173.9495 -168.4256)">
				<stop  offset="0" style="stop-color:#B37CFF"/>
				<stop  offset="1" style="stop-color:#F895E7"/>
			</linearGradient>
			<path class="st4" d="M588.94,754.96c0,0,79.39-257.65,217.36-391.94c9.28-9.03,24.86-4.28,27.44,8.41
				C851.02,456.23,878.01,711.77,588.94,754.96z"/>
			<path class="st2" d="M616.14,739.81c-0.68,0.58,0.1,1.63,0.85,1.14c27.74-17.91,136.37-107.73,186.89-297.75
				c0.16-0.61-0.73-0.91-0.95-0.31C787.14,486.67,723.75,647.74,616.14,739.81z"/>
		</g>
		<g>
			<linearGradient id="SVGID_5_" gradientUnits="userSpaceOnUse" x1="430.1494" y1="734.7169" x2="848.6442" y2="731.7593">
				<stop  offset="0" style="stop-color:#233894"/>
				<stop  offset="0.9964" style="stop-color:#DD397A"/>
			</linearGradient>
			<path class="st5" d="M682.26,945.47h-213.2V562.05c0-22.33,18.1-40.42,40.42-40.42h132.35c22.33,0,40.42,18.1,40.42,40.42V945.47
				z"/>
			<linearGradient id="SVGID_6_" gradientUnits="userSpaceOnUse" x1="365.2332" y1="1060.3008" x2="619.5292" y2="553.6655">
				<stop  offset="0" style="stop-color:#233894"/>
				<stop  offset="0.9964" style="stop-color:#DD397A"/>
			</linearGradient>
			<path class="st6" d="M628.11,945.47H414.9V562.05c0-22.33,18.1-40.42,40.42-40.42h132.35c22.33,0,40.42,18.1,40.42,40.42V945.47z
				"/>
			<g>
				<path class="st7" d="M429.2,600.79c-0.82,0-1.48-0.66-1.48-1.48v-30.07c0-16.03,11.77-29.07,26.23-29.07h40.94
					c0.82,0,1.48,0.66,1.48,1.48c0,0.82-0.66,1.48-1.48,1.48h-40.94c-12.84,0-23.28,11.72-23.28,26.12v30.07
					C430.67,600.13,430.01,600.79,429.2,600.79z"/>
				<path class="st7" d="M429.2,632.67c-0.82,0-1.48-0.66-1.48-1.48v-12.25c0-0.82,0.66-1.48,1.48-1.48c0.82,0,1.48,0.66,1.48,1.48
					v12.25C430.67,632.01,430.01,632.67,429.2,632.67z"/>
			</g>
		</g>
		<g>
			<linearGradient id="SVGID_7_" gradientUnits="userSpaceOnUse" x1="262.7648" y1="793.9305" x2="509.0661" y2="801.3492">
				<stop  offset="0" style="stop-color:#53D8FF"/>
				<stop  offset="1" style="stop-color:#3840F7"/>
			</linearGradient>
			<path class="st8" d="M436.13,945.47H252.41V686.53c0-22.33,18.1-40.42,40.42-40.42H395.7c22.33,0,40.42,18.1,40.42,40.42V945.47z
				"/>
			<linearGradient id="SVGID_8_" gradientUnits="userSpaceOnUse" x1="439.5763" y1="775.0283" x2="119.7122" y2="825.7653">
				<stop  offset="0" style="stop-color:#53D8FF"/>
				<stop  offset="1" style="stop-color:#3840F7"/>
			</linearGradient>
			<path class="st9" d="M381.97,945.47H198.26V686.53c0-22.33,18.1-40.42,40.42-40.42h102.86c22.33,0,40.42,18.1,40.42,40.42V945.47
				z"/>
			<g>
				<path class="st7" d="M213.42,731.38c-0.82,0-1.48-0.66-1.48-1.48v-35.48c0-18.77,13.77-34.03,30.69-34.03h48.31
					c0.82,0,1.48,0.66,1.48,1.48c0,0.82-0.66,1.48-1.48,1.48h-48.31c-15.29,0-27.73,13.94-27.73,31.08v35.48
					C214.9,730.71,214.24,731.38,213.42,731.38z"/>
				<path class="st7" d="M213.42,768.99c-0.82,0-1.48-0.66-1.48-1.48v-14.45c0-0.82,0.66-1.48,1.48-1.48c0.82,0,1.48,0.66,1.48,1.48
					v14.45C214.9,768.33,214.24,768.99,213.42,768.99z"/>
			</g>
		</g>
		<g>
			<linearGradient id="SVGID_9_" gradientUnits="userSpaceOnUse" x1="715.6432" y1="793.9305" x2="961.9445" y2="801.3492">
				<stop  offset="0" style="stop-color:#53D8FF"/>
				<stop  offset="1" style="stop-color:#3840F7"/>
			</linearGradient>
			<path class="st10" d="M889,945.47H705.29V686.53c0-22.33,18.1-40.42,40.42-40.42h102.86c22.33,0,40.42,18.1,40.42,40.42V945.47z"
				/>
			<linearGradient id="SVGID_10_" gradientUnits="userSpaceOnUse" x1="883.3926" y1="595.5466" x2="438.6509" y2="1274.7433">
				<stop  offset="0" style="stop-color:#53D8FF"/>
				<stop  offset="1" style="stop-color:#3840F7"/>
			</linearGradient>
			<path class="st11" d="M834.85,945.47H651.13V686.53c0-22.33,18.1-40.42,40.42-40.42h102.86c22.33,0,40.42,18.1,40.42,40.42
				V945.47z"/>
			<g>
				<path class="st7" d="M666.3,731.38c-0.82,0-1.48-0.66-1.48-1.48v-35.48c0-18.77,13.77-34.03,30.69-34.03h48.31
					c0.82,0,1.48,0.66,1.48,1.48c0,0.82-0.66,1.48-1.48,1.48h-48.31c-15.29,0-27.73,13.94-27.73,31.08v35.48
					C667.78,730.71,667.12,731.38,666.3,731.38z"/>
				<path class="st7" d="M666.3,768.99c-0.82,0-1.48-0.66-1.48-1.48v-14.45c0-0.82,0.66-1.48,1.48-1.48c0.82,0,1.48,0.66,1.48,1.48
					v14.45C667.78,768.33,667.12,768.99,666.3,768.99z"/>
			</g>
		</g>
		<g>
			<linearGradient id="SVGID_11_" gradientUnits="userSpaceOnUse" x1="914.2756" y1="393.257" x2="651.8966" y2="1100.113">
				<stop  offset="0" style="stop-color:#FDF53F"/>
				<stop  offset="1" style="stop-color:#D93C65"/>
			</linearGradient>
			<path class="st12" d="M643.45,887.07l150.79-288.89h-30.89c-5.7,0-8.83-6.62-5.22-11.03l160.72-195.88
				c6.97-8.49,20.72-3.11,20.08,7.86l-11.3,191.55c-0.65,10.97-10.37,19.14-21.28,17.89l-21.54-2.47L735.19,930.11
				c-3.89,8.43-12.34,13.84-21.63,13.84H661.7L643.45,887.07z"/>
			<linearGradient id="SVGID_12_" gradientUnits="userSpaceOnUse" x1="723.1315" y1="1042.8524" x2="449.0057" y2="371.245">
				<stop  offset="0" style="stop-color:#FDF53F"/>
				<stop  offset="1" style="stop-color:#D93C65"/>
			</linearGradient>
			<path class="st13" d="M518.78,684.46l106.46,236.48c6.31,14.01,20.24,23.01,35.6,23.01h54.88c7.28,0,13.99-3.95,17.52-10.32
				l1.95-3.52l0,0c-5.9,0-11.3-3.31-13.98-8.56L579.37,643.64L518.78,684.46z"/>
			<linearGradient id="SVGID_13_" gradientUnits="userSpaceOnUse" x1="598.2881" y1="576.5154" x2="200.8066" y2="1099.3116">
				<stop  offset="0" style="stop-color:#FDF53F"/>
				<stop  offset="1" style="stop-color:#D93C65"/>
			</linearGradient>
			<path class="st14" d="M593.7,671.71L593.7,671.71c-10.68-8.43-26.27-5.95-33.81,5.37L403.37,912.24
				c-12.54,18.83-33.66,30.15-56.29,30.15h-22.02l-17.92-51.63c0,0,145.51-223.11,183.02-256.87c0,0,37.35-33.66,74.18-8.21
				c9.73,6.72,17.12,16.32,21.63,27.25L593.7,671.71z"/>
			<linearGradient id="SVGID_14_" gradientUnits="userSpaceOnUse" x1="391.205" y1="1097.9608" x2="-8.2354" y2="220.7588">
				<stop  offset="0" style="stop-color:#FDF53F"/>
				<stop  offset="1" style="stop-color:#D93C65"/>
			</linearGradient>
			<path class="st15" d="M136.89,751.89c0,0,26.2-32.75,76.97-37.84c0,0,24.11,8.22,72.15,94.3
				c48.04,86.08,79.93,125.34,117.35,103.9l-3.1,5.14c-10.21,16.95-28.55,27.32-48.34,27.32h-20.7c-22.79,0-42.57-35.1-55.88-53.59
				C237.96,839.14,159.86,759.96,136.89,751.89z"/>
			<path class="st7" d="M920.79,459.68c-0.06,0-0.11,0-0.17-0.01c-0.81-0.09-1.39-0.82-1.3-1.63l1.06-9.35
				c0.09-0.81,0.82-1.4,1.63-1.3c0.81,0.09,1.39,0.82,1.3,1.63l-1.06,9.35C922.17,459.12,921.53,459.68,920.79,459.68z"/>
			<path class="st7" d="M786.63,577.74c-0.31,0-0.63-0.1-0.9-0.31c-0.65-0.5-0.77-1.42-0.27-2.07l132.71-172.44
				c1.56-2.03,4.11-2.72,6.48-1.76s3.72,3.22,3.43,5.77l-2.34,20.67c-0.09,0.81-0.82,1.4-1.63,1.3c-0.81-0.09-1.39-0.82-1.3-1.63
				l2.34-20.67c0.16-1.44-0.72-2.34-1.61-2.7c-0.88-0.36-2.14-0.33-3.03,0.82L787.8,577.16
				C787.51,577.54,787.07,577.74,786.63,577.74z"/>
			<path class="st7" d="M485.56,758.51c-0.28,0-0.57-0.08-0.82-0.25c-0.68-0.46-0.85-1.37-0.4-2.05l68.64-101.74
				c2.46-3.65,6.55-5.62,10.93-5.29c4.38,0.33,8.12,2.9,10.01,6.88c0.35,0.74,0.03,1.62-0.7,1.97c-0.74,0.35-1.62,0.03-1.97-0.7
				c-1.42-3-4.25-4.95-7.56-5.2c-3.32-0.25-6.4,1.24-8.26,4l-68.64,101.74C486.5,758.29,486.03,758.51,485.56,758.51z"/>
			<path class="st7" d="M467.72,784.95c-0.28,0-0.57-0.08-0.82-0.25c-0.68-0.46-0.85-1.37-0.4-2.05l4.4-6.52
				c0.46-0.68,1.37-0.85,2.05-0.4c0.68,0.46,0.85,1.37,0.4,2.05l-4.4,6.52C468.66,784.72,468.2,784.95,467.72,784.95z"/>
		</g>
		<g>
			<g>
				<linearGradient id="SVGID_15_" gradientUnits="userSpaceOnUse" x1="478.8881" y1="502.7644" x2="785.9625" y2="120.8901">
					<stop  offset="0" style="stop-color:#FDF53F"/>
					<stop  offset="0.1303" style="stop-color:#FAE442"/>
					<stop  offset="0.3878" style="stop-color:#F1B84B"/>
					<stop  offset="0.7443" style="stop-color:#E4725A"/>
					<stop  offset="1" style="stop-color:#D93C65"/>
				</linearGradient>
				<path class="st16" d="M642.38,151.02c32.68-9.68,63.83-7.07,79.39-2.96c18.39,4.86,24.49,8.51,40.77,10.35
					c14.47,1.63,52.93-10.08,48.01-1.27c-6.42,11.48-4.66,56.44,4.92,75.19c1.39,2.73-44.15,9.48-71.75,4.44
					c-38.05-6.95-50.29-18.61-75.28-13.31c-11.52,2.45-20.28,7.34-25.88,11.09C645.12,206.84,639.83,178.75,642.38,151.02z"/>
				<path class="st17" d="M642.79,524c-0.82,0-1.48-0.66-1.48-1.48V142.11c0-0.82,0.66-1.48,1.48-1.48c0.82,0,1.48,0.66,1.48,1.48
					v380.41C644.27,523.34,643.61,524,642.79,524z"/>
			</g>
			<g>
				
					<linearGradient id="SVGID_16_" gradientUnits="userSpaceOnUse" x1="-273.7757" y1="515.2551" x2="-247.5574" y2="515.2551" gradientTransform="matrix(-1 0 0 1 231.6617 0)">
					<stop  offset="0" style="stop-color:#2B3582"/>
					<stop  offset="1" style="stop-color:#150E42"/>
				</linearGradient>
				<path class="st18" d="M479.22,524.04c0-0.2,0.01-0.4,0.06-0.6c2.99-11.84,15.19-17.9,15.19-17.9l5.87,0.46
					c3.38,10.43,5.55,15.52,5.01,18.37c-0.02,0.08-0.04,0.16-0.06,0.23C500.45,525.04,490.48,525.32,479.22,524.04z"/>
				
					<linearGradient id="SVGID_17_" gradientUnits="userSpaceOnUse" x1="-207.778" y1="483.3326" x2="-304.2088" y2="559.0504" gradientTransform="matrix(-1 0 0 1 231.6617 0)">
					<stop  offset="0" style="stop-color:#53D8FF"/>
					<stop  offset="1" style="stop-color:#3840F7"/>
				</linearGradient>
				<path class="st19" d="M505.37,524.61c-0.26,0.95-0.96,1.69-1.86,1.88c-6.89,1.45-17.84,0.28-22.44-0.32
					c-1.01-0.13-1.76-1.07-1.77-2.13C490.55,525.32,500.52,525.04,505.37,524.61z"/>
				
					<linearGradient id="SVGID_18_" gradientUnits="userSpaceOnUse" x1="2308.6694" y1="484.49" x2="2303.4353" y2="530.1708" gradientTransform="matrix(1 0 0 1 -1811.8352 0)">
					<stop  offset="0" style="stop-color:#F9B776"/>
					<stop  offset="1" style="stop-color:#F47960"/>
				</linearGradient>
				<path class="st20" d="M489.64,496.4l2.57,12.38c0.19,0.91,0.89,1.59,1.73,1.67c1.03,0.1,2.5,0.15,3.98-0.06
					c1.33-0.19,2.25-1.54,2.01-2.99l-1.79-10.99H489.64z"/>
				
					<linearGradient id="SVGID_19_" gradientUnits="userSpaceOnUse" x1="2397.4529" y1="505.804" x2="2304.2009" y2="579.0257" gradientTransform="matrix(1 0 0 1 -1811.8352 0)">
					<stop  offset="0" style="stop-color:#53D8FF"/>
					<stop  offset="1" style="stop-color:#3840F7"/>
				</linearGradient>
				<path class="st21" d="M555.11,524.5c-6.27-0.18-9.51-0.91-11.19-1.6c0,0.62,0,1.26,0.02,1.92c0.02,0.7,0.54,1.26,1.18,1.26
					l34.43-0.22c1.1-0.01,1.74-1.28,1.26-2.29C576.3,523.94,564.8,524.78,555.11,524.5z"/>
				
					<linearGradient id="SVGID_20_" gradientUnits="userSpaceOnUse" x1="2355.8279" y1="515.6276" x2="2392.7256" y2="515.6276" gradientTransform="matrix(1 0 0 1 -1811.8352 0)">
					<stop  offset="0" style="stop-color:#2B3582"/>
					<stop  offset="1" style="stop-color:#150E42"/>
				</linearGradient>
				<path class="st22" d="M580.89,523.57c-0.04-0.09-0.08-0.18-0.14-0.26c-3.04-4.25-10.79-12.71-26.09-16.38l-7.34-0.23
					c0,0-3.27,5.68-3.33,16.21c1.68,0.69,4.92,1.42,11.19,1.6C564.88,524.78,576.38,523.94,580.89,523.57z"/>
				
					<linearGradient id="SVGID_21_" gradientUnits="userSpaceOnUse" x1="2363.8081" y1="490.3343" x2="2358.9119" y2="533.0657" gradientTransform="matrix(1 0 0 1 -1811.8352 0)">
					<stop  offset="0" style="stop-color:#F9B776"/>
					<stop  offset="1" style="stop-color:#F47960"/>
				</linearGradient>
				<path class="st23" d="M545.96,495.57c0.08,0.55,1.09,8.86,1.48,12.09c0.09,0.77,0.65,1.36,1.35,1.44
					c1.25,0.15,3.27,0.29,5.04-0.08c0.95-0.2,1.65-1.11,1.65-2.18v-13.06L545.96,495.57z"/>
				<linearGradient id="SVGID_22_" gradientUnits="userSpaceOnUse" x1="616.2357" y1="298.4943" x2="430.1405" y2="543.4285">
					<stop  offset="0" style="stop-color:#2B3582"/>
					<stop  offset="1" style="stop-color:#150E42"/>
				</linearGradient>
				<path class="st24" d="M494.54,333.89c0,0-11.75,104.43-5.22,169.69c0,0,7.83,0,11.75-1.31c0,0,12.21-102.1,16.16-131.32
					c0.15-1.1,1.72-1.15,1.94-0.06c4.87,24.58,24.01,120.97,26.29,130.07c0,0,6.53,2.61,11.75,0c0,0-10.44-139.67-18.27-164.47
					L494.54,333.89z"/>
				<linearGradient id="SVGID_23_" gradientUnits="userSpaceOnUse" x1="577.0518" y1="145.8082" x2="453.0292" y2="367.2775">
					<stop  offset="0" style="stop-color:#233894"/>
					<stop  offset="0.9964" style="stop-color:#DD397A"/>
				</linearGradient>
				<path class="st25" d="M471.05,212.49c0,0,39.49-5.33,75.54,0.11c8.92,1.35,15.13,9.56,13.92,18.49l-3.31,24.47
					c0,0-10.44,56.13-18.27,80.93c0,0-30.02,5.22-44.38-2.61c0,0-11.75-70.49-18.27-80.93
					C476.27,252.96,469.74,225.55,471.05,212.49z"/>
				<linearGradient id="SVGID_24_" gradientUnits="userSpaceOnUse" x1="500.5645" y1="194.9049" x2="524.0364" y2="194.9049">
					<stop  offset="0" style="stop-color:#F9B776"/>
					<stop  offset="1" style="stop-color:#F47960"/>
				</linearGradient>
				<path class="st26" d="M505.51,176.83l-4.94,33.42c0,0,13.81,6.34,23.47-0.27l-2.08-23.58L505.51,176.83z"/>
				<g>
					
						<linearGradient id="SVGID_25_" gradientUnits="userSpaceOnUse" x1="2556.4211" y1="-776.4382" x2="2597.54" y2="-786.4459" gradientTransform="matrix(0.8757 -0.4828 0.4828 0.8757 605.1023 296.8071)">
						<stop  offset="0" style="stop-color:#F9B776"/>
						<stop  offset="1" style="stop-color:#F47960"/>
					</linearGradient>
					<path class="st27" d="M526.78,155.07c0.16,0.28,3.13,17.13,4.97,27.56c0.76,4.31-2.41,8.31-6.78,8.57l-4,0.24
						c-7.35,0.44-13.82-4.8-14.94-12.07l-2.89-18.89C503.14,160.47,523,148.21,526.78,155.07z"/>
					
						<linearGradient id="SVGID_26_" gradientUnits="userSpaceOnUse" x1="-34.1899" y1="-165.1333" x2="8.1625" y2="-165.1333" gradientTransform="matrix(0.8757 -0.4828 0.4828 0.8757 605.1023 296.8071)">
						<stop  offset="0" style="stop-color:#2B3582"/>
						<stop  offset="1" style="stop-color:#150E42"/>
					</linearGradient>
					<path class="st28" d="M498.83,160.52c-1.53-1.91-2.87-4.99,0.4-8.23c3.31-3.28,7.06-2.46,9.44-1.36
						c1.05,0.49,2.35,0.27,3.1-0.61c0.33-0.39,0.83-0.66,1.56-0.58c1.38,0.16,2.62-0.76,2.78-2.14c0.28-2.37,1.54-5.16,5.73-5.97
						c7.68-1.49,11.52,6.21,11.38,11.61c-0.14,5.4-8.56,6.54-13.34,5.64c-3.51-0.66-6.55,2.43-7.91,4.11
						c-0.5,0.61-0.68,1.41-0.5,2.18l1.21,5.22c-0.84,1.62-1.67,3.28-2.85,4.67c-0.85,1-1.78,1.55-2.77,1.78
						c-1.43-2.67-5.44-3.12-7.3-3.18c-0.71-0.02-1.38-0.34-1.85-0.87c-1.4-1.61-3.6-5.21,0.61-8.74
						C499.57,163.16,499.69,161.58,498.83,160.52z"/>
					
						<linearGradient id="SVGID_27_" gradientUnits="userSpaceOnUse" x1="2554.9944" y1="-782.4" x2="2596.1138" y2="-792.4078" gradientTransform="matrix(0.8757 -0.4828 0.4828 0.8757 605.1023 296.8071)">
						<stop  offset="0" style="stop-color:#F9B776"/>
						<stop  offset="1" style="stop-color:#F47960"/>
					</linearGradient>
					<path class="st29" d="M508.45,182.42c0,0-0.17-9.43-3.98-10.31c-3.82-0.89-7.93,1.87-4.67,7.52
						C503.86,186.64,508.45,182.42,508.45,182.42z"/>
				</g>
				<linearGradient id="SVGID_28_" gradientUnits="userSpaceOnUse" x1="516.0039" y1="111.6214" x2="391.981" y2="333.0912">
					<stop  offset="0" style="stop-color:#233894"/>
					<stop  offset="0.9964" style="stop-color:#DD397A"/>
				</linearGradient>
				<path class="st30" d="M493.37,257.57c0,0-112.08-30.51-56.43-108.97l3.77,5.33c0,0-16.77,53.14,38.78,58.19
					C479.49,212.12,493.87,249.22,493.37,257.57z"/>
				<linearGradient id="SVGID_29_" gradientUnits="userSpaceOnUse" x1="450.7469" y1="125.181" x2="437.4922" y2="168.7324">
					<stop  offset="0" style="stop-color:#F9B776"/>
					<stop  offset="1" style="stop-color:#F47960"/>
				</linearGradient>
				<path class="st31" d="M436.57,149c0,0-1.26-15.15,6.31-16.41c7.57-1.26,10.1,6.31,11.36,10.1c1.26,3.79-11.36,11.36-13.89,11.36
					C437.83,154.05,436.57,149,436.57,149z"/>
				
					<linearGradient id="SVGID_30_" gradientUnits="userSpaceOnUse" x1="3942.2485" y1="1104.8838" x2="3818.2278" y2="1326.3496" gradientTransform="matrix(-0.0667 -0.9978 -0.9978 0.0667 1996.6951 4083.4514)">
					<stop  offset="0" style="stop-color:#233894"/>
					<stop  offset="0.9964" style="stop-color:#DD397A"/>
				</linearGradient>
				<path class="st32" d="M553.77,265.95c0,0,14.49,57.33,87.15-5.83l-5.57-3.4c0,0-63.98,45.39-75.25-32.04
					C560.11,224.68,553.77,258.98,553.77,265.95z"/>
				
					<linearGradient id="SVGID_31_" gradientUnits="userSpaceOnUse" x1="3918.9426" y1="1074.2911" x2="3905.6882" y2="1117.8413" gradientTransform="matrix(-0.0667 -0.9978 -0.9978 0.0667 1996.6951 4083.4514)">
					<stop  offset="0" style="stop-color:#F9B776"/>
					<stop  offset="1" style="stop-color:#F47960"/>
				</linearGradient>
				<path class="st33" d="M640.55,260.52c0,0,15.2,0.25,15.95-7.39c0.75-7.64-6.97-9.66-10.83-10.66
					c-3.86-1.01-10.58,12.09-10.41,14.61C635.43,259.6,640.55,260.52,640.55,260.52z"/>
			</g>
		</g>
	</g>
</g>
</svg>
